<?xml version="1.0" encoding="UTF-8"?>
<svg width="83px" height="66px" viewBox="0 0 83 66" version="1.1" xmlns="http://www.w3.org/2000/svg" xmlns:xlink="http://www.w3.org/1999/xlink">
    <!-- Generator: Sketch 49.3 (51167) - http://www.bohemiancoding.com/sketch -->
    <title>benioff</title>
    <desc>Created with Sketch.</desc>
    <defs></defs>
    <g id="Page-1" stroke="none" stroke-width="1" fill="none" fill-rule="evenodd" opacity="0.784816576">
        <g id="Artboard" transform="translate(-451.000000, -968.000000)">
            <g id="benioff" transform="translate(451.000000, 969.000000)">
                <ellipse id="Oval" stroke="#3E3E3E" stroke-width="1.83" cx="41.9811" cy="27.3094134" rx="24.153" ry="24.3998751"></ellipse>
                <ellipse id="Oval" stroke="#3E3E3E" stroke-width="0.46" cx="41.9811" cy="27.3094134" rx="26.8837" ry="27.1584864"></ellipse>
                <polygon id="Shape" fill="#3E3E3E" fill-rule="nonzero" points="24.6424 37.1867512 24.6424 33.8328165 27.73 33.8328165 27.73 20.7608559 24.6424 20.7608559 24.6424 17.4069212 36.6193 17.4069212 41.84 29.0031505 47.1105 17.4236909 59.3115 17.4236909 59.3115 20.7776256 56.2322 20.7776256 56.2322 33.8495861 59.3198 33.8495861 59.3198 37.2035209 47.3097 37.2035209 47.3097 33.8495861 50.1898 33.8495861 50.1898 20.7608559 49.6254 20.7608559 42.2301 37.1867512 39.6571 37.1867512 32.1871 20.7608559 31.6144 20.7608559 31.6144 33.8495861 34.7352 33.8495861 34.7352 37.2035209 24.6424 37.2035209"></polygon>
                <polygon id="Shape" fill="#3E3E3E" fill-rule="nonzero" points="0.3652 64.7812491 0.3652 63.8756867 1.1952 63.8756867 1.1952 60.3289008 0.3652 60.3289008 0.3652 59.4233384 3.6105 59.4233384 5.0298 62.5592673 6.4574 59.4233384 9.7774 59.4233384 9.7774 60.3289008 8.9474 60.3289008 8.9474 63.8756867 9.7774 63.8756867 9.7774 64.7812491 6.5155 64.7812491 6.5155 63.8756867 7.2957 63.8756867 7.2957 60.3289008 7.138 60.3289008 5.1377 64.7812491 4.4405 64.7812491 2.407 60.3289008 2.2576 60.3289008 2.2576 63.8756867 3.0876 63.8756867 3.0876 64.7812491"></polygon>
                <path d="M17.0814,63.8756867 L17.0814,64.7812491 L13.8942,64.7812491 L13.8942,63.8756867 L14.7242,63.8756867 L14.4171,62.9533547 L12.7571,62.9533547 L12.4085,63.8756867 L13.2385,63.8756867 L13.2385,64.7812491 L10.3916,64.7812491 L10.3916,63.8756867 L11.2216,63.8756867 L12.45,60.3289008 L11.62,60.3289008 L11.62,59.4233384 L15.8447,59.4233384 L15.8447,60.3289008 L14.94,60.3289008 L16.3012,63.8756867 L17.0731,63.8756867 L17.0814,63.8756867 Z M14.1515,62.1987194 L13.612,60.5552913 L13.031,62.1735648 L14.1515,62.1735648 L14.1515,62.1987194 Z" id="Shape" fill="#3E3E3E" fill-rule="nonzero"></path>
                <path d="M24.4186,63.8756867 L24.4186,64.7812491 L22.41,64.7812491 L20.9492,62.4334948 L20.2437,62.4334948 L20.2437,63.8756867 L21.0737,63.8756867 L21.0737,64.7812491 L17.6707,64.7812491 L17.6707,63.8756867 L18.5588,63.8756867 L18.5588,60.3289008 L17.6707,60.3289008 L17.6707,59.4233384 L21.58,59.4233384 C22.1468661,59.372018 22.7122615,59.5364923 23.1653,59.8845044 C23.4685555,60.1441114 23.646891,60.5227491 23.655,60.9242242 C23.6240865,61.5739352 23.1641088,62.1212241 22.5345,62.2574132 L23.5886,63.8756867 L24.4186,63.8756867 L24.4186,63.8756867 Z M20.2686,61.5782414 L20.8413,61.5782414 C21.5551,61.5782414 21.912,61.3686205 21.912,60.9493787 C21.924289,60.7598545 21.8316091,60.5790572 21.6713,60.4798278 C21.4653928,60.3675039 21.2326188,60.3152476 20.999,60.3289008 L20.2437,60.3289008 L20.2437,61.5782414 L20.2686,61.5782414 Z" id="Shape" fill="#3E3E3E" fill-rule="nonzero"></path>
                <path d="M30.6021,59.4233384 L31.6977,59.4233384 L31.6977,61.3099267 L30.6021,61.3099267 C30.3274385,60.6615854 29.6806028,60.2561131 28.9836,60.2953614 C28.4507338,60.2565042 27.9272381,60.4521468 27.5477,60.831991 C27.2261679,61.1794138 27.050615,61.6393144 27.058,62.114871 C27.0434855,62.5916349 27.2306312,63.0520841 27.5726,63.3809813 C28.2752692,63.998594 29.3060481,64.0471887 30.0626,63.4983691 C30.3935897,63.2480962 30.6282884,62.8894859 30.7266,62.4838038 L32.0048,62.986894 C31.5234,64.2334398 30.4582333,64.8567126 28.8093,64.8567126 C27.8679173,64.9254548 26.9336144,64.6485516 26.1782,64.0769228 C25.6031945,63.5889992 25.2768709,62.8649818 25.2901,62.1064862 C25.2720383,61.5738798 25.4264871,61.0498632 25.73,60.6139852 C26.0453358,60.1844976 26.4738854,59.8532625 26.9667,59.6581138 C27.5105232,59.4399706 28.0914249,59.3317187 28.6765,59.33949 C29.358288,59.3153102 30.0325486,59.4899647 30.6187,59.8425802 L30.6187,59.4233384 L30.6021,59.4233384 Z" id="Shape" fill="#3E3E3E" fill-rule="nonzero"></path>
                <path d="M35.69,64.7812491 L35.69,63.8756867 L36.52,63.8756867 L36.52,60.3289008 L35.69,60.3289008 L35.69,59.4233384 L38.6448,59.4233384 C39.1334718,59.4105656 39.6223053,59.44143 40.1056,59.5155716 C40.423268,59.5776298 40.7136063,59.738948 40.9356,59.9767376 C41.1570462,60.1986247 41.2824011,60.5001394 41.2842,60.8152213 C41.2720757,61.3539013 40.8935019,61.8128333 40.3712,61.9220197 C41.0040781,62.025535 41.4765813,62.5660442 41.5,63.2132846 C41.5076601,63.5540457 41.3789937,63.8835337 41.1431,64.1272318 C40.8904856,64.3889722 40.5671744,64.5697774 40.2135,64.6470917 C39.6860359,64.7511434 39.1488244,64.7961343 38.6116,64.7812491 L35.69,64.7812491 L35.69,64.7812491 Z M38.18,61.5363172 L38.6531,61.5363172 C38.9018475,61.5510801 39.1502503,61.5020455 39.3752,61.393775 C39.5364734,61.2882188 39.6260927,61.1006813 39.6076,60.9074545 C39.6246509,60.7256728 39.5376845,60.5499622 39.3835,60.4546733 C39.1222933,60.340535 38.836919,60.2944085 38.5535,60.3205159 L38.18,60.3205159 L38.18,61.5279324 L38.18,61.5363172 Z M38.18,63.8756867 L38.6531,63.8756867 C38.9568425,63.8983075 39.2615023,63.8465325 39.5412,63.7247597 C39.7214514,63.6062954 39.8208216,63.3958088 39.7985,63.1797453 C39.8212293,62.9526645 39.7152485,62.7320477 39.5246,62.6095764 C39.249761,62.4804468 38.9473202,62.4227992 38.6448,62.4418796 L38.18,62.4418796 L38.18,63.8756867 L38.18,63.8756867 Z" id="Shape" fill="#3E3E3E" fill-rule="nonzero"></path>
                <polygon id="Shape" fill="#3E3E3E" fill-rule="nonzero" points="42.7201 64.7812491 42.7201 63.8756867 43.492 63.8756867 43.492 60.3289008 42.7201 60.3289008 42.7201 59.4233384 48.4222 59.4233384 48.4222 61.1003057 47.1855 61.1003057 47.1855 60.3289008 45.1769 60.3289008 45.1769 61.5614718 46.8369 61.5614718 46.8369 62.4670341 45.1769 62.4670341 45.1769 63.8756867 47.1855 63.8756867 47.1855 63.037203 48.4222 63.037203 48.4222 64.7141704 42.7201 64.7141704"></polygon>
                <polygon id="Shape" fill="#3E3E3E" fill-rule="nonzero" points="49.3933 64.7812491 49.3933 63.8756867 50.2233 63.8756867 50.2233 60.3289008 49.3933 60.3289008 49.3933 59.4233384 52.1157 59.4233384 54.4978 62.7772731 54.4978 60.3289008 53.6678 60.3289008 53.6678 59.4233384 56.5728 59.4233384 56.5728 60.3289008 55.61 60.3289008 55.61 64.8147884 54.2073 64.8147884 51.4185 60.8403758 51.4185 63.8673019 52.2485 63.8673019 52.2485 64.7728643 49.3933 64.7728643"></polygon>
                <polygon id="Shape" fill="#3E3E3E" fill-rule="nonzero" points="57.27 64.7812491 57.27 63.8756867 58.2494 63.8756867 58.2494 60.3289008 57.27 60.3289008 57.27 59.4233384 60.9303 59.4233384 60.9303 60.3289008 59.9426 60.3289008 59.9426 63.8756867 60.9303 63.8756867 60.9303 64.7812491"></polygon>
                <path d="M65.57,59.33949 C66.520232,59.2951669 67.4553009,59.5922193 68.2094,60.1779737 C68.8157842,60.6406893 69.1722236,61.363941 69.1722236,62.1316407 C69.1722236,62.8993403 68.8157842,63.622592 68.2094,64.0853076 C67.4571805,64.6685207 66.5256267,64.96539 65.5783,64.9237913 C64.6185221,64.9833527 63.6704826,64.6849946 62.914,64.0853076 C62.334754,63.6148433 61.9938283,62.9075721 61.9844,62.1567952 C61.9837113,61.3908671 62.3366683,60.6684359 62.9389,60.2031282 C63.6867078,59.6089747 64.6193095,59.3028554 65.57,59.33949 Z M65.57,60.3205159 C65.1070423,60.308614 64.6566239,60.4732602 64.3084,60.7816819 C63.9413182,61.1318487 63.7519344,61.6317482 63.7938,62.1400255 C63.7792855,62.6167895 63.9664312,63.0772386 64.3084,63.4061359 C64.6544329,63.7256161 65.1096971,63.8969579 65.5783,63.8840716 C66.0439644,63.8972692 66.4974307,63.7325922 66.8482,63.4229055 C67.5260935,62.688562 67.5260935,61.5495648 66.8482,60.8152213 C66.5055042,60.4821772 66.0454009,60.3010839 65.57,60.3121311 L65.57,60.3205159 Z" id="Shape" fill="#3E3E3E" fill-rule="nonzero"></path>
                <polygon id="Shape" fill="#3E3E3E" fill-rule="nonzero" points="70.301 64.7812491 70.301 63.8756867 71.2306 63.8756867 71.2306 60.3289008 70.301 60.3289008 70.301 59.4233384 76.111 59.4233384 76.111 61.1003057 74.8577 61.1003057 74.8577 60.3289008 72.9155 60.3289008 72.9155 61.5698566 74.3182 61.5698566 74.3182 62.475419 72.9155 62.475419 72.9155 63.8756867 73.87 63.8756867 73.87 64.7812491"></polygon>
                <polygon id="Shape" fill="#3E3E3E" fill-rule="nonzero" points="76.8414 64.7812491 76.8414 63.8756867 77.771 63.8756867 77.771 60.3289008 76.8414 60.3289008 76.8414 59.4233384 82.6514 59.4233384 82.6514 61.1003057 81.3981 61.1003057 81.3981 60.3289008 79.4476 60.3289008 79.4476 61.5698566 80.8503 61.5698566 80.8503 62.475419 79.4476 62.475419 79.4476 63.8756867 80.4436 63.8756867 80.4436 64.7812491"></polygon>
            </g>
        </g>
    </g>
</svg>