<?xml version="1.0" encoding="UTF-8"?>
<svg width="85px" height="32px" viewBox="0 0 85 32" version="1.1" xmlns="http://www.w3.org/2000/svg" xmlns:xlink="http://www.w3.org/1999/xlink">
    <!-- Generator: Sketch 49.3 (51167) - http://www.bohemiancoding.com/sketch -->
    <title>boost</title>
    <desc>Created with Sketch.</desc>
    <defs></defs>
    <g id="Page-1" stroke="none" stroke-width="1" fill="none" fill-rule="evenodd">
        <g id="Artboard" transform="translate(-620.000000, -986.000000)" fill="#686868" fill-rule="nonzero">
            <g id="boost" transform="translate(620.666667, 986.000000)">
                <path d="M83.961,24.351 C83.4759558,25.1642163 82.6293693,25.6944957 81.686,25.776 C80.1077019,26.1568184 78.4501123,26.0383692 76.942,25.437 C75.9661946,24.9514172 75.3254311,23.9801586 75.263,22.892 C74.852,19.626 75.171,16.344 75.078,13.07 C75.078,12.145 75.078,12.145 74.171,12.137 C73.7538366,12.1364227 73.3546111,11.9672838 73.064,11.668 C72.7714839,11.3669284 72.6109819,10.9617148 72.618,10.542 C72.7397411,9.73506219 73.4222365,9.13134868 74.238,9.109 C75.078,9.067 75.078,9.067 75.078,8.201 L75.078,5.173 C75.0583556,4.40232434 75.4399394,3.67663359 76.086,3.256 C76.672893,2.91795147 77.3879569,2.88807935 78.001,3.176 C78.6166345,3.46648457 79.0542061,4.03625873 79.176,4.706 C79.285,5.698 79.176,6.682 79.252,7.666 L79.252,8.692 C79.2202108,8.80860712 79.250833,8.93336394 79.333,9.022 C79.4142727,9.10789504 79.5341511,9.14571155 79.65,9.122 C80.2943713,9.05613978 80.9449079,9.08477552 81.581,9.207 C82.0329246,9.32997716 82.3982579,9.66257186 82.563,10.101 C82.7294459,10.5410732 82.6767309,11.0340692 82.421,11.429 C82.0568282,11.8826026 81.5025722,12.1412554 80.921,12.129 C80.4824247,12.1654989 80.0415753,12.1654989 79.603,12.129 C79.5138937,12.1147597 79.4233229,12.1437127 79.359,12.207 C79.294362,12.2707084 79.2632769,12.3610033 79.275,12.451 C79.275,14.809 79.216,17.167 79.275,19.517 C79.2357178,20.2869301 79.2863937,21.0588143 79.426,21.817 C79.6531702,22.4406702 80.304576,22.8021833 80.954,22.665 C81.399,22.572 81.854,22.487 82.306,22.428 C83.0092837,22.3134646 83.7006476,22.690647 83.985,23.344 L83.985,24.353 L83.961,24.351 Z" id="Path_3"></path>
                <path d="M71.014,14.257 C70.4864284,14.3109709 69.966764,14.0978522 69.629,13.689 C69.293,13.299 68.941,12.926 68.596,12.552 C68.1506847,12.0192471 67.5329936,11.6591043 66.85,11.534 C65.8775242,11.3221958 64.8609282,11.4857942 64.004,11.992 C63.5538199,12.234556 63.2819137,12.7131109 63.304,13.224 C63.3243298,13.734628 63.6352209,14.188529 64.104,14.392 C65.017448,14.8615443 65.9943436,15.19571 67.004,15.384 C68.7752728,15.697443 70.4672689,16.3573861 71.983,17.326 C73.3402566,18.2467718 73.9790529,19.9164259 73.583,21.508 C73.4045928,22.5002861 72.9240188,23.4132371 72.207,24.122 C71.2575294,24.9599089 70.0957824,25.5203706 68.849,25.742 C68.1160253,25.8683542 67.3753264,25.944863 66.632,25.971 C65.8871071,26.003613 65.1408933,25.9536419 64.407,25.822 C63.1989064,25.6593733 62.0472149,25.2102171 61.048,24.512 C59.9415647,23.8291701 59.2578826,22.6309372 59.233,21.331 C59.2539602,20.509024 59.8634752,19.8214203 60.677,19.702 C61.3036663,19.5781016 61.9446652,19.8337963 62.314,20.355 C62.6999007,21.0296913 63.168156,21.6538077 63.708,22.213 C64.2243129,22.6750775 64.8680308,22.9706231 65.555,23.061 C66.246094,23.1893199 66.954906,23.1893199 67.646,23.061 C68.4089447,22.9591299 69.0737667,22.490393 69.426,21.806 C69.6491768,21.0984461 69.4200165,20.3262669 68.847,19.855 C68.1490835,19.422652 67.3823637,19.1128526 66.58,18.939 C64.6429142,18.565528 62.7851336,17.8594292 61.089,16.852 C59.70522,15.9251643 59.069622,14.2169443 59.511,12.611 C59.9403698,11.026954 61.1257967,9.75803046 62.677,9.222 C64.1863056,8.6754699 65.8064176,8.50655804 67.396,8.73 C68.8803689,8.81022184 70.3045644,9.34311733 71.477,10.257 C72.3353639,10.8077449 72.8223017,11.7850768 72.745,12.802 C72.7257455,13.1972831 72.5510593,13.5689405 72.259,13.836 C71.9686578,14.1015429 71.583926,14.2395132 71.191,14.219 L71.015,14.219 L71.014,14.257 Z" id="Path_6"></path>
                <path d="M59.176,14.537 C58.5811624,12.0706978 56.7725892,10.0763691 54.376,9.244 C52.8518144,8.69470651 51.2103027,8.55437985 49.615,8.837 C48.5011112,8.98492438 47.4310624,9.36659785 46.475,9.957 C45.373526,10.6506713 44.4708009,11.6181722 43.855,12.765 C43.7415873,13.1461792 43.5436787,13.4968773 43.276,13.791 C43.0795713,12.9173293 42.7982343,12.0649451 42.436,11.246 C41.8516825,9.91916152 41.0642424,8.69144313 40.102,7.607 C39.3163071,6.78632581 38.4746193,6.02115507 37.583,5.317 C36.8414328,4.63399452 35.7621832,4.46325464 34.846,4.884 C34.0292327,5.35976668 33.5323499,6.23886699 33.546,7.184 C33.6652255,8.06357762 34.1748078,8.84246336 34.933,9.304 C35.8537663,9.90067992 36.6448464,10.6767954 37.259,11.586 C38.4281892,13.2077556 39.0327959,15.1684237 38.98,17.167 C38.9692945,17.7372325 38.9131163,18.3057023 38.812,18.867 C38.5131106,20.5087637 37.7674698,22.0363757 36.657,23.282 C35.864004,24.1615237 34.9145756,24.8861411 33.857,25.419 C32.7447804,25.9973921 31.5233396,26.3353752 30.272,26.411 C29.4797488,26.4573695 28.6847946,26.4090277 27.904,26.267 C26.2661946,25.9911765 24.7403641,25.2560036 23.504,24.147 C21.8716922,22.7170433 20.7777766,20.771638 20.404,18.634 C20.1741425,17.417661 20.200025,16.1667898 20.48,14.961 C20.9794465,12.5825648 22.4017503,10.4992763 24.435,9.168 C25.0777934,8.78527525 25.5329814,8.15300935 25.692,7.422 C25.8107204,6.77595079 25.651711,6.10978113 25.254,5.587 C24.859821,5.06581834 24.2614459,4.73824072 23.61,4.687 C22.8973703,4.68915199 22.2080524,4.9410998 21.662,5.399 C20.5660046,6.1820797 19.577851,7.1060151 18.723,8.147 C17.9183265,9.13536564 17.2673372,10.2394517 16.792,11.422 C16.515,12.109 16.292,12.822 15.952,13.653 C15.052,10.998 13.433,9.302 10.738,8.844 C8.22364077,8.38159717 5.65546936,9.31221043 4.021,11.278 L4.021,4.792 C4.02404723,4.50668627 3.99316384,4.22202196 3.929,3.944 C3.75571923,3.09930775 3.04288835,2.47221254 2.183,2.408 C1.277894,2.33823756 0.443636524,2.90006753 0.168,3.765 C0.171187722,3.99660058 0.113239087,4.2249458 0,4.427 L0,24.08 C0.0230787828,24.5197118 0.155772079,24.9466679 0.386,25.322 C0.877995378,25.94985 1.69896233,26.2207454 2.468,26.009 C3.18294293,25.886002 3.76046831,25.3573201 3.946,24.656 C4.05830367,24.2624705 4.14251553,23.8614616 4.198,23.456 C5.69803717,25.6056298 8.38038622,26.5903958 10.915,25.922 C13.593,25.388 15.172,23.539 16.087,20.922 C16.221,21.329 16.322,21.643 16.431,21.957 C16.5350058,22.2851953 16.6554921,22.6079383 16.792,22.924 C18.4185945,26.536218 21.4811496,29.3040108 25.239,30.558 C26.1694283,30.8630468 27.1335089,31.053781 28.11,31.126 L31.292,31.126 C31.4570198,31.0104315 31.6535365,30.9483001 31.855,30.948 C33.1007019,30.801654 34.3127443,30.4459864 35.44,29.896 C37.2786807,29.0537815 38.9075132,27.8139698 40.209,26.266 C41.2252202,25.0684749 42.0469126,23.7186722 42.644,22.266 C42.8060653,21.6780793 43.0282369,21.1084086 43.307,20.566 C43.5087315,21.2572432 43.8214759,21.9111018 44.233,22.502 C45.1162583,23.8213369 46.3808283,24.8399699 47.858,25.422 C48.999472,25.8423302 50.209916,26.0438447 51.426,26.016 C51.8974325,25.999591 52.3673632,25.9534997 52.833,25.878 C54.5518476,25.6553076 56.1412518,24.8464774 57.333,23.588 C58.9174022,21.8446466 59.7396712,19.5405652 59.617,17.188 C59.5860298,16.2889036 59.4377762,15.3977013 59.176,14.537 Z M11.476,20.61 C10.9857585,21.566899 10.1141244,22.2721963 9.076,22.552 C7.24623701,22.920383 5.41108282,21.9448162 4.693,20.222 C4.38132751,19.3677859 4.2124023,18.4680902 4.193,17.559 C4.09278944,16.1390991 4.47127133,14.7265695 5.268,13.547 C5.92351465,12.5792866 7.00006832,11.9808713 8.168,11.935 C9.79105459,11.88921 11.2461543,12.9294428 11.728,14.48 C12.0574382,15.4072974 12.2084277,16.3885597 12.173,17.372 C12.2468668,18.4961821 12.0043735,19.6185797 11.473,20.612 L11.476,20.61 Z M55.338,17.51 C55.3776971,18.8059805 55.0234417,20.0835318 54.322,21.174 C53.7517848,22.0930766 52.7732389,22.6806511 51.694,22.752 C51.0516914,22.8121549 50.4038313,22.7441737 49.788,22.552 C49.1632599,22.3592465 48.6219836,21.9610419 48.252,21.422 C47.3910976,20.2558786 46.9715737,18.822269 47.068,17.376 C47.0036203,16.1058917 47.2945031,14.8429755 47.908,13.729 C48.47295,12.692266 49.5412561,12.0287997 50.721,11.982 C51.6005466,11.8631098 52.4936685,12.0616601 53.24,12.542 C54.2745595,13.2887816 54.9453936,14.4379527 55.087,15.706 C55.225734,16.2970563 55.3100857,16.8995689 55.339,17.506 L55.338,17.51 Z" id="Path_9"></path>
                <path d="M29.982,0.034 C30.6469355,0.186359699 31.2044435,0.636867425 31.493,1.255 C31.6810998,1.64493567 31.7869611,2.069402 31.804,2.502 L31.804,15.48 C31.762295,16.4730113 31.1459053,17.3507222 30.226,17.727 C29.3938507,17.9309289 28.5190049,17.6332003 27.984,16.964 C27.6064993,16.4133157 27.4151653,15.756262 27.438,15.089 L27.438,2.799 C27.4242239,2.07818418 27.6387904,1.37147992 28.051,0.78 C28.3518714,0.430265743 28.7360365,0.162003658 29.168,0 L30.008,0 L29.982,0.034 Z" id="Path_12"></path>
            </g>
        </g>
    </g>
</svg>