<?xml version="1.0" encoding="UTF-8"?>
<svg width="58px" height="37px" viewBox="0 0 58 37" version="1.1" xmlns="http://www.w3.org/2000/svg" xmlns:xlink="http://www.w3.org/1999/xlink">
    <!-- Generator: Sketch 49.3 (51167) - http://www.bohemiancoding.com/sketch -->
    <title>brands</title>
    <desc>Created with Sketch.</desc>
    <defs></defs>
    <g id="Page-1" stroke="none" stroke-width="1" fill="none" fill-rule="evenodd" opacity="0.784816576">
        <g id="Artboard" transform="translate(-791.000000, -984.000000)" fill="#3E3E3E" fill-rule="nonzero">
            <g id="brands" transform="translate(791.333333, 984.000000)">
                <polygon id="Shape" points="1.47509071 0.100573311 5.44554321 0.100573311 14.8246617 20.0832331 24.2345112 0.100573311 28.2049637 0.100573311 28.2049637 23.5718699 25.6297011 23.5718699 25.6297011 2.66519275 25.5620928 2.66519275 15.9063948 23.5718699 13.7121974 23.5718699 4.12410778 2.66519275 4.05649946 2.66519275 4.05649946 23.5718699 1.47509071 23.5718699"></polygon>
                <path d="M35.3837385,0.100573311 L44.1236509,0.100573311 C55.0761995,0.100573311 55.5002881,5.39952966 55.5002881,6.34869029 C55.5002881,9.10817052 52.9127331,10.4093377 51.6957833,11.0756359 C55.1745389,12.0247966 57.4793681,14.1494078 57.4793681,16.8460297 C57.4793681,19.0963575 55.9305228,21.1581104 53.4843307,22.2707027 C50.7554129,23.3518658 48.5673617,23.5718699 44.9779743,23.5718699 L35.3837385,23.5718699 L35.3837385,0.100573311 Z M38.8624941,10.2207628 L43.2324503,10.2207628 C45.9613681,10.2207628 47.5347982,10.1264753 49.2004215,9.55446459 C50.8660447,8.98245388 52.0215325,7.668715 52.0215325,6.25440281 C52.0215325,5.17323971 51.456081,4.41265404 50.5648804,3.68349753 C49.2004215,2.63376359 47.0861248,2.22518452 43.515176,2.22518452 L38.8563478,2.22518452 L38.8563478,10.2144769 L38.8624941,10.2207628 Z M38.8624941,21.4472587 L43.7794631,21.4472587 C46.6927673,21.4472587 48.4813147,21.3529712 50.3620554,20.8186755 C52.5255218,20.1900923 54.0497822,18.5997768 54.0497822,16.8208863 C54.0497822,15.0419959 52.2612347,13.4579662 49.9625517,12.8545264 C48.315367,12.4082323 46.889446,12.3139448 43.2017192,12.3139448 L38.8993713,12.3139448 L38.8993713,21.4472587 L38.8624941,21.4472587 Z" id="Shape"></path>
                <polygon id="Shape" points="1.00183244 31.6680215 2.05283457 31.6680215 4.5113191 35.5966664 7.00668088 31.6680215 8.05768302 31.6680215 8.05768302 36.2818221 7.37545356 36.2818221 7.37545356 32.170888 7.37545356 32.170888 4.81862966 36.2818221 4.24703201 36.2818221 1.70250053 32.170888 1.70250053 32.170888 1.70250053 36.2818221 1.00183244 36.2818221"></polygon>
                <path d="M14.6341291,36.2818221 L13.9887769,36.2818221 L13.9887769,35.6532389 L13.9887769,35.6532389 C13.4377796,36.1204028 12.7371004,36.362254 12.0219893,36.3321088 C10.4362668,36.3321088 9.30536391,35.5149506 9.30536391,34.5343608 C9.30536391,33.553771 10.3686585,32.7491846 12.0219893,32.7491846 C12.7390284,32.7127127 13.4425978,32.9578101 13.9887769,33.4343402 L13.9887769,33.4343402 L13.9887769,32.805757 L14.6341291,32.805757 L14.6341291,36.212678 L14.6341291,36.2818221 Z M12.0035507,35.9675305 C13.0914301,35.9675305 14.0256542,35.3766623 14.0256542,34.5783617 C14.0256542,33.780061 13.1651846,33.1766211 12.0035507,33.1766211 C10.8419167,33.1766211 9.93227746,33.7172027 9.93227746,34.5846475 C9.93227746,35.3452332 10.762016,35.9675305 11.9974045,35.9675305 L12.0035507,35.9675305 Z" id="Shape"></path>
                <path d="M15.9125411,32.8686154 L16.5578932,32.8686154 L16.5578932,33.3589103 L16.5578932,33.3589103 C16.9097897,32.9396948 17.4403183,32.7236022 17.9776681,32.7806137 L17.9776681,33.2394794 C17.5903234,33.2409533 17.2119721,33.3590046 16.8897887,33.5789144 C16.6744768,33.7469503 16.5455651,34.0060045 16.5394546,34.2829276 L16.5394546,36.2755363 L15.9125411,36.2755363 L15.9125411,32.8686154 Z" id="Shape"></path>
                <path d="M23.736668,35.276089 C23.1262002,36.0415134 22.1850971,36.4486267 21.2228676,36.3635379 C19.6432913,36.3635379 18.5062422,35.5338081 18.5062422,34.5783617 C18.5062422,33.6229152 19.7354845,32.7806137 21.2228676,32.7806137 C22.1079221,32.7806137 23.2449711,33.0823336 23.736668,33.8994918 L23.0298537,33.8994918 C22.5661051,33.4059328 21.915907,33.1422385 21.2474525,33.1766211 C20.2579125,33.1766211 19.1577406,33.6732018 19.1577406,34.56579 C19.1577406,35.3326615 20.0366488,35.9675305 21.2474525,35.9675305 C21.9136906,36.0277718 22.5702787,35.7730636 23.0298537,35.276089 L23.7428143,35.276089 L23.736668,35.276089 Z" id="Shape"></path>
                <path d="M27.5596115,31.6680215 L29.2805506,31.6680215 C31.4317246,31.6680215 31.5177716,32.7114696 31.5177716,32.9251878 C31.4608392,33.355753 31.1703351,33.7161735 30.7679338,33.855491 C31.3575754,33.9224131 31.8266761,34.391797 31.9049829,34.9932266 C31.8742017,35.477861 31.5651708,35.8976163 31.1182678,36.061818 C30.583997,36.2633017 30.0151028,36.3510021 29.4464983,36.3195371 L27.5596115,36.3195371 L27.5596115,31.6680215 Z M28.2418409,33.6543444 L29.1023105,33.6543444 C29.4981008,33.6784795 29.8950286,33.6338469 30.2762369,33.5223419 C30.568023,33.4466227 30.7863971,33.1984729 30.8293959,32.8937587 C30.8195703,32.6878292 30.7116255,32.4999196 30.540524,32.3908921 C30.1251997,32.1340867 29.6413617,32.0175269 29.1576264,32.057743 L28.2418409,32.057743 L28.2418409,33.629201 L28.2418409,33.6543444 Z M28.2418409,35.8606714 L29.2006499,35.8606714 C29.6341717,35.8801006 30.0682822,35.8399318 30.4913543,35.7412406 C30.8748203,35.6712401 31.1674903,35.3514554 31.210461,34.9555116 C31.1381091,34.5433094 30.811716,34.2273388 30.4053073,34.1760684 C29.9676589,34.0778416 29.5188454,34.0418824 29.0715795,34.0692093 L28.2418409,34.0692093 L28.2418409,35.8606714 L28.2418409,35.8606714 Z" id="Shape"></path>
                <path d="M32.8822305,32.8686154 L33.5275827,32.8686154 L33.5275827,33.3589103 L33.5275827,33.3589103 C33.8794791,32.9396948 34.4100077,32.7236022 34.9473575,32.7806137 L34.9473575,33.2394794 C34.5600128,33.2409533 34.1816615,33.3590046 33.8594781,33.5789144 C33.6434532,33.7463414 33.5143536,34.0057733 33.509144,34.2829276 L33.509144,36.2755363 L32.8822305,36.2755363 L32.8822305,32.8686154 Z" id="Shape"></path>
                <path d="M40.9030362,36.2818221 L40.2515378,36.2818221 L40.2515378,35.6532389 L40.2515378,35.6532389 C39.7005405,36.1204028 38.9998613,36.362254 38.2847502,36.3321088 C36.6990277,36.3321088 35.5681248,35.5149506 35.5681248,34.5343608 C35.5681248,33.553771 36.6314194,32.7491846 38.2847502,32.7491846 C39.0017893,32.7127127 39.7053587,32.9578101 40.2515378,33.4343402 L40.2515378,33.4343402 L40.2515378,32.805757 L40.89689,32.805757 L40.89689,36.212678 L40.9030362,36.2818221 Z M38.2724578,35.9675305 C39.3603372,35.9675305 40.2945613,35.3766623 40.2945613,34.5783617 C40.2945613,33.780061 39.4340917,33.1766211 38.2724578,33.1766211 C37.1108238,33.1766211 36.2011846,33.7172027 36.2011846,34.5720758 C36.2011846,35.3452332 37.0309231,35.9675305 38.2663116,35.9675305 L38.2724578,35.9675305 Z" id="Shape"></path>
                <path d="M42.1814482,32.8686154 L42.8268004,32.8686154 L42.8268004,33.3149094 L42.8268004,33.3149094 C43.2567817,32.9410499 43.8125881,32.7538282 44.3756456,32.7931854 C44.937771,32.7643932 45.4951484,32.9112879 45.9736605,33.2143361 C46.3731361,33.4738832 46.607301,33.9312983 46.5882817,34.41493 L46.5882817,36.3006796 L45.9736605,36.3006796 L45.9736605,34.41493 C45.9875047,34.0330703 45.7997477,33.6730287 45.4819636,33.4720552 C44.7985639,33.0801654 43.9650197,33.0801654 43.28162,33.4720552 C42.9787081,33.6671951 42.7988393,34.0112144 42.8083617,34.377215 L42.8083617,36.2629646 L42.1814482,36.2629646 L42.1814482,32.8686154 Z" id="Shape"></path>
                <path d="M53.0233649,36.2818221 L52.3780127,36.2818221 L52.3780127,35.6532389 L52.3780127,35.6532389 C51.8259517,36.1304557 51.1215183,36.3832794 50.3989327,36.3635379 C48.8132102,36.3635379 47.6823073,35.5463798 47.6823073,34.56579 C47.6823073,33.5852002 48.7394556,32.7806137 50.3989327,32.7806137 C51.1124315,32.7545688 51.8110427,32.9934735 52.3657203,33.4531977 L52.3657203,33.4531977 L52.3657203,31.6680215 L53.0110725,31.6680215 L53.0110725,36.2818221 L53.0233649,36.2818221 Z M50.3989327,35.9675305 C51.4868121,35.9675305 52.4210362,35.3766623 52.4210362,34.5783617 C52.4210362,33.780061 51.5605666,33.1766211 50.3989327,33.1766211 C49.2372987,33.1766211 48.3276595,33.7172027 48.3276595,34.5846475 C48.3276595,35.3452332 49.1696904,35.9675305 50.3989327,35.9675305 Z" id="Shape"></path>
                <path d="M54.6213798,35.2698032 C54.6471289,35.4865478 54.7579023,35.6832832 54.9282752,35.8148545 C55.098648,35.9464259 55.313989,36.001534 55.5248729,35.9675305 C56.139494,35.9675305 56.4652432,35.7223831 56.4652432,35.3389473 C56.4652432,34.8737958 55.8506221,34.7669366 55.4572646,34.6600775 C54.9409828,34.5406467 54.1173905,34.3520717 54.1173905,33.7109168 C54.1173905,33.2331936 54.6275261,32.7617562 55.555604,32.7617562 C56.3054417,32.7617562 56.9323553,33.1514778 56.9323553,33.6794877 L56.9323553,33.6794877 L56.2931493,33.6794877 C56.2112862,33.3302601 55.8855234,33.1000254 55.5371653,33.145192 C55.1879854,33.0712886 54.8455889,33.2982018 54.7688889,33.6543444 C54.7688889,34.0189226 55.3036093,34.1383534 55.672382,34.2200692 C56.2870031,34.3520717 57.1105954,34.5720758 57.1105954,35.276089 L57.1105954,35.276089 C57.1105954,35.8543855 56.5820212,36.3195371 55.5248729,36.3195371 C54.830351,36.3195371 53.9698814,36.0052455 53.9698814,35.2635173 L53.9698814,35.2698032 L54.6152336,35.2698032 L54.6213798,35.2698032 Z" id="Shape"></path>
                <rect id="Rectangle-path" x="0.301164354" y="26.9913625" width="56.9692326" height="1.78517628"></rect>
            </g>
        </g>
    </g>
</svg>