<?xml version="1.0" encoding="UTF-8"?>
<svg width="62px" height="43px" viewBox="0 0 62 43" version="1.1" xmlns="http://www.w3.org/2000/svg" xmlns:xlink="http://www.w3.org/1999/xlink">
    <!-- Generator: Sketch 49.3 (51167) - http://www.bohemiancoding.com/sketch -->
    <title>crcm</title>
    <desc>Created with Sketch.</desc>
    <defs></defs>
    <g id="Page-1" stroke="none" stroke-width="1" fill="none" fill-rule="evenodd" opacity="0.784816576">
        <g id="Artboard" transform="translate(-936.000000, -983.000000)" fill="#3E3E3E" fill-rule="nonzero">
            <g id="crcm" transform="translate(936.000000, 983.000000)">
                <path d="M18.8578218,2.69040475 L18.9744554,4.46305461 C18.6558652,3.95688975 18.2854525,3.48697211 17.869505,3.0612783 C18.2254914,3.03078417 18.5668865,2.90267301 18.8578218,2.69040475 L18.8578218,2.69040475 Z M6.6419802,2.96070242 C5.72214148,3.8842406 5.00262297,4.99585566 4.53029703,6.22313248 C3.74823255,8.33768089 3.37705831,10.5882999 3.43762376,12.8485685 C3.39641007,14.814733 3.75166567,16.768471 4.48118812,18.5876795 C5.14601631,20.2109917 6.29285864,21.5788981 7.75920792,22.4975668 C8.24151727,22.8007978 8.75135241,23.0555201 9.28158416,23.2581719 C6.99644386,22.8662933 4.95768194,21.5589303 3.61564356,19.6248683 C2.2123674,17.6503682 1.48123788,15.2585586 1.53465347,12.8171385 C1.5164101,10.7868186 1.99325945,8.78393351 2.9219802,6.99002355 C3.77348222,5.31829556 5.06124566,3.92127747 6.6419802,2.95441643 L6.6419802,2.96070242 Z M19.6435644,0.546881339 L19.0665347,0.546881339 C18.9774991,1.01535915 18.7652472,1.45005458 18.4526733,1.80407982 C18.246796,2.01209915 17.9684218,2.12747957 17.6792079,2.12466543 C17.3305363,2.07094557 16.9962876,1.9447322 16.6970297,1.75379188 C15.2271364,0.970072666 13.5967579,0.554308018 11.939604,0.540595347 C9.92880584,0.524634645 7.95147107,1.0677697 6.21841584,2.11209345 C4.47261402,3.15613736 3.04771113,4.68058335 2.10554455,6.51228813 C1.09898045,8.45221447 0.585962239,10.6205724 0.613861386,12.8171385 C0.557689365,15.4591119 1.35384642,18.0463287 2.8790099,20.1780356 C4.90475248,22.9773976 7.76943894,24.3770785 11.4730693,24.3770785 C13.3358074,24.4267149 15.1743406,23.9364353 16.7768317,22.9627303 C18.4266361,21.8406738 19.7702382,20.3068929 20.6809901,18.5059616 L20.1714851,18.172804 C18.8455446,20.0544111 17.630099,21.3116096 16.5251485,21.9443995 C15.3522001,22.5947405 14.0343554,22.9218225 12.7007921,22.8935843 C11.139907,22.9204428 9.6027316,22.5002525 8.26257426,21.6803878 C6.95203264,20.8757959 5.92299853,19.6680652 5.32217822,18.229378 C4.64048266,16.5234776 4.31229496,14.6911634 4.35841584,12.8485685 C4.29400577,10.7046529 4.64234335,8.56872112 5.38356436,6.56257607 C5.92441843,5.06708588 6.90992269,3.78309421 8.20118812,2.89155651 C9.39979677,2.12258804 10.7892572,1.72323847 12.2035644,1.7412199 C13.8407639,1.69833515 15.441822,2.23816952 16.7338614,3.26871605 C17.990231,4.28704682 18.9580858,5.96331146 19.6374257,8.29750997 L20.1469307,8.29750997 L19.6435644,0.546881339 L19.6435644,0.546881339 Z" id="Shape"></path>
                <path d="M38.2005941,11.0004867 C37.8699213,11.164805 37.5481947,11.3473669 37.2368317,11.547368 C35.4490276,12.7769799 34.0817237,14.5485738 33.3265347,16.6138779 C32.3471538,19.2555467 31.8821102,22.0679536 31.9576238,24.8925299 C31.903938,27.347568 32.3470261,29.7874153 33.2590099,32.0585613 C34.0791305,34.0575339 35.4921301,35.7419464 37.2982178,36.8736314 C38.8615214,37.8339802 40.6285996,38.3925753 42.4485149,38.5017035 L41.8346535,38.5017035 C37.4516832,38.5017035 34.1552475,36.8924894 31.7673267,33.5797714 C29.966615,31.0498389 29.026371,27.9847217 29.0908911,24.854814 C29.0674722,22.2553285 29.6772061,19.6908638 30.8649505,17.393341 C31.9716778,15.2250022 33.6495484,13.4175655 35.7083168,12.1759673 C36.5010543,11.6995063 37.3405215,11.3097269 38.2128713,11.0130587 L38.2005941,11.0004867 Z M51.380198,11.55994 L51.6257426,15.3315355 C51.0299431,14.1681793 50.2286028,13.1280685 49.2623762,12.2639712 C49.4050366,12.2999962 49.5512916,12.3189807 49.6982178,12.3205451 C50.2979318,12.3240871 50.8751924,12.087188 51.3065347,11.6605159 L51.3065347,11.6605159 L51.3065347,11.6605159 L51.3556436,11.610228 L51.380198,11.55994 Z M52.1782178,9.36612868 L51.4354455,9.36612868 C51.325905,9.95792128 51.0605804,10.5078313 50.6681188,10.9564848 C50.408099,11.2183756 50.0567712,11.3631857 49.6920792,11.3587883 C49.2563309,11.290344 48.8386688,11.1320988 48.4643564,10.8936248 C46.6092688,9.90551764 44.5517773,9.3820269 42.4607921,9.36612868 C39.9258665,9.34599908 37.4330761,10.0303234 35.2479208,11.3462163 C33.0409163,12.6734651 31.243322,14.6100667 30.0607921,16.9344635 C28.7973451,19.3677837 28.1494321,22.0864914 28.1762376,24.842242 C28.1000099,28.1749463 29.0989697,31.4404109 31.0184158,34.1329388 C33.5720792,37.6656665 37.1754455,39.4320304 41.8285149,39.4320304 C44.169675,39.4913131 46.4798859,38.8748434 48.4950495,37.6530945 C50.5701957,36.2357838 52.2599495,34.3021488 53.4059406,32.0334173 L52.7920792,31.6122558 C51.1264686,34.0051236 49.5959076,35.591289 48.200396,36.3707521 C46.7209575,37.1926197 45.0582215,37.6063693 43.3754455,37.5713766 C41.4068024,37.6060559 39.4678267,37.0770173 37.7770297,36.0438804 C36.126175,35.0124349 34.8367903,33.4720373 34.0938614,31.6436858 C33.2331007,29.5000529 32.8150862,27.1971418 32.8661386,24.8799579 C32.7927691,22.1818357 33.2369985,19.4951806 34.1736634,16.9721795 C35.4392324,13.2443168 38.914889,10.7834522 42.7677228,10.8873388 C44.8383073,10.8331503 46.8629174,11.5175566 48.4950495,12.8234245 C50.0829043,14.1099576 51.3106271,16.2157651 52.1782178,19.1408469 L52.7920792,19.1408469 L52.1782178,9.36612868 L52.1782178,9.36612868 Z" id="Shape"></path>
                <path d="M50.5760396,30.9333686 L44.1980198,16.7333118 L44.1980198,28.0103822 C44.1980198,29.0496662 44.3064686,29.6971235 44.5233663,29.9527538 C44.9001313,30.3325494 45.4209947,30.5233666 45.9475248,30.4744912 L46.5613861,30.4744912 L46.5613861,30.9333686 L40.8033663,30.9333686 L40.8033663,30.4744912 L41.4172277,30.4744912 C41.9846341,30.5376729 42.5444323,30.3007977 42.9027723,29.8458919 C43.1376902,29.2724052 43.2304771,28.6483326 43.1728713,28.0292401 L43.1728713,16.9721795 C43.2048133,16.4218933 43.1210806,15.8709945 42.9273267,15.3566794 C42.7958428,15.0836749 42.5800691,14.8627209 42.3134653,14.7280802 C41.8484507,14.535146 41.347124,14.4513755 40.8463366,14.4829265 L40.8463366,14.055479 L45.5116832,14.055479 L51.4906931,27.2560631 L57.3714851,14.055479 L62,14.055479 L62,14.5143565 L61.4291089,14.5143565 C60.8578889,14.4491196 60.2935029,14.6859786 59.9312871,15.1429557 C59.6964387,15.7208226 59.6057258,16.3494556 59.6673267,16.9721795 L59.6673267,28.0103822 C59.6673267,29.0496662 59.779868,29.6971235 60.0049505,29.9527538 C60.3817155,30.3325494 60.9025788,30.5233666 61.4291089,30.4744912 L62,30.4744912 L62,30.9333686 L54.9958416,30.9333686 L54.9958416,30.4744912 L55.609703,30.4744912 C56.1776108,30.5413103 56.7390598,30.3037365 57.0952475,29.8458919 C57.3301655,29.2724052 57.4229523,28.6483326 57.3653465,28.0292401 L57.3653465,16.7333118 L50.950495,30.9333686 L50.5760396,30.9333686 Z" id="Shape"></path>
                <path d="M35.9661386,42.204153 L28.6673267,42.204153 L19.4225743,29.1167168 C18.7391419,29.1460514 18.1825743,29.1607188 17.7528713,29.1607188 L17.1881188,29.1607188 L16.5742574,29.1607188 L16.5742574,37.250791 C16.5742574,39.0108689 16.7625083,40.1046315 17.1390099,40.532079 C17.7325373,41.1718146 18.5756101,41.5042134 19.4348515,41.4372619 L20.5029703,41.4372619 L20.5029703,42.204153 L8.77821782,42.204153 L8.77821782,41.4372619 L9.82178218,41.4372619 C10.7815764,41.5185831 11.7129818,41.0798503 12.2772277,40.2806393 C12.559604,39.8615732 12.7007921,38.8495284 12.7007921,37.244505 L12.7007921,19.1722768 C12.7007921,17.412199 12.5125413,16.3184363 12.1360396,15.8909888 C11.5310415,15.2571693 10.6853603,14.9263953 9.82178218,14.9858059 L8.77821782,14.9858059 L8.77821782,14.2189148 L18.7350495,14.2189148 C20.8933632,14.1274434 23.0537467,14.3389397 25.1560396,14.8475141 C26.527234,15.2793031 27.745468,16.1116859 28.6611881,17.2424772 C29.6175308,18.4112021 30.1220631,19.8985144 30.0792079,21.4226621 C30.103106,23.0738667 29.5152815,24.6730432 28.4340594,25.8982887 C27.3372937,27.1554872 25.6409901,28.0501934 23.3451485,28.5824075 L28.9865347,36.6096198 C29.8769715,38.0234565 31.003146,39.266032 32.3136634,40.2806393 C33.4203456,40.9459837 34.6616582,41.3417283 35.9415842,41.4372619 L35.9415842,42.204153 L35.9661386,42.204153 Z M16.5742574,27.8155164 L17.2372277,27.8155164 L17.7037624,27.8155164 C20.3106271,27.8155164 22.2749835,27.2372051 23.5968317,26.0805825 C24.8818882,25.0029375 25.6127897,23.3809111 25.579604,21.6803878 C25.6281685,20.0932317 25.0351883,18.555859 23.9405941,17.4310569 C22.8068824,16.3105649 21.2728238,15.717219 19.6988119,15.7904129 C18.6357633,15.8233608 17.5777366,15.9537929 16.5374257,16.1801444 L16.5374257,27.8155164 L16.5742574,27.8155164 Z" id="Shape"></path>
            </g>
        </g>
    </g>
</svg>