<?xml version="1.0" encoding="UTF-8"?>
<svg width="107px" height="30px" viewBox="0 0 107 30" version="1.1" xmlns="http://www.w3.org/2000/svg" xmlns:xlink="http://www.w3.org/1999/xlink">
    <!-- Generator: Sketch 49.3 (51167) - http://www.bohemiancoding.com/sketch -->
    <title>draper_assoc</title>
    <desc>Created with Sketch.</desc>
    <defs></defs>
    <g id="Page-1" stroke="none" stroke-width="1" fill="none" fill-rule="evenodd" opacity="0.784816576">
        <g id="Artboard" transform="translate(-1084.000000, -989.000000)" fill-rule="nonzero">
            <g id="draper_assoc" transform="translate(1084.666667, 989.000000)">
                <path d="M13.2045132,0.601116625 C14.7598525,1.17003057 16.378675,1.56719692 17.965756,2.03950284 C20.3569579,2.75869594 22.7481598,3.43495214 25.1393617,4.18634793 C25.7626673,4.27400528 26.2196498,4.82571349 26.1974156,5.46372076 C26.2145567,6.89862142 26.1367915,8.33307237 25.9646438,9.75741094 C25.9646438,10.1760457 25.753033,10.1331088 25.4461973,10.047235 L13.5748321,6.56934598 C13.2681709,6.47269736 12.9398252,6.47269736 12.6331641,6.56934598 C8.70778396,7.72864233 4.76124275,8.86647022 0.835862616,10.047235 C0.37031888,10.18678 0.253932947,10.047235 0.222191328,9.62860023 C0.222191328,9.66080291 0,5.36711273 0,5.06655441 C0.126749035,4.50010471 0.586110076,4.07255111 1.1532788,3.99313187 C4.70834005,2.91970932 8.2634013,1.93216058 11.8184626,0.858738036 C12.2099425,0.740661556 12.6225835,0.729927331 13.0140635,0.622585076 L13.2150938,0.622585076 L13.2045132,0.601116625 Z" id="Shape" fill="#3E3E3E"></path>
                <path d="M13.0881273,8.31902473 L14.2096645,8.58738036 C17.8387895,9.66080291 21.457334,10.7342255 25.0970395,11.807648 C25.2612688,11.8118041 25.4111811,11.9034667 25.4915152,12.0488467 C25.5718492,12.1942267 25.5707107,12.3717994 25.4885195,12.5161069 C25.1098018,14.0313561 24.6326344,15.5195105 24.0601467,16.9708104 C24.0429472,17.0964528 23.9644162,17.2048065 23.8513332,17.2589224 C23.7382502,17.3130382 23.6058862,17.3056082 23.4993781,17.2391661 C20.1559276,16.2408831 16.7913161,15.2748028 13.4478656,14.2872541 C13.2239556,14.2162945 12.9840406,14.2162945 12.7601306,14.2872541 C9.40609956,15.2748028 6.05206856,16.2408831 2.7086181,17.2391661 C2.42294353,17.3250399 2.28539652,17.3035714 2.17959112,17.0137473 C1.57705666,15.5169875 1.08200693,13.9779791 0.698315603,12.4087646 C0.614382433,12.2836025 0.610215052,12.120246 0.687654113,11.9908467 C0.765093174,11.8614473 0.909875674,11.7898383 1.05805394,11.807648 L10.6863448,9.01674938 L13.0881273,8.31902473 Z" id="Shape" fill="#3E3E3E"></path>
                <path d="M23.065576,19.042516 C22.2149993,20.7045239 21.1973883,22.2728966 20.0289612,23.7226382 C19.8925329,23.8868125 19.6575332,23.9234914 19.4787731,23.8085121 L13.5007683,22.0588333 C13.2421882,21.97845 12.965808,21.97845 12.7072279,22.0588333 C10.728667,22.6492157 8.75010611,23.2073954 6.78212578,23.8085121 C6.51509894,23.9315557 6.19961131,23.8295043 6.05206856,23.5723591 C5.02631251,22.2598064 4.10971261,20.8631404 3.31170884,19.3967454 C3.17416183,19.0961871 3.17416183,18.9888448 3.49157801,18.8922368 L12.8024527,16.1764778 C12.9782833,16.1217908 13.1662296,16.1217908 13.3420602,16.1764778 L22.8010625,18.9566421 L23.065576,19.042516 Z" id="Shape" fill="#3E3E3E"></path>
                <path d="M84.3586409,10.2082484 L84.3586409,4.64791962 C84.3586409,4.30442441 84.4538658,4.2185506 84.7818625,4.22928483 L92.7172671,4.22928483 C93.0770054,4.22928483 93.2039719,4.32589286 93.1616497,4.69085652 C93.2627862,5.1348506 93.2445154,5.59825446 93.1087471,6.0326347 C92.6893768,6.20882964 92.2242678,6.23902899 91.7861796,6.11850851 L86.9191315,6.11850851 C86.5699737,6.11850851 86.4430072,6.20438231 86.4535877,6.5800802 C86.4900653,7.29521678 86.4900653,8.01178871 86.4535877,8.72692529 C86.4535877,9.18849699 86.5911348,9.25290234 87.0037758,9.25290234 L91.9660488,9.25290234 C92.3152066,9.25290234 92.4633341,9.31730769 92.421012,9.70373981 C92.4901208,10.1560977 92.4575683,10.618452 92.3257871,11.0562522 C91.909656,11.244471 91.4416363,11.2786579 91.0032197,11.1528602 L86.8556482,11.1528602 C86.5488126,11.1528602 86.4430072,11.2279998 86.4430072,11.5607608 L86.4430072,13.99743 C86.4430072,14.3838621 86.5699737,14.4482675 86.9085509,14.4482675 L92.7913309,14.4482675 C93.1828108,14.4482675 93.2991968,14.5663439 93.2674551,14.9420418 C93.3059153,15.3638976 93.2517121,15.7891572 93.1087471,16.187212 C92.6966086,16.3764814 92.2315184,16.4107283 91.7967602,16.28382 L84.7818625,16.28382 C84.4009631,16.28382 84.2951577,16.1979462 84.3057382,15.8007799 C84.379802,13.9544931 84.3586409,12.0760036 84.3586409,10.2082484 Z" id="Shape" fill="#3E3E3E"></path>
                <path d="M7.75553541,25.3649747 L12.6966473,23.9158543 C12.9379433,23.8405221 13.1959891,23.8405221 13.4372851,23.9158543 L18.4736219,25.4079116 C18.4603172,25.5500076 18.3765673,25.6754343 18.2514305,25.7406726 C16.9281281,27.0644817 15.4664201,28.2378759 13.8922483,29.2400301 C13.442981,29.5781872 12.8284985,29.5781872 12.3792311,29.2400301 C10.789107,28.2297885 9.31309866,27.0455088 7.97772674,25.70847 C7.85229558,25.6382221 7.76914294,25.5096728 7.75553541,25.3649747 L7.75553541,25.3649747 Z" id="Shape" fill="#3E3E3E"></path>
                <path d="M92.7595892,24.8175292 L92.7595892,21.2322979 C92.7310139,21.1304539 92.7573714,21.0208688 92.8289731,20.9438244 C92.9005749,20.8667801 93.0068552,20.8336454 93.1087471,20.8566001 L98.0181174,20.8566001 C98.1239508,20.826779 98.237361,20.8588111 98.3127794,20.9398258 C98.3881979,21.0208406 98.4132446,21.1375393 98.3778557,21.2430322 C98.3778557,21.5006536 98.3778557,21.6938696 98.0181174,21.6938696 L94.1244788,21.6938696 C93.6800962,21.6938696 93.5742908,21.8226803 93.6060324,22.2413151 C93.637774,22.6599499 93.6060324,23.379143 93.6060324,23.9587912 C93.5737328,24.0652122 93.6020747,24.1810291 93.679685,24.2597667 C93.7572953,24.3385043 93.871454,24.3672578 93.9763513,24.3344891 L97.4573488,24.3344891 C97.8276676,24.3344891 97.8488287,24.4847683 97.8699898,24.7853266 C97.8911509,25.0858849 97.7218622,25.1610245 97.4467682,25.1610245 L94.0186734,25.1610245 C93.6695156,25.1610245 93.5848713,25.2683667 93.6060324,25.6011277 L93.6060324,27.5762252 C93.6060324,27.9089862 93.7435794,27.9089862 94.0609956,27.9089862 L97.9969563,27.9089862 C98.3143725,27.9089862 98.4519195,27.9626573 98.4519195,28.327621 C98.4519195,28.6925846 98.3037919,28.7462558 97.9969563,28.7355215 L93.1828108,28.7355215 C92.8124919,28.7355215 92.7384282,28.6281793 92.7384282,28.2739498 C92.7701698,27.1361219 92.7595892,25.9768256 92.7595892,24.8175292 Z" id="Shape" fill="#3E3E3E"></path>
                <path d="M52.2572843,28.853598 C51.2267265,28.8527816 50.2269727,28.4970282 49.4216997,27.8445808 C49.23125,27.6943017 49.0725419,27.565491 49.3370554,27.3400722 C49.6015689,27.1146535 49.5909883,26.8248294 49.9507267,27.1575904 C50.6714001,27.8149622 51.631418,28.1344219 52.5958615,28.0377969 C52.9565383,28.0239587 53.3055897,27.9046757 53.6010128,27.6943017 C53.9370385,27.4602007 54.1278553,27.06481 54.1040456,26.6519698 C54.0802359,26.2391296 53.8452701,25.8690136 53.4846269,25.6762673 C52.9424105,25.4248038 52.3695264,25.2479152 51.78116,25.1502902 C51.3484884,25.0469839 50.929401,24.8920473 50.5326564,24.6887185 C49.915692,24.3818571 49.5025018,23.7692664 49.4440054,23.0746979 C49.3855091,22.3801295 49.6902734,21.7053035 50.2469818,21.2967033 C51.6168683,20.4687887 53.3490312,20.5885091 54.5955835,21.5972616 C54.8918386,21.8441488 54.5215197,21.9622253 54.4580365,22.1339729 C54.3945532,22.3057205 54.2887479,22.4452654 54.0453954,22.2627836 C53.4084645,21.7577127 52.6083311,21.5126544 51.8023211,21.5757932 C51.4172786,21.5826854 51.0452873,21.7185475 50.7442671,21.9622253 C50.4527131,22.1965012 50.2946008,22.5621745 50.3221536,22.9384656 C50.3497064,23.3147566 50.5593402,23.6527148 50.8818142,23.8407147 C51.3794341,24.1038848 51.9151579,24.2850532 52.4688951,24.377426 C52.9357696,24.4749357 53.3901471,24.626194 53.8232041,24.8282635 C54.5248432,25.0879043 54.9988894,25.7561017 55.0188051,26.5135369 C55.0705128,27.3124545 54.6566829,28.0681683 53.9607511,28.4456974 C53.4418305,28.7409421 52.8515657,28.8822829 52.2572843,28.853598 L52.2572843,28.853598 Z" id="Shape" fill="#3E3E3E"></path>
                <path d="M45.2952893,28.853598 C44.2636056,28.8488852 43.2639849,28.4893951 42.4597048,27.8338466 C42.2692551,27.6835674 42.1211275,27.5547567 42.385641,27.329338 C42.6501545,27.1039193 42.6395739,26.8248294 42.9993123,27.1575904 C43.7199857,27.8149622 44.6800036,28.1344219 45.6444471,28.0377969 C45.964773,28.0248691 46.2771363,27.9327468 46.5543735,27.7694412 C46.9450306,27.5593715 47.1862925,27.1445134 47.1786254,26.6960187 C47.1878421,26.2483206 46.9221499,25.8418541 46.5120514,25.6762673 C45.9797175,25.4426916 45.4221826,25.2733619 44.8509067,25.1717587 C44.3877441,25.0701246 43.9395951,24.9077465 43.5177587,24.6887185 C42.9255056,24.3730958 42.5331556,23.7724664 42.4774215,23.0961172 C42.4216874,22.419768 42.7102891,21.7613833 43.2426647,21.3503744 C44.6127868,20.4950405 46.3642942,20.6023442 47.623008,21.6187301 C47.9086826,21.8656172 47.5489442,21.9836937 47.4748805,22.1554413 C47.4008167,22.3271889 47.3055918,22.4667339 47.0622394,22.2735178 C46.4225427,21.765857 45.6181449,21.5206493 44.8085845,21.5865274 C44.423542,21.5934196 44.0515507,21.7292817 43.7505306,21.9729595 C43.4589766,22.2072354 43.3008642,22.5729088 43.328417,22.9491998 C43.3559699,23.3254908 43.5656036,23.6634491 43.8880776,23.851449 C44.3856975,24.114619 44.9214213,24.2957874 45.4751585,24.3881602 C45.9421046,24.4853969 46.3965123,24.6366652 46.8294676,24.8389977 C47.5138443,25.1172942 47.9650808,25.7870253 47.9721658,26.5350053 C48.0238736,27.333923 47.6100436,28.0896367 46.9141119,28.4671659 C46.4179457,28.7396469 45.8591589,28.873036 45.2952893,28.853598 Z" id="Shape" fill="#3E3E3E"></path>
                <path d="M102.800521,28.853598 C101.765767,28.8329981 100.769023,28.4542633 99.9755171,27.7801755 C99.795648,27.6298963 99.658101,27.5118198 99.9120339,27.3078695 C100.165967,27.1039193 100.144806,26.7604241 100.525705,27.1039193 C101.246637,27.7616707 102.205304,28.0845711 103.17084,27.99486 C103.551917,27.9852866 103.921041,27.8579617 104.228894,27.6298963 C104.553941,27.3922202 104.735629,27.0016298 104.709833,26.5959792 C104.684036,26.1903286 104.454384,25.8266617 104.101928,25.6333304 C103.56113,25.375816 102.987906,25.1952102 102.398461,25.0966191 C101.976742,25.0033357 101.5655,24.8666617 101.171118,24.6887185 C100.500536,24.4226603 100.050968,23.7765207 100.02842,23.046382 C99.962249,22.2667877 100.351058,21.5198377 101.022991,21.1356899 C102.367023,20.4668032 103.968054,20.6246623 105.159981,21.5435905 C105.435075,21.8012119 105.159981,21.8978199 105.064757,22.0373649 C104.969532,22.1769098 104.92721,22.4667339 104.630954,22.2305809 C103.978751,21.715353 103.158387,21.4698879 102.334977,21.5435905 C101.991245,21.5609647 101.660118,21.6804089 101.382729,21.8870857 C101.059193,22.1117845 100.874808,22.4915823 100.896437,22.8887555 C100.918067,23.2859288 101.142569,23.642808 101.488534,23.8299805 C101.99173,24.0864522 102.530441,24.263805 103.086196,24.3559576 C103.553687,24.4511017 104.008332,24.6024488 104.440505,24.806795 C105.107909,25.0849109 105.548639,25.7387353 105.562042,26.4706 C105.623911,27.2494233 105.241756,27.9956525 104.578052,28.3920263 C104.044763,28.7237005 103.425298,28.8845569 102.800521,28.853598 L102.800521,28.853598 Z" id="Shape" fill="#3E3E3E"></path>
                <path d="M69.8950435,20.7385236 C70.9190464,20.7310965 71.9084345,21.1142108 72.6671449,21.8119461 C72.8152724,21.9407568 72.9951416,22.0803018 72.7306281,22.2413151 C72.4661146,22.4023285 72.4872757,22.8639002 72.0746346,22.4989365 C71.3517679,21.811255 70.3538097,21.5055336 69.3765971,21.6724012 C68.1225638,21.8711913 67.13416,22.8609852 66.9219119,24.1305388 C66.6236727,25.4297955 67.1296105,26.7830059 68.2021572,27.5547567 C69.2505854,28.2732 70.6241459,28.2732 71.6725742,27.5547567 C71.8339828,27.4549165 71.9831519,27.3360098 72.1169568,27.2005273 C72.434373,26.8462979 72.57192,27.2005273 72.7623697,27.3508065 C72.9528194,27.5010856 72.8152724,27.6943017 72.6777254,27.8231124 C71.4007299,29.0253756 69.5181729,29.2871824 67.9693853,28.4779001 C66.512637,27.652375 65.712008,25.9979329 65.9590829,24.3237549 C66.1548573,22.5569983 67.4957268,21.1438231 69.2284695,20.8780685 C69.4506609,20.759992 69.6834327,20.759992 69.8950435,20.7385236 Z" id="Shape" fill="#3E3E3E"></path>
                <path d="M87.6386082,25.1824929 L87.6386082,22.1769098 C87.6386082,21.8119461 87.5857055,21.661667 87.1730644,21.6831354 L85.3320506,21.6831354 C84.9828928,21.6831354 84.9934733,21.5006536 85.0040538,21.2645006 C85.0146344,21.0283477 85.0040538,20.8351316 85.3320506,20.8351316 L90.8021895,20.8351316 C91.1619278,20.8351316 91.1196056,21.0390819 91.1196056,21.2645006 C91.1196056,21.4899194 91.1196056,21.7046039 90.8021895,21.6831354 L89.066981,21.6831354 C88.4956319,21.6831354 88.4956319,21.758275 88.4956319,22.2413151 L88.4956319,28.2632156 C88.5191773,28.45512 88.4325249,28.6437924 88.2725494,28.748944 C88.1125739,28.8540956 87.907429,28.8572209 87.7444136,28.75699 C87.5539638,28.6818504 87.6280276,28.5315713 87.6280276,28.4027605 C87.6386082,27.329338 87.6386082,26.2559155 87.6386082,25.1824929 Z" id="Shape" fill="#3E3E3E"></path>
                <path d="M74.5822225,24.7531239 L74.5822225,21.2859691 C74.5822225,20.8780685 74.7515111,20.8673343 75.0583468,20.8566001 C75.3651824,20.8458658 75.4709878,20.9746765 75.4709878,21.2967033 L75.4709878,28.3490894 C75.4709878,28.6818504 75.396924,28.7891927 75.0583468,28.7784584 C74.7197695,28.7677242 74.571642,28.7784584 74.5822225,28.3383552 C74.592803,27.1361219 74.5822225,25.9446229 74.5822225,24.7531239 Z" id="Shape" fill="#404040"></path>
                <path d="M54.7013889,12.1511432 C54.4368754,11.7861795 54.468617,11.6681031 54.8918386,11.5070897 C56.3313209,10.935615 57.2599387,9.50624797 57.2100245,7.93884192 C57.1601102,6.37143587 56.1424871,5.00586072 54.6696473,4.52984314 C54.2016128,4.37471569 53.7124902,4.29502957 53.2201134,4.29369018 L47.8451993,4.29369018 C47.5806859,4.29369018 47.4960415,4.35809553 47.4960415,4.6371854 L47.4960415,16.0047301 C47.4960415,16.2623516 47.4960415,16.380428 47.8240383,16.3589596 C48.2822144,16.3346189 48.7413322,16.3346189 49.1995084,16.3589596 C49.506344,16.3589596 49.5698273,16.2623516 49.5592467,15.9725275 L49.5592467,12.6019807 C49.5592467,12.2262828 49.62273,12.0760036 50.0247905,12.0974721 C50.6027685,12.1292774 51.1820209,12.1292774 51.7599989,12.0974721 C52.0323583,12.0679054 52.2954505,12.2077174 52.4265729,12.4517015 C53.2306939,13.6539348 54.0665565,14.8346996 54.8812581,16.0261986 C54.957125,16.2213969 55.1400889,16.3521757 55.3468018,16.3589596 L57.5898762,16.3589596 C56.5953055,14.8454338 55.664218,13.4821872 54.7013889,12.1511432 Z M49.8555018,10.1653115 C49.7737209,10.1824844 49.6889726,10.1559124 49.6310024,10.0949218 C49.5730321,10.0339313 49.5499386,9.94704292 49.5698273,9.86475319 L49.5698273,8.20094825 L49.5698273,6.5371433 C49.5438552,6.4373886 49.5721146,6.33114732 49.6440265,6.25819087 C49.7159384,6.18523443 49.8206586,6.15656457 49.9189851,6.18291386 L53.0931469,6.18291386 C53.7303042,6.15842276 54.3364091,6.46266041 54.7037751,6.9913774 C55.0711411,7.52009439 55.1498757,8.20148479 54.9129997,8.80206487 C54.6005764,9.6032657 53.8255734,10.1188462 52.976761,10.0901719 C51.9716097,10.1975142 50.9135558,10.1438431 49.8555018,10.1653115 L49.8555018,10.1653115 Z" id="Shape" fill="#3E3E3E"></path>
                <path d="M105.509139,15.8437168 C104.662696,14.6307493 103.837414,13.3963134 102.959229,12.2048143 C102.641813,11.7754453 102.694716,11.6573688 103.181421,11.4641528 C104.594567,10.8700026 105.492671,9.44496028 105.43125,7.89429949 C105.369828,6.3436387 104.361909,4.9963034 102.906327,4.51910892 C102.30546,4.31958598 101.67634,4.22167144 101.044152,4.22928483 L96.187684,4.22928483 C95.8067846,4.22928483 95.7115598,4.32589286 95.7115598,4.71232497 L95.7115598,14.6736862 C95.7115598,15.1996632 95.4787879,15.9081221 95.8173651,16.2086804 C96.2984298,16.3502238 96.8048145,16.3795804 97.2986407,16.2945542 C97.7324428,16.2945542 97.795926,16.1550093 97.7853455,15.7685772 L97.7853455,12.4517015 C97.7853455,12.140409 97.8594093,12.0223325 98.187406,12.0330667 L99.9755171,12.0330667 C100.264303,12.0047656 100.540938,12.1578493 100.673833,12.4194988 C101.477954,13.6217321 102.313816,14.8024969 103.128518,15.9939959 C103.231668,16.1906029 103.438415,16.3080632 103.657545,16.2945542 L105.773653,16.2945542 L105.509139,15.8437168 Z M101.171118,10.1438431 C100.113064,10.1975142 99.129074,10.1438431 98.1027617,10.1438431 C98.0138245,10.1647602 97.920542,10.1376698 97.8559862,10.0721763 C97.7914303,10.0066827 97.7647278,9.91204531 97.7853455,9.82181629 L97.7853455,8.15801134 L97.7853455,6.4942064 C97.7601431,6.40244522 97.7847769,6.30400682 97.8500721,6.23555506 C97.9153674,6.1671033 98.0115368,6.1388984 98.1027617,6.16144541 L101.276923,6.16144541 C101.923144,6.12805126 102.541447,6.43167553 102.916527,6.96658997 C103.291608,7.50150441 103.371551,8.19367171 103.128518,8.80206487 C102.817061,9.61935687 102.034632,10.1514138 101.171118,10.1331088 L101.171118,10.1438431 Z" id="Shape" fill="#3E3E3E"></path>
                <path d="M39.7934088,4.29369018 C38.0083336,4.16375107 36.2178126,4.1279221 34.4290753,4.18634793 C34.1010786,4.18634793 34.1963035,4.41176666 34.1857229,4.57278004 L34.1857229,10.1760457 L34.1857229,15.8329825 C34.1857229,16.0154644 34.0904981,16.2623516 34.4502364,16.2516173 C36.2391537,16.3071913 38.0297119,16.2677786 39.8145699,16.1335409 C42.7204959,15.7107228 44.8765859,13.1825903 44.8712629,10.2042939 C44.8659398,7.22599747 42.7008271,4.70581413 39.7934088,4.29369018 L39.7934088,4.29369018 Z M42.6818961,10.7342255 C42.5731885,12.7235499 40.9838781,14.2986648 39.0210294,14.3623937 L36.619247,14.3623937 C36.3018308,14.3623937 36.2595087,14.2335829 36.2595087,13.9652273 L36.2595087,10.283388 L36.2595087,6.65521978 C36.2595087,6.33319302 36.3229919,6.18291386 36.6721497,6.20438231 C37.6755593,6.16491385 38.6804715,6.20799169 39.6770229,6.33319302 C41.6613622,6.77362139 42.9730251,8.69472447 42.6818961,10.7342255 L42.6818961,10.7342255 Z" id="Shape" fill="#3E3E3E"></path>
                <path d="M70.7943894,15.7363745 C69.3342749,12.333625 67.8212578,8.95234403 66.4457877,5.51739188 C66.0119856,4.44396934 65.4935391,3.90725806 64.3296798,4.11120835 C64.0485324,4.10998093 63.7958831,4.28513229 63.6948474,4.55131159 C62.8060821,6.69815668 61.8961557,8.76986219 60.9968099,10.8737704 L58.6690912,16.2408831 L60.4995245,16.2408831 C60.7045181,16.2684997 60.8967293,16.1338547 60.9439072,15.9295906 C61.2295817,15.188929 61.568159,14.4697359 61.843253,13.7827455 C61.916282,13.4926339 62.1984614,13.3096035 62.4886659,13.3641107 L67.1441033,13.3641107 C67.4458577,13.3098619 67.7373715,13.5023329 67.8106773,13.8042139 C68.0751907,14.5341413 68.3926069,15.2426001 68.6994426,15.951059 C68.7523453,16.0798697 68.7629258,16.2730858 68.9639561,16.2730858 L71.0165807,16.2730858 L70.7943894,15.7363745 Z M63.0705956,11.4426843 C62.8907264,11.4426843 62.8060821,11.4426843 62.8801459,11.2065314 L64.8163846,6.63375133 L66.7632039,11.2494683 C66.7691097,11.3173197 66.7691097,11.3855671 66.7632039,11.4534186 L63.0705956,11.4534186 L63.0705956,11.4426843 Z" id="Shape" fill="#3E3E3E"></path>
                <path d="M79.1635961,4.37956398 C78.7475176,4.27988012 78.321454,4.22945069 77.8939313,4.22928483 L73.5453296,4.22928483 C73.1326886,4.22928483 73.0797859,4.35809553 73.0797859,4.7230592 L73.0797859,10.2189826 L73.0797859,14.6307493 C72.9666014,15.1440226 72.9959014,15.6790825 73.1644302,16.1764778 C73.5030075,16.519973 74.2224842,16.2408831 74.7832527,16.2945542 C75.0689273,16.2945542 75.1641522,16.2194147 75.1535716,15.9295906 L75.1535716,12.9240074 C75.1535716,12.5268411 75.2382159,12.3872962 75.650857,12.3980304 C76.7568434,12.4721102 77.8675149,12.42171 78.9625658,12.2477512 C80.885691,11.9631162 82.3052125,10.2798946 82.2848552,8.3082905 C82.3657526,6.38891878 81.0295104,4.70699171 79.1635961,4.37956398 Z M80.0417808,9.03821783 C79.7006157,9.91251988 78.8517485,10.4722981 77.925673,10.4336671 C77.0898103,10.4980725 76.2539477,10.4336671 75.4180851,10.4336671 C75.3411567,10.4515814 75.2604425,10.4305314 75.2015664,10.3772 C75.1426904,10.3238685 75.1129661,10.2448803 75.12183,10.1653115 L75.12183,8.29755627 L75.12183,6.5371433 C75.095858,6.4373886 75.1241173,6.33114732 75.1960292,6.25819087 C75.2679411,6.18523443 75.3726613,6.15656457 75.4709878,6.18291386 L78.0738005,6.18291386 C78.7725773,6.14834484 79.4397187,6.48099224 79.8396173,7.06337855 C80.239516,7.64576486 80.3158951,8.39593222 80.0417808,9.04895206 L80.0417808,9.03821783 Z" id="Shape" fill="#3E3E3E"></path>
                <path d="M60.4572023,20.7492578 C58.8382542,20.7274779 57.3669334,21.7006857 56.7334445,23.2123441 C56.0999557,24.7240025 56.4299865,26.4741899 57.5687178,27.6418839 C58.7074491,28.809578 60.4289501,29.1631015 61.9256554,28.5366148 C63.4223606,27.910128 64.3973154,26.4279295 64.393163,24.7853266 C64.4044668,23.7188624 63.994782,22.6921282 63.2554175,21.9339585 C62.5160529,21.1757888 61.5084584,20.7491961 60.4572023,20.7492578 Z M60.4572023,28.0163284 C59.6210988,28.019552 58.8194076,27.6788376 58.2352086,27.0719931 C57.6510095,26.4651487 57.3341911,25.6439965 57.3571043,24.7960608 C57.3225674,23.9559337 57.6268379,23.1377803 58.1997814,22.5301855 C58.7727249,21.9225907 59.5649034,21.5779825 60.3937191,21.5757932 C61.2298226,21.5725696 62.0315138,21.913284 62.6157129,22.5201285 C63.1999119,23.1269729 63.5167303,23.948125 63.4938172,24.7960608 C63.5285123,25.6399155 63.2213888,26.4614303 62.6438196,27.0696918 C62.0662503,27.6779534 61.2685296,28.0199948 60.4360413,28.0163284 L60.4572023,28.0163284 Z" id="Shape" fill="#3E3E3E"></path>
                <path d="M84.8136041,28.5101028 C83.7555502,26.0304967 82.6022714,23.5401564 81.5124758,21.0498161 C81.4255085,20.8264048 81.1953432,20.6961789 80.9622878,20.7385236 C80.7106249,20.6873924 80.4609144,20.8347888 80.3803581,21.0820188 C79.3223042,23.5294222 78.2642502,25.9553571 77.142713,28.4027605 C77.0614387,28.4880657 77.0329809,28.6117992 77.0686493,28.7247873 C77.8939313,28.7247873 77.8939313,28.7247873 78.2219281,28.0163284 C78.3700556,27.6835674 78.5287637,27.3615407 78.6451496,27.0180455 C78.7033035,26.7550969 78.9548853,26.5849395 79.2164988,26.6316133 L81.5124758,26.6316133 C82.0094115,26.5393879 82.5208677,26.5688282 83.0043319,26.7174871 C83.3329916,27.1071852 83.5651509,27.5708878 83.6814864,28.0699996 C83.9989026,28.7999269 83.9989026,28.7999269 84.8770874,28.6818504 C84.8591388,28.6234314 84.8379437,28.5660904 84.8136041,28.5101028 Z M79.1741766,25.8265464 L80.0523614,23.8299805 L80.9411267,21.8012119 L82.7080768,25.8265464 L79.1847572,25.8265464 L79.1741766,25.8265464 Z" id="Shape" fill="#3E3E3E"></path>
                <path d="M41.2641038,28.6174451 L37.8783312,20.9746765 C37.8231102,20.8301145 37.6816424,20.7387819 37.5291734,20.7492578 C37.1743818,20.6660602 36.8171625,20.8778571 36.7144718,21.2322979 C35.6564179,23.7226382 34.5243002,26.2022443 33.402763,28.7462558 C34.2915283,28.7999269 34.2915283,28.7999269 34.619525,28.0592653 C34.7676526,27.7265043 34.9263607,27.4044776 35.0427466,27.0609824 C35.1153255,26.788504 35.383527,26.6196161 35.6564179,26.6745502 C36.4203916,26.7398192 37.1884213,26.7398192 37.952395,26.6745502 C38.4179231,26.5354449 38.9201316,26.6098296 39.3270287,26.8781545 C39.7339259,27.1464794 40.0048159,27.5819078 40.0685029,28.0699996 C40.2906942,28.8750665 40.385919,28.853598 41.2429427,28.75699 C41.2645432,28.713974 41.2719609,28.6650588 41.2641038,28.6174451 L41.2641038,28.6174451 Z M35.5717736,25.7621411 L37.3281431,21.758275 L39.0845127,25.7621411 L35.5717736,25.7621411 Z" id="Shape" fill="#3E3E3E"></path>
            </g>
        </g>
    </g>
</svg>