<?xml version="1.0" encoding="UTF-8"?>
<svg width="75px" height="48px" viewBox="0 0 75 48" version="1.1" xmlns="http://www.w3.org/2000/svg" xmlns:xlink="http://www.w3.org/1999/xlink">
    <!-- Generator: Sketch 49.3 (51167) - http://www.bohemiancoding.com/sketch -->
    <title>td</title>
    <desc>Created with Sketch.</desc>
    <defs></defs>
    <g id="Page-1" stroke="none" stroke-width="1" fill="none" fill-rule="evenodd" opacity="0.784816576">
        <g id="Artboard" transform="translate(-1443.000000, -988.000000)" fill="#3E3E3E" fill-rule="nonzero">
            <g id="td" transform="translate(1443.000000, 988.780183)">
                <polygon id="Shape" points="4.69200395 40.7734325 4.69200395 46.5703332 3.58137523 46.5703332 3.58137523 40.7734325 0.547266327 40.7734325 0.547266327 39.8384485 7.74220893 39.8384485 7.74220893 40.7490416 4.69200395 40.7490416"></polygon>
                <polygon id="Shape" points="10.1485712 46.5703332 9.11842278 46.5703332 9.11842278 41.0742534 10.1485712 41.0742534"></polygon>
                <path d="M13.4643613,42.0905403 L13.4643613,42.8547881 L13.4643613,46.5703332 L12.6434618,46.5703332 L12.6434618,41.0579928 L13.4965534,41.0579928 L16.2087409,44.6353229 L18.7036315,41.0579928 L19.6532996,41.0579928 L19.6532996,46.5703332 L18.7036315,46.5703332 L18.7036315,42.8547881 C18.7028161,42.5986223 18.724361,42.3428828 18.7680158,42.0905403 C18.6829001,42.3609987 18.5610153,42.6182049 18.4058543,42.8547881 L16.3053173,45.7003916 L16.0397322,45.7003916 L13.866763,42.879179 C13.6875218,42.642406 13.5512773,42.37539 13.4643613,42.0905403 L13.4643613,42.0905403 Z" id="Shape"></path>
                <path d="M31.1217484,39.8384485 C32.0032711,39.7727369 32.8857371,39.9527215 33.6729752,40.3587874 C34.1065832,40.643356 34.4545578,41.0426956 34.6789795,41.5132894 C34.9263872,42.0186658 35.053177,42.57556 35.0491891,43.1393485 C35.1312756,44.275755 34.6065737,45.3699827 33.6729752,46.0093428 C32.8857371,46.4154087 32.0032711,46.5953933 31.1217484,46.5296817 L27.4679408,46.5296817 L27.4679408,39.8384485 L31.1217484,39.8384485 Z M30.9688357,40.732781 L28.5544254,40.732781 L28.5544254,45.6109583 L30.9688357,45.6109583 C31.7424061,45.6772978 32.5169607,45.4951953 33.1820451,45.0906194 C33.7206888,44.5991609 33.9931017,43.8763899 33.9144162,43.1474788 C33.9878606,42.4335413 33.7150152,41.7277965 33.1820451,41.2531199 C32.5124917,40.8619192 31.73884,40.6913971 30.9688357,40.7653022 L30.9688357,40.732781 Z" id="Shape"></path>
                <path d="M37.399215,46.5703332 L37.399215,41.0579928 L41.7934417,41.0579928 C42.095331,40.9999845 42.406612,41.0893329 42.6332064,41.2990342 C42.8598009,41.5087354 42.9751199,41.814183 42.9443106,42.1230615 L42.9443106,43.3588665 C42.9696862,43.665041 42.8520052,43.9656106 42.6261776,44.1714115 C42.4003499,44.3772123 42.0923115,44.4646088 41.7934417,44.4076746 L41.0449746,44.4076746 L43.4593848,46.5622029 L42.1073151,46.5622029 L39.9262978,44.4076746 L38.4293634,44.4076746 L38.4293634,46.5622029 L37.399215,46.5622029 L37.399215,46.5703332 Z M41.3347038,41.8791527 L38.4293634,41.8791527 L38.4293634,43.6434268 L41.3347038,43.6434268 C41.5272769,43.6802964 41.7244888,43.608699 41.849778,43.45643 C41.8989096,43.3411319 41.9209465,43.215907 41.9141622,43.0905667 L41.9141622,42.4320128 C41.9315361,42.2747186 41.8747723,42.1183136 41.7608719,42.0096414 C41.6469714,41.9009692 41.4891605,41.852649 41.3347038,41.8791527 L41.3347038,41.8791527 Z" id="Shape"></path>
                <path d="M44.4010048,46.5703332 L47.5558342,41.0579928 L48.4974542,41.0579928 L51.7166679,46.5703332 L50.6060392,46.5703332 L49.8978122,45.2857465 L46.1232841,45.2857465 L45.4311532,46.5703332 L44.4010048,46.5703332 Z M46.565926,44.4889775 L49.4632184,44.4889775 L48.0065242,41.8710224 L46.565926,44.4889775 Z" id="Shape"></path>
                <path d="M53.3584669,46.5703332 L53.3584669,41.0579928 L57.9458464,41.0579928 C58.2521081,40.9960095 58.5694315,41.0824588 58.8033182,41.2915961 C59.0372048,41.5007335 59.1606735,41.8084327 59.1369555,42.1230615 L59.1369555,43.3588665 C59.161427,43.6731081 59.037806,43.9806126 58.8033775,44.1886344 C58.5689489,44.3966561 58.2511556,44.4808434 57.9458464,44.4158049 L54.3886153,44.4158049 L54.3886153,46.5703332 L53.3584669,46.5703332 Z M57.5032045,41.8791527 L54.3886153,41.8791527 L54.3886153,43.594645 L57.5032045,43.594645 C57.6536491,43.6299287 57.8117874,43.5928449 57.9314619,43.4942179 C58.0511363,43.3955908 58.1188562,43.2465385 58.1148551,43.0905667 L58.1148551,42.3913613 C58.1214293,42.2339858 58.0548043,42.0825529 57.9347633,41.9820281 C57.8147223,41.8815034 57.655067,41.8434446 57.5032045,41.8791527 L57.5032045,41.8791527 Z" id="Shape"></path>
                <polygon id="Shape" points="61.1650601 46.5703332 61.1650601 41.0579928 66.6618675 41.0579928 66.6618675 41.8710224 62.1791124 41.8710224 62.1791124 43.2856938 64.8671559 43.2856938 64.8671559 44.0987234 62.1791124 44.0987234 62.1791124 45.7247825 66.6940596 45.7247825 66.6940596 46.537812 61.1650601 46.537812"></polygon>
                <path d="M68.6255878,46.5703332 L68.6255878,41.0579928 L73.0198145,41.0579928 C73.3217038,40.9999845 73.6329848,41.0893329 73.8595792,41.2990342 C74.0861737,41.5087354 74.2014927,41.814183 74.1706834,42.1230615 L74.1706834,43.3588665 C74.196059,43.665041 74.078378,43.9656106 73.8525503,44.1714115 C73.6267227,44.3772123 73.3186843,44.4646088 73.0198145,44.4076746 L72.2954914,44.4076746 L74.7099017,46.5622029 L73.3336879,46.5622029 L71.1526706,44.4076746 L69.6557362,44.4076746 L69.6557362,46.5622029 L68.6255878,46.5622029 L68.6255878,46.5703332 Z M72.5610766,41.8791527 L69.6557362,41.8791527 L69.6557362,43.6434268 L72.5610766,43.6434268 C72.7551684,43.6784018 72.9526818,43.6035772 73.0761508,43.4482997 C73.1285523,43.3367193 73.1534057,43.2139717 73.1485831,43.0905667 L73.1485831,42.4320128 C73.1659569,42.2747186 73.1091932,42.1183136 72.9952927,42.0096414 C72.8813923,41.9009692 72.7235813,41.852649 72.5691246,41.8791527 L72.5610766,41.8791527 Z" id="Shape"></path>
                <path d="M7.65368055,0.105693843 L7.65368055,32.3829674 L67.6034875,32.3829674 L67.6034875,0.105693843 L7.65368055,0.105693843 Z M33.4073901,9.04901901 L24.1441027,9.04901901 L24.1441027,26.1226398 L20.7397842,26.1226398 L20.7397842,9.04901901 L11.4845448,9.04901901 L11.4845448,6.38228205 L33.4154381,6.38228205 L33.4154381,9.0571493 L33.4073901,9.04901901 Z M59.5554533,24.5778836 C57.9458464,25.5968807 55.3570621,26.1063792 51.7891002,26.1063792 L40.6667169,26.1063792 L40.6667169,6.38228205 L51.8132443,6.38228205 C55.3704755,6.38228205 57.9592598,6.89178057 59.5795974,7.91077762 C60.8968871,8.73567326 61.9634567,9.9116081 62.6619945,11.3092412 C63.4158205,12.7982039 63.7997527,14.450082 63.7806712,16.1223762 C63.7806712,19.9761363 62.3722652,22.7946388 59.5554533,24.5778836 Z" id="Shape"></path>
                <path d="M58.090711,10.5693843 C56.7010838,9.55038724 54.4529996,9.03817861 51.3464584,9.03275842 L44.0468913,9.03275842 L44.0468913,23.3583393 L51.3464584,23.3583393 C54.4851917,23.3583393 56.7332759,22.8461306 58.090711,21.8217134 C59.5822801,20.737674 60.3280646,18.840605 60.3280646,16.1305065 C60.349526,13.5071311 59.6037415,11.6534237 58.090711,10.5693843 Z" id="Shape"></path>
            </g>
        </g>
    </g>
</svg>