<?xml version="1.0" encoding="UTF-8"?>
<svg width="28px" height="23px" viewBox="0 0 28 23" version="1.1" xmlns="http://www.w3.org/2000/svg" xmlns:xlink="http://www.w3.org/1999/xlink">
    <!-- Generator: Sketch 43.1 (39012) - http://www.bohemiancoding.com/sketch -->
    <title>Artboard</title>
    <desc>Created with Sketch.</desc>
    <defs></defs>
    <g id="Page-1" stroke="none" stroke-width="1" fill="none" fill-rule="evenodd">
        <g id="Artboard" fill-rule="nonzero" fill="#131370">
            <g id="right-arrow" transform="translate(1.000000, 1.000000)">
                <path d="M25.5327383,9.52099024 L16.1621907,0.420102439 C15.8947018,0.160317073 15.5381907,0.0177219512 15.1580527,0.0177219512 C14.7774929,0.0177219512 14.4211927,0.160521951 14.1537039,0.420102439 L13.302929,1.24658049 C13.0356511,1.5059561 12.8884057,1.85240488 12.8884057,2.2218 C12.8884057,2.59099024 13.0356511,2.94911707 13.302929,3.20849268 L18.769574,8.52938049 L1.40178499,8.52938049 C0.618726166,8.52938049 0,9.1247561 0,9.88546829 L0,11.0538878 C0,11.8146 0.618726166,12.4700049 1.40178499,12.4700049 L18.8315943,12.4700049 L13.30314,17.8206 C13.0358621,18.0803854 12.8886166,18.4174098 12.8886166,18.7868049 C12.8886166,19.1557902 13.0358621,19.4977317 13.30314,19.7573122 L14.1539148,20.5811268 C14.4214037,20.8409122 14.7777039,20.9824829 15.1582637,20.9824829 C15.5384016,20.9824829 15.8949128,20.8390683 16.1624016,20.5792829 L25.5329493,11.4786 C25.801071,11.2179951 25.9485274,10.8701122 25.9474726,10.5003073 C25.9483164,10.1292732 25.801071,9.78118537 25.5327383,9.52099024 Z" id="Shape"></path>
            </g>
        </g>
    </g>
</svg>