<?xml version="1.0" encoding="utf-8"?>
<!-- Generator: Adobe Illustrator 16.0.0, SVG Export Plug-In . SVG Version: 6.00 Build 0)  -->
<!DOCTYPE svg PUBLIC "-//W3C//DTD SVG 1.1//EN" "http://www.w3.org/Graphics/SVG/1.1/DTD/svg11.dtd">
<svg version="1.1" id="Layer_1" xmlns="http://www.w3.org/2000/svg" xmlns:xlink="http://www.w3.org/1999/xlink" x="0px" y="0px"
	 width="497px" height="476px" viewBox="0 0 497 476" enable-background="new 0 0 497 476" xml:space="preserve">
<filter  width="156.0%" height="157.5%" y="-27.0%" x="-28.0%" id="filter-5" filterUnits="objectBoundingBox">
	<feOffset  dx="0" dy="2" in="SourceAlpha" result="shadowOffsetOuter1"></feOffset>
	<feGaussianBlur  in="shadowOffsetOuter1" stdDeviation="10.5" result="shadowBlurOuter1"></feGaussianBlur>
	
		<feColorMatrix  type="matrix" values="0 0 0 0 0   0 0 0 0 0   0 0 0 0 0  0 0 0 0.5 0" in="shadowBlurOuter1" result="shadowMatrixOuter1">
		</feColorMatrix>
	<feMerge>
		<feMergeNode  in="shadowMatrixOuter1"></feMergeNode>
		<feMergeNode  in="SourceGraphic"></feMergeNode>
	</feMerge>
</filter>
<filter  width="135.2%" height="224.6%" y="-59.4%" x="-17.6%" id="filter-4" filterUnits="objectBoundingBox">
	<feMorphology  radius="3.5" operator="dilate" in="SourceAlpha" result="shadowSpreadOuter1"></feMorphology>
	<feOffset  dx="0" dy="2" in="shadowSpreadOuter1" result="shadowOffsetOuter1"></feOffset>
	<feGaussianBlur  in="shadowOffsetOuter1" stdDeviation="10.5" result="shadowBlurOuter1"></feGaussianBlur>
	<feColorMatrix  type="matrix" values="0 0 0 0 0   0 0 0 0 0   0 0 0 0 0  0 0 0 0.278023098 0" in="shadowBlurOuter1">
		</feColorMatrix>
</filter>
<filter  width="133.9%" height="124.2%" y="-11.3%" x="-16.9%" id="filter-2" filterUnits="objectBoundingBox">
	<feOffset  dx="0" dy="2" in="SourceAlpha" result="shadowOffsetOuter1"></feOffset>
	<feGaussianBlur  in="shadowOffsetOuter1" stdDeviation="10.5" result="shadowBlurOuter1"></feGaussianBlur>
	
		<feColorMatrix  type="matrix" values="0 0 0 0 0   0 0 0 0 0   0 0 0 0 0  0 0 0 0.5 0" in="shadowBlurOuter1" result="shadowMatrixOuter1">
		</feColorMatrix>
	<feMerge>
		<feMergeNode  in="shadowMatrixOuter1"></feMergeNode>
		<feMergeNode  in="SourceGraphic"></feMergeNode>
	</feMerge>
</filter>
<title>Group 7</title>
<desc>Created with Sketch.</desc>
<g id="Page-1">
	<g id="Artboard" transform="translate(-1011.000000, -195.000000)">
		<g id="Group-7" transform="translate(1011.000000, 195.000000)">
			<path id="Line" fill="none" stroke="#A0A0CD" stroke-linecap="square" d="M72.5,287.5l72-257"/>
			<path id="Line_1_" fill="none" stroke="#9D9BCB" stroke-linecap="square" d="M147.5,22.5l152,180"/>
			<path id="Line_2_" fill="none" stroke="#9D9BCB" stroke-linecap="square" d="M12.5,320.5l56-29"/>
			<path id="Line_3_" fill="none" stroke="#9D9BCB" stroke-linecap="square" d="M12.5,320.5l124,110"/>
			
				<linearGradient id="Shape_10_" gradientUnits="userSpaceOnUse" x1="-499.9932" y1="487.5381" x2="-498.9932" y2="487.5381" gradientTransform="matrix(146 0 0 -146 73229 71389.5)">
				<stop  offset="0" style="stop-color:#4E1D82"/>
				<stop  offset="1" style="stop-color:#8345C5"/>
			</linearGradient>
			<path id="Shape" fill="url(#Shape_10_)" d="M303,136c40.229,0,73,32.772,73,73c0,40.229-32.771,73-73,73
				c-40.401,0-73-32.771-73-73C230,168.772,262.599,136,303,136L303,136z"/>
			<path id="Line_4_" fill="none" stroke="#9D9BCB" stroke-linecap="square" d="M336.5,210.5l158,87"/>
			<g id="Group" transform="translate(246.000000, 160.000000)" filter="url(#filter-2)">
				<polygon id="Rectangle-5_8_" fill="#3BA2FF" points="100,0 162,0 62,209 0,209 				"/>
				<polygon id="Rectangle-5_7_" fill="#0677DB" points="28.691,268.078 90.691,268.078 62,209 0,209 				"/>
				<polygon id="Rectangle-5_6_" fill="#4DD5FF" points="161,0 192,61 90.771,268.284 61,209 				"/>
			</g>
			<g id="Rectangle-3" opacity="0.95">
				<g filter="url(#filter-4)">
					<path id="path-3_2_" d="M146.5,213h175c19.054,0,34.5,15.446,34.5,34.5l0,0c0,19.054-15.446,34.5-34.5,34.5h-175
						c-19.054,0-34.5-15.446-34.5-34.5l0,0C112,228.446,127.446,213,146.5,213z"/>
				</g>
				<g>
					<path id="path-3_1_" fill="#FFFFFF" d="M146.5,213h175c19.054,0,34.5,15.446,34.5,34.5l0,0c0,19.054-15.446,34.5-34.5,34.5
						h-175c-19.054,0-34.5-15.446-34.5-34.5l0,0C112,228.446,127.446,213,146.5,213z"/>
				</g>
			</g>
			<g enable-background="new    ">
				<path fill="#0677DB" d="M194.31,254v-12.885h4.175c1.582,0,2.613,0.064,3.094,0.193c0.738,0.193,1.356,0.614,1.854,1.262
					s0.747,1.483,0.747,2.509c0,0.791-0.144,1.456-0.431,1.995s-0.652,0.963-1.094,1.27c-0.442,0.309-0.892,0.512-1.349,0.611
					c-0.621,0.123-1.521,0.185-2.698,0.185h-1.696V254H194.31z M196.911,243.295v3.656h1.424c1.025,0,1.711-0.067,2.057-0.202
					s0.617-0.346,0.813-0.633s0.294-0.621,0.294-1.002c0-0.469-0.138-0.855-0.413-1.16s-0.624-0.495-1.046-0.571
					c-0.311-0.059-0.935-0.088-1.872-0.088H196.911z"/>
				<path fill="#0677DB" d="M206.386,254v-12.779h2.602v10.608h6.469V254H206.386z"/>
				<path fill="#0677DB" d="M228.93,254h-2.83l-1.125-2.927h-5.15L218.761,254h-2.76l5.019-12.885h2.751L228.93,254z
					 M224.14,248.902l-1.775-4.781l-1.74,4.781H224.14z"/>
				<path fill="#0677DB" d="M232.041,254v-5.423l-4.72-7.462h3.05l3.032,5.098l2.971-5.098h2.997l-4.737,7.479V254H232.041z"/>
				<path fill="#0677DB" d="M248.626,254l-4.605-12.885h2.821l3.261,9.536l3.155-9.536h2.76L251.403,254H248.626z"/>
				<path fill="#0677DB" d="M257.266,254v-12.885h2.602V254H257.266z"/>
				<path fill="#0677DB" d="M262.337,241.115h4.755c1.072,0,1.89,0.082,2.452,0.246c0.756,0.223,1.403,0.618,1.942,1.187
					s0.949,1.265,1.23,2.087c0.281,0.824,0.422,1.839,0.422,3.046c0,1.061-0.132,1.975-0.396,2.742
					c-0.322,0.938-0.782,1.696-1.38,2.276c-0.451,0.439-1.061,0.782-1.828,1.028c-0.574,0.182-1.342,0.272-2.303,0.272h-4.896
					V241.115z M264.938,243.295v8.534h1.942c0.727,0,1.251-0.041,1.573-0.123c0.422-0.105,0.772-0.284,1.05-0.536
					c0.279-0.252,0.506-0.666,0.682-1.244c0.176-0.576,0.264-1.363,0.264-2.359s-0.088-1.761-0.264-2.294s-0.422-0.949-0.738-1.248
					s-0.718-0.501-1.204-0.606c-0.363-0.082-1.075-0.123-2.136-0.123H264.938z"/>
				<path fill="#0677DB" d="M275.345,254v-12.885h9.554v2.18h-6.952v2.856h6.469v2.171h-6.469v3.507h7.198V254H275.345z"/>
				<path fill="#0677DB" d="M286.823,247.637c0-1.312,0.196-2.414,0.589-3.305c0.293-0.656,0.693-1.245,1.199-1.767
					c0.508-0.521,1.062-0.908,1.666-1.16c0.803-0.34,1.729-0.51,2.777-0.51c1.898,0,3.418,0.589,4.557,1.767
					c1.141,1.178,1.71,2.815,1.71,4.913c0,2.08-0.565,3.708-1.696,4.882c-1.131,1.176-2.643,1.763-4.535,1.763
					c-1.916,0-3.439-0.585-4.57-1.753C287.389,251.297,286.823,249.688,286.823,247.637z M289.504,247.549
					c0,1.459,0.337,2.565,1.011,3.318s1.529,1.129,2.566,1.129s1.888-0.373,2.554-1.121c0.664-0.746,0.997-1.867,0.997-3.361
					c0-1.477-0.323-2.578-0.972-3.305c-0.646-0.727-1.507-1.09-2.579-1.09s-1.937,0.368-2.593,1.104
					S289.504,246.066,289.504,247.549z"/>
			</g>
			
				<g id="Group-2" transform="translate(109.670930, 175.143679) rotate(-247.000000) translate(-109.670930, -175.143679) translate(51.670930, 118.643679)" filter="url(#filter-5)">
				<polygon id="Rectangle-5_8_" fill="#20F7AA" points="25.299,0 85.201,1.198 61.177,53.06 0.135,53.016 				"/>
				<polygon id="Rectangle-5_7_" fill="#00D89A" points="28.691,112.078 91.612,111.688 62,53 0,53 				"/>
				<polygon id="Rectangle-5_6_" fill="#04BAA0" points="85.139,1.158 115.14,60.426 91.578,111.695 61,53 				"/>
			</g>
			
				<linearGradient id="Shape_11_" gradientUnits="userSpaceOnUse" x1="-497.415" y1="486.3535" x2="-496.415" y2="486.3535" gradientTransform="matrix(41 0 0 -41 20521 19961.002)">
				<stop  offset="0" style="stop-color:#4E1D82"/>
				<stop  offset="1" style="stop-color:#8345C5"/>
			</linearGradient>
			<path id="Shape_1_" fill="url(#Shape_11_)" d="M147.5,0C158.797,0,168,9.203,168,20.5S158.797,41,147.5,41
				c-11.346,0-20.5-9.203-20.5-20.5S136.154,0,147.5,0L147.5,0z"/>
			<path id="Line_5_" fill="none" stroke="#9D9BCB" stroke-linecap="square" d="M401.5,369.5l79-78"/>
			
				<linearGradient id="Shape_12_" gradientUnits="userSpaceOnUse" x1="-497.415" y1="486.3535" x2="-496.415" y2="486.3535" gradientTransform="matrix(41 0 0 -41 20850 20232.002)">
				<stop  offset="0" style="stop-color:#4E1D82"/>
				<stop  offset="1" style="stop-color:#8345C5"/>
			</linearGradient>
			<path id="Shape_2_" fill="url(#Shape_12_)" d="M476.5,271c11.297,0,20.5,9.203,20.5,20.5s-9.203,20.5-20.5,20.5
				c-11.346,0-20.5-9.203-20.5-20.5S465.154,271,476.5,271L476.5,271z"/>
			<path id="play-button" fill="#0677DB" d="M150.081,258.109c-0.597,0-1.081-0.484-1.081-1.082v-18.945
				c0-0.598,0.484-1.083,1.081-1.083l17.559,9.743c0,0,0.811,0.812,0,1.624C166.829,249.179,150.081,258.109,150.081,258.109z"/>
			<g id="Group_1_" transform="translate(184.000000, 2.000000)">
				
					<linearGradient id="Shape_13_" gradientUnits="userSpaceOnUse" x1="-682.6152" y1="484.6641" x2="-682.6152" y2="485.6641" gradientTransform="matrix(78 0 0 -80.677 53283.1875 39181.9492)">
					<stop  offset="0" style="stop-color:#00CCFF"/>
					<stop  offset="1" style="stop-color:#8FE9DF"/>
				</linearGradient>
				<polygon id="Shape_3_" fill="url(#Shape_13_)" points="45,13.739 78.19,0.047 33.333,67.033 0.19,80.725 				"/>
				
					<linearGradient id="Shape_14_" gradientUnits="userSpaceOnUse" x1="-683.5249" y1="484.6201" x2="-682.5249" y2="484.6201" gradientTransform="matrix(99.619 0 0 -48.9197 68092.2344 23798.9551)">
					<stop  offset="0" style="stop-color:#004D97"/>
					<stop  offset="1" style="stop-color:#057CD3"/>
				</linearGradient>
				<polygon id="Shape_4_" fill="url(#Shape_14_)" points="66.619,115.953 99.81,102.261 33.333,67.033 0.19,80.725 				"/>
				
					<linearGradient id="Shape_15_" gradientUnits="userSpaceOnUse" x1="-682.7886" y1="485.3399" x2="-681.7886" y2="485.3399" gradientTransform="matrix(66.4762 0 0 -102.2131 45422.5391 49659.25)">
					<stop  offset="0" style="stop-color:#0083DF"/>
					<stop  offset="1" style="stop-color:#17A3D4"/>
				</linearGradient>
				<polygon id="Shape_5_" fill="url(#Shape_15_)" points="99.81,102.261 33.333,67.033 78.19,0.047 				"/>
			</g>
			<path id="Line_6_" fill="none" stroke="#9D9BCB" stroke-linecap="square" d="M389.5,373.5l-221,69"/>
			<path id="Line_7_" fill="none" stroke="#9D9BCB" stroke-linecap="square" d="M71.5,303.5l86,134"/>
			<path id="Line_8_" fill="none" stroke="#B8B6D8" stroke-linecap="square" d="M70.5,294.5l321,70"/>
			
				<linearGradient id="Shape_16_" gradientUnits="userSpaceOnUse" x1="-498.8062" y1="486.9922" x2="-497.8062" y2="486.9922" gradientTransform="matrix(67 0 0 -67 33776 33001.0039)">
				<stop  offset="0" style="stop-color:#4E1D82"/>
				<stop  offset="1" style="stop-color:#8345C5"/>
			</linearGradient>
			<path id="Shape_6_" fill="url(#Shape_16_)" d="M389.5,339c18.461,0,33.5,15.039,33.5,33.5S407.961,406,389.5,406
				c-18.541,0-33.5-15.039-33.5-33.5S370.959,339,389.5,339L389.5,339z"/>
			
				<linearGradient id="Shape_17_" gradientUnits="userSpaceOnUse" x1="-503.0703" y1="488.9512" x2="-502.0703" y2="488.9512" gradientTransform="matrix(-71 0 0 71 -35525 -34275.0039)">
				<stop  offset="0" style="stop-color:#4E1D82"/>
				<stop  offset="1" style="stop-color:#8345C5"/>
			</linearGradient>
			<path id="Shape_7_" fill="url(#Shape_17_)" d="M157.5,476c-19.563,0-35.5-15.938-35.5-35.5s15.937-35.5,35.5-35.5
				c19.647,0,35.5,15.938,35.5,35.5S177.147,476,157.5,476L157.5,476z"/>
			
				<linearGradient id="Shape_18_" gradientUnits="userSpaceOnUse" x1="-494.8745" y1="485.1885" x2="-493.8745" y2="485.1885" gradientTransform="matrix(24 0 0 -24 11931 11938.501)">
				<stop  offset="0" style="stop-color:#4E1D82"/>
				<stop  offset="1" style="stop-color:#8345C5"/>
			</linearGradient>
			<path id="Shape_8_" fill="url(#Shape_18_)" d="M66,282c6.613,0,12,5.387,12,12s-5.387,12-12,12c-6.641,0-12-5.387-12-12
				S59.359,282,66,282L66,282z"/>
			
				<linearGradient id="Shape_19_" gradientUnits="userSpaceOnUse" x1="-492.353" y1="484.0293" x2="-491.353" y2="484.0293" gradientTransform="matrix(17 0 0 -17 8370 8549.001)">
				<stop  offset="0" style="stop-color:#4E1D82"/>
				<stop  offset="1" style="stop-color:#8345C5"/>
			</linearGradient>
			<path id="Shape_9_" fill="url(#Shape_19_)" d="M8.5,312c4.684,0,8.5,3.816,8.5,8.5s-3.816,8.5-8.5,8.5
				c-4.704,0-8.5-3.816-8.5-8.5S3.796,312,8.5,312L8.5,312z"/>
		</g>
	</g>
</g>
</svg>
