<?xml version="1.0" encoding="UTF-8"?>
<svg width="86px" height="34px" viewBox="0 0 86 34" version="1.1" xmlns="http://www.w3.org/2000/svg" xmlns:xlink="http://www.w3.org/1999/xlink">
    <!-- Generator: Sketch 49.3 (51167) - http://www.bohemiancoding.com/sketch -->
    <title>ERA</title>
    <desc>Created with Sketch.</desc>
    <defs></defs>
    <g id="Page-1" stroke="none" stroke-width="1" fill="none" fill-rule="evenodd">
        <g id="Artboard" transform="translate(-451.000000, -46.000000)" fill="#FFFFFF">
            <path d="M451.84,80 L451.84,46.4 L473.104,46.4 L473.104,52.4 L458.32,52.4 L458.32,59.936 L471.76,59.936 L471.76,65.696 L458.32,65.696 L458.32,74 L473.104,74 L473.104,80 L451.84,80 Z M479.584,80 L479.584,46.4 L493.216,46.4 C496.672017,46.4 499.463989,47.3679903 501.592,49.304 C503.720011,51.2400097 504.784,53.8399837 504.784,57.104 C504.784,59.5360122 504.152006,61.5999915 502.888,63.296 C501.623994,64.9920085 499.888011,66.1919965 497.68,66.896 L504.832,80 L497.824,80 L491.056,67.52 L486.064,67.52 L486.064,80 L479.584,80 Z M486.064,61.904 L492.688,61.904 C496.368018,61.904 498.208,60.304016 498.208,57.104 C498.208,53.8719838 496.368018,52.256 492.688,52.256 L486.064,52.256 L486.064,61.904 Z M529.6,80 L527.68,74.48 L514.864,74.48 L512.944,80 L506.512,80 L518.656,46.4 L524.176,46.4 L536.272,80 L529.6,80 Z M521.248,56 L516.688,69.104 L525.856,69.104 L521.344,56 L521.248,56 Z" id="ERA"></path>
        </g>
    </g>
</svg>