<?xml version="1.0" encoding="utf-8"?>
<!-- Generator: Adobe Illustrator 16.0.0, SVG Export Plug-In . SVG Version: 6.00 Build 0)  -->
<!DOCTYPE svg PUBLIC "-//W3C//DTD SVG 1.1//EN" "http://www.w3.org/Graphics/SVG/1.1/DTD/svg11.dtd">
<svg version="1.1" id="Layer_1" xmlns="http://www.w3.org/2000/svg" xmlns:xlink="http://www.w3.org/1999/xlink" x="0px" y="0px"
	 width="86px" height="34px" viewBox="0 0 86 34" enable-background="new 0 0 86 34" xml:space="preserve">
<title>ERA</title>
<desc>Created with Sketch.</desc>
<g>
	<path fill="#FFFFFF" d="M18.559,28.015h8.035v6.013H11.302V0.49h15.292V6.4h-8.035v7.879h7.516v5.702h-7.516V28.015z"/>
	<path fill="#FFFFFF" d="M38.048,20.291v13.736h-7.257V0.49h12.907c4.285,0,6.428,2.281,6.428,6.842v3.888
		c0,2.765-0.985,4.527-2.955,5.287c1.727,0.623,2.593,2.04,2.593,4.25v13.27h-7.257V21.328c0-0.691-0.329-1.037-0.985-1.037H38.048z
		 M38.048,5.415v9.797h3.836c0.276,0,0.509-0.104,0.7-0.311c0.189-0.207,0.284-0.448,0.284-0.726V6.451
		c0-0.276-0.095-0.518-0.284-0.726c-0.19-0.207-0.424-0.311-0.7-0.311H38.048z"/>
	<path fill="#FFFFFF" d="M68.112-0.028c4.284,0,6.428,2.281,6.428,6.842v27.213h-7.257V22.779h-5.235v11.248h-7.257V6.814
		c0-4.562,2.142-6.842,6.428-6.842H68.112z M62.048,17.181h5.235V5.933c0-0.276-0.097-0.519-0.285-0.726
		c-0.191-0.208-0.424-0.312-0.7-0.312h-3.266c-0.277,0-0.51,0.104-0.699,0.312c-0.191,0.207-0.285,0.45-0.285,0.726V17.181z"/>
</g>
</svg>
