<?xml version="1.0" encoding="UTF-8"?>
<svg width="54px" height="40px" viewBox="0 0 54 40" version="1.1" xmlns="http://www.w3.org/2000/svg" xmlns:xlink="http://www.w3.org/1999/xlink">
    <!-- Generator: Sketch 49.3 (51167) - http://www.bohemiancoding.com/sketch -->
    <title>“</title>
    <desc>Created with Sketch.</desc>
    <defs></defs>
    <g id="Page-1" stroke="none" stroke-width="1" fill="none" fill-rule="evenodd">
        <g id="Artboard" transform="translate(-1001.000000, -3540.000000)" fill="#B8BEC2">
            <path d="M1022.976,3570.152 L1022.976,3579.944 C1008.67193,3578.88799 1001.52,3571.68807 1001.52,3558.344 L1001.52,3540.2 L1022.976,3540.2 L1022.976,3560.648 L1015.92,3560.648 C1015.92,3563.91202 1016.304,3566.16799 1017.072,3567.416 C1017.84,3568.66401 1019.80798,3569.576 1022.976,3570.152 Z M1054.512,3570.152 L1054.512,3579.944 C1040.20793,3578.88799 1033.056,3571.68807 1033.056,3558.344 L1033.056,3540.2 L1054.512,3540.2 L1054.512,3560.648 L1047.456,3560.648 C1047.456,3563.91202 1047.84,3566.16799 1048.608,3567.416 C1049.376,3568.66401 1051.34398,3569.576 1054.512,3570.152 Z" id="“"></path>
        </g>
    </g>
</svg>