<?xml version="1.0" encoding="UTF-8"?>
<svg width="41px" height="33px" viewBox="0 0 41 33" version="1.1" xmlns="http://www.w3.org/2000/svg" xmlns:xlink="http://www.w3.org/1999/xlink">
    <!-- Generator: Sketch 49.3 (51167) - http://www.bohemiancoding.com/sketch -->
    <title>twitter</title>
    <desc>Created with Sketch.</desc>
    <defs></defs>
    <g id="Page-1" stroke="none" stroke-width="1" fill="none" fill-rule="evenodd">
        <g id="Artboard" transform="translate(-609.000000, -4788.000000)" fill="#FFFFFF" fill-rule="nonzero">
            <g id="twitter" transform="translate(609.296167, 4788.740741)">
                <path d="M40.7038328,3.83198208 C39.2057056,4.47741414 37.5982367,4.91513878 35.9092937,5.11055965 C37.6338193,4.10648955 38.9539005,2.51389354 39.5795556,0.622022944 C37.9619108,1.55185639 36.1763295,2.22703484 34.2737578,2.59304481 C32.750224,1.01280001 30.583144,0.0285177376 28.1794895,0.0285177376 C23.5681177,0.0285177376 19.8291515,3.66385029 19.8291515,8.14495039 C19.8291515,8.78048855 19.9029105,9.40121817 20.0453739,9.99478804 C13.1067007,9.65593783 6.95397049,6.42373356 2.8360329,1.51228075 C2.11620025,2.70924974 1.70670107,4.10396757 1.70670107,5.59277454 C1.70670107,8.40956396 3.18194896,10.8949398 5.42026071,12.349021 C4.05182712,12.3045308 2.76480119,11.9385208 1.63806323,11.3301424 L1.63806323,11.4315388 C1.63806323,15.363624 4.51732732,18.6452978 8.3351074,19.3921909 C7.63562667,19.5751959 6.89803597,19.6765923 6.13497213,19.6765923 C5.59577936,19.6765923 5.07434464,19.6246654 4.56308588,19.5257263 C5.62624073,22.753016 8.70902398,25.0998771 12.3615279,25.1642198 C9.50514306,27.3404918 5.90351896,28.6338779 1.9916279,28.6338779 C1.31762031,28.6338779 0.653722177,28.5943022 6.65095308e-05,28.5225876 C3.6958016,30.8299377 8.08336883,32.1752506 12.7990276,32.1752506 C28.1592706,32.1752506 36.5554338,19.8052131 36.5554338,9.07730582 L36.5274333,8.02628815 C38.1679574,6.88861795 39.5872042,5.4592391 40.7038328,3.83198208 Z" id="Shape"></path>
            </g>
        </g>
    </g>
</svg>