<?xml version="1.0" encoding="UTF-8"?>
<svg width="234px" height="311px" viewBox="0 0 234 311" version="1.1" xmlns="http://www.w3.org/2000/svg" xmlns:xlink="http://www.w3.org/1999/xlink">
    <!-- Generator: Sketch 49.3 (51167) - http://www.bohemiancoding.com/sketch -->
    <title>1</title>
    <desc>Created with Sketch.</desc>
    <defs>
        <polygon id="path-1" points="0.169721531 0.534 138.649783 0.534 138.649783 203.0654 0.169721531 203.0654 0.169721531 0.534"></polygon>
    </defs>
    <g id="Page-1" stroke="none" stroke-width="1" fill="none" fill-rule="evenodd">
        <g id="Artboard" transform="translate(-453.000000, -3035.000000)">
            <g id="1" transform="translate(453.000000, 3034.000000)">
                <path d="M172.7817,268.1955 C172.2397,268.1955 171.7007,267.9765 171.3057,267.5475 C170.5597,266.7325 170.6147,265.4675 171.4287,264.7205 C205.2017,233.7655 204.4537,169.9245 204.1717,145.8905 C203.8457,118.2545 196.1897,83.0975 184.6667,56.3235 C173.6927,30.8265 147.9267,26.2315 128.2357,26.8665 C109.3037,27.4775 105.0357,33.5055 104.9947,33.5665 C104.3897,34.4665 103.1637,34.7425 102.2467,34.1575 C101.3317,33.5745 101.0347,32.3885 101.5947,31.4595 C102.0827,30.6525 106.9637,23.5505 128.1067,22.8685 C149.0307,22.1905 176.4757,27.1745 188.3407,54.7425 C200.0557,81.9625 207.8397,117.7215 208.1717,145.8435 C208.3177,158.3495 208.5907,181.6275 204.2067,205.4335 C199.1107,233.1105 188.9917,254.0495 174.1327,267.6705 C173.7487,268.0215 173.2637,268.1955 172.7817,268.1955" id="Fill-1" fill="#131371"></path>
                <path d="M196.7612,195.6418 C195.9562,195.6418 195.1982,195.1528 194.8932,194.3558 C194.7752,194.0458 194.6402,193.7058 194.4902,193.3298 C192.4352,188.1478 187.6192,176.0098 184.1802,140.0298 L184.0782,138.9598 C180.6422,102.9898 175.4492,48.6308 156.5482,42.4338 C136.8742,35.9838 98.7912,40.4738 98.4092,40.5208 C97.3092,40.6518 96.3162,39.8718 96.1842,38.7748 C96.0522,37.6788 96.8332,36.6828 97.9292,36.5498 C99.5272,36.3568 137.2772,31.9078 157.7942,38.6328 C179.1832,45.6448 184.3142,99.3598 188.0602,138.5798 L188.1622,139.6488 C191.5472,175.0638 196.2152,186.8308 198.2092,191.8558 C198.3652,192.2478 198.5052,192.6028 198.6292,192.9258 C199.0242,193.9578 198.5072,195.1148 197.4762,195.5088 C197.2402,195.5988 196.9992,195.6418 196.7612,195.6418" id="Fill-3" fill="#131371"></path>
                <path d="M62.8389,189.1984 C61.9959,189.1984 61.2129,188.6614 60.9379,187.8154 C48.4029,149.2734 57.1869,96.6654 64.8829,60.4484 C69.6689,37.9234 86.0849,33.9704 94.0999,35.0254 C95.1949,35.1694 95.9649,36.1744 95.8209,37.2694 C95.6769,38.3624 94.6779,39.1304 93.5839,38.9914 C92.7839,38.8904 73.9919,36.8274 68.7959,61.2794 C61.1949,97.0474 52.5049,148.9504 64.7409,186.5794 C65.0829,187.6294 64.5079,188.7584 63.4579,189.0994 C63.2529,189.1664 63.0439,189.1984 62.8389,189.1984" id="Fill-5" fill="#131371"></path>
                <g id="Group-9" transform="translate(95.000000, 0.466000)">
                    <mask id="mask-2" fill="white">
                        <use xlink:href="#path-1"></use>
                    </mask>
                    <g id="Clip-8"></g>
                    <path d="M135.1753,203.0654 C135.0813,203.0654 134.9883,203.0594 134.8923,203.0454 C133.7993,202.8914 133.0373,201.8784 133.1923,200.7854 C137.8753,167.6394 130.1133,128.2394 126.5593,112.8374 C122.0213,93.1734 111.3943,47.1234 80.8223,19.2094 C69.6613,9.0184 56.6833,4.0774 42.1833,4.5104 C30.4503,4.8654 21.0613,8.6124 16.5483,10.4134 C15.3093,10.9084 14.5813,11.1984 14.0383,11.3294 C12.2453,12.4904 7.4403,22.2764 4.0273,30.8094 C3.6163,31.8354 2.4513,32.3344 1.4263,31.9234 C0.4013,31.5134 -0.0967,30.3494 0.3133,29.3234 C4.1473,19.7404 9.4803,8.1654 13.1123,7.4384 C13.3523,7.3824 14.2623,7.0194 15.0663,6.6984 C41.8403,-3.9866 64.8723,-0.7696 83.5203,16.2554 C115.0113,45.0094 125.8353,91.9104 130.4573,111.9384 C134.0623,127.5574 141.9293,167.5364 137.1533,201.3454 C137.0113,202.3434 136.1553,203.0654 135.1753,203.0654" id="Fill-7" fill="#131371" mask="url(#mask-2)"></path>
                </g>
                <path d="M37.8369,259.8752 C36.9509,259.8762 36.1419,259.2832 35.9049,258.3862 C35.7679,257.8662 22.1819,205.9352 23.5089,164.4552 C25.0459,116.3922 33.8059,79.2272 51.9099,43.9502 C72.5579,3.7152 99.5049,9.0002 100.6449,9.2462 C101.7239,9.4792 102.4109,10.5422 102.1789,11.6222 C101.9469,12.6992 100.8869,13.3852 99.8109,13.1582 C98.7919,12.9482 74.6359,8.4272 55.4679,45.7762 C37.6489,80.5002 29.0239,117.1422 27.5069,164.5832 C26.1989,205.4702 39.6359,256.8502 39.7719,257.3642 C40.0539,258.4322 39.4179,259.5262 38.3499,259.8092 C38.1779,259.8542 38.0059,259.8752 37.8369,259.8752" id="Fill-10" fill="#131371"></path>
                <path d="M169.7817,168.1486 C169.0857,168.1486 168.4097,167.7856 168.0417,167.1366 C160.5467,153.9566 141.2947,145.4996 141.0997,145.4156 C140.0877,144.9766 139.6217,143.7996 140.0597,142.7856 C140.4977,141.7726 141.6747,141.3066 142.6887,141.7446 C143.5287,142.1076 163.3557,150.8046 171.5177,165.1606 C172.0637,166.1206 171.7287,167.3406 170.7677,167.8866 C170.4567,168.0646 170.1167,168.1486 169.7817,168.1486" id="Fill-12" fill="#131371"></path>
                <path d="M82.2285,167.3517 C81.9065,167.3517 81.5795,167.2737 81.2765,167.1097 C80.3055,166.5817 79.9455,165.3687 80.4725,164.3977 C85.9795,154.2517 97.9735,152.4737 98.4805,152.4037 C99.5735,152.2417 100.5855,153.0137 100.7375,154.1087 C100.8905,155.2017 100.1275,156.2107 99.0355,156.3647 C98.8775,156.3877 88.5055,157.9847 83.9885,166.3057 C83.6255,166.9737 82.9385,167.3517 82.2285,167.3517" id="Fill-14" fill="#131371"></path>
                <path d="M128.2974,237.3068 C127.3614,237.3068 126.4074,237.2698 125.4324,237.1938 C111.6144,236.1118 105.8134,230.3498 93.1034,217.7248 C90.0424,214.6838 86.5724,211.2378 82.4564,207.3138 C73.3604,198.6448 65.9264,185.2518 60.3594,167.5078 C56.2394,154.3748 54.7784,143.9138 54.7184,143.4748 C54.5684,142.3808 55.3344,141.3718 56.4284,141.2218 C57.5214,141.0668 58.5304,141.8368 58.6814,142.9318 C58.7384,143.3478 64.6444,184.8108 85.2154,204.4188 C89.3614,208.3698 92.8474,211.8318 95.9224,214.8868 C108.6344,227.5138 113.3914,232.2388 125.7444,233.2048 C146.1024,234.8108 156.5234,217.1578 160.4474,210.5158 C161.3964,208.9108 163.1504,206.8698 165.3694,204.2858 C173.7644,194.5138 189.3894,176.3258 185.5264,151.8448 C185.3544,150.7538 186.0984,149.7298 187.1904,149.5578 C188.2764,149.3898 189.3054,150.1298 189.4774,151.2218 C193.6294,177.5288 177.2194,196.6298 168.4034,206.8928 C166.3954,209.2308 164.6594,211.2498 163.8914,212.5508 C160.1934,218.8088 149.2594,237.3068 128.2974,237.3068" id="Fill-16" fill="#131371"></path>
                <path d="M125.6431,184.6359 C124.9851,184.6359 124.3201,184.6289 123.6401,184.6129 C101.9861,184.1089 93.6691,180.3419 93.3251,180.1819 C92.3241,179.7149 91.8911,178.5259 92.3581,177.5249 C92.8221,176.5269 94.0071,176.0909 95.0071,176.5529 C95.0861,176.5889 103.0961,180.1339 123.7341,180.6149 C140.1421,180.9759 149.5231,176.5169 153.0461,174.8299 C154.4331,174.1669 155.2711,173.7669 156.2831,174.3299 C156.8491,174.6449 157.2541,175.2549 157.3261,175.8999 C157.4471,176.9969 156.6561,177.9859 155.5571,178.1079 C155.5231,178.1109 155.4901,178.1139 155.4551,178.1149 C155.2641,178.2029 155.0091,178.3249 154.7731,178.4389 C151.5061,180.0019 141.8211,184.6359 125.6431,184.6359" id="Fill-18" fill="#131371"></path>
                <path d="M125.4136,193.6779 C120.1816,193.6779 115.6846,191.8279 115.3946,191.7059 C114.3766,191.2789 113.8976,190.1069 114.3256,189.0879 C114.7526,188.0709 115.9246,187.5929 116.9406,188.0179 C117.0326,188.0549 126.1726,191.7889 132.1366,187.9339 C133.0636,187.3339 134.3026,187.6009 134.9016,188.5279 C135.5016,189.4549 135.2356,190.6939 134.3086,191.2929 C131.5216,193.0939 128.3516,193.6779 125.4136,193.6779" id="Fill-20" fill="#131371"></path>
                <path d="M139.5034,119.1027 C139.0114,119.1027 138.5184,118.9217 138.1314,118.5587 C137.3274,117.8007 137.2904,116.5347 138.0484,115.7307 C138.4644,115.2887 148.3894,104.9317 159.1554,108.6437 C168.6804,111.9287 173.0484,113.2767 173.0914,113.2897 C174.1474,113.6147 174.7394,114.7337 174.4144,115.7897 C174.0904,116.8457 172.9634,117.4347 171.9154,117.1127 C171.8714,117.0997 167.4394,115.7317 157.8514,112.4247 C149.5054,109.5467 141.0434,118.3847 140.9584,118.4747 C140.5654,118.8917 140.0344,119.1027 139.5034,119.1027" id="Fill-22" fill="#131371"></path>
                <path d="M103.8398,120.5348 C103.1208,120.5348 102.4258,120.1448 102.0688,119.4648 C101.9068,119.1618 98.1538,112.3428 89.3628,113.1918 C80.2268,114.0768 76.6678,119.3888 76.5208,119.6138 C75.9208,120.5348 74.6858,120.8058 73.7608,120.2118 C72.8358,119.6178 72.5588,118.3958 73.1458,117.4668 C73.3308,117.1738 77.7978,110.2928 88.9778,109.2108 C100.5148,108.0848 105.4098,117.2218 105.6128,117.6118 C106.1228,118.5918 105.7408,119.7988 104.7608,120.3088 C104.4658,120.4618 104.1508,120.5348 103.8398,120.5348" id="Fill-24" fill="#131371"></path>
                <path d="M98.1694,114.7902 C98.1694,118.4772 95.1804,121.4662 91.4934,121.4662 C87.8074,121.4662 84.8184,118.4772 84.8184,114.7902 C84.8184,113.4712 85.2014,112.2402 85.8614,111.2052 C87.0474,109.3482 97.0294,110.0932 97.8714,112.8152 C98.0654,113.4392 98.1694,114.1032 98.1694,114.7902" id="Fill-26" fill="#131371"></path>
                <path d="M161.0122,112.4738 C161.0122,116.1608 158.0232,119.1498 154.3362,119.1498 C150.6502,119.1498 147.6612,116.1608 147.6612,112.4738 C147.6612,111.9048 147.7322,111.3518 147.8662,110.8248 C148.6002,107.9368 159.9402,107.8288 160.7472,110.6068 C160.9192,111.1998 161.0122,111.8268 161.0122,112.4738" id="Fill-28" fill="#131371"></path>
                <path d="M133.6714,107.3679 C132.8874,107.3679 132.1434,106.9039 131.8234,106.1349 C131.4004,105.1159 131.8824,103.9449 132.9024,103.5209 C133.8384,103.1319 155.9654,94.0419 168.7554,97.9549 C181.8934,101.9769 182.7334,103.9359 183.0084,104.5799 C183.4434,105.5949 182.9734,106.7709 181.9584,107.2059 C181.0874,107.5789 180.0954,107.2849 179.5584,106.5509 C179.2434,106.2839 177.0914,104.6899 167.5854,101.7799 C156.1534,98.2779 134.6544,107.1249 134.4384,107.2139 C134.1874,107.3189 133.9274,107.3679 133.6714,107.3679" id="Fill-30" fill="#131371"></path>
                <path d="M63.1333,112.1808 C62.6363,112.1808 62.1383,111.9958 61.7503,111.6248 C60.9523,110.8608 60.9253,109.5948 61.6893,108.7978 C61.9663,108.5088 68.5733,101.7188 79.1333,100.1908 C89.4033,98.7018 107.6363,103.2338 108.4073,103.4278 C109.4783,103.6968 110.1293,104.7828 109.8603,105.8538 C109.5913,106.9258 108.5053,107.5768 107.4333,107.3068 C107.2523,107.2618 89.1933,102.7748 79.7073,104.1498 C70.4953,105.4828 64.6363,111.5038 64.5783,111.5638 C64.1853,111.9738 63.6593,112.1808 63.1333,112.1808" id="Fill-32" fill="#131371"></path>
                <path d="M79.605,239.3039 C79.279,239.3039 78.948,239.2239 78.642,239.0559 C77.674,238.5219 77.322,237.3059 77.855,236.3379 C82.217,228.4259 78.96,208.4239 77.338,201.3839 C77.09,200.3079 77.761,199.2339 78.837,198.9859 C79.91,198.7419 80.987,199.4079 81.235,200.4859 C81.488,201.5789 87.345,227.4099 81.358,238.2699 C80.994,238.9309 80.31,239.3039 79.605,239.3039" id="Fill-34" fill="#131371"></path>
                <path d="M183.4194,252.8762 C182.7844,252.8762 182.1604,252.5752 181.7734,252.0142 C165.1854,228.0292 173.9664,194.5332 174.3484,193.1192 C174.6364,192.0532 175.7344,191.4242 176.7994,191.7102 C177.8654,191.9972 178.4964,193.0952 178.2094,194.1612 C178.1214,194.4902 169.5434,227.2992 185.0624,249.7382 C185.6904,250.6472 185.4634,251.8932 184.5554,252.5212 C184.2074,252.7612 183.8124,252.8762 183.4194,252.8762" id="Fill-36" fill="#131371"></path>
                <path d="M130.9175,134.8688 C129.9975,134.8688 129.1695,134.2298 128.9655,133.2938 C126.1105,120.1918 130.0175,113.1668 130.1855,112.8748 C130.7345,111.9168 131.9555,111.5838 132.9145,112.1338 C133.8695,112.6818 134.2025,113.8958 133.6625,114.8518 C133.5965,114.9738 130.3895,121.0368 132.8735,132.4428 C133.1085,133.5218 132.4245,134.5878 131.3455,134.8228 C131.2015,134.8538 131.0585,134.8688 130.9175,134.8688" id="Fill-38" fill="#131371"></path>
                <path d="M123.6616,197.8986 C123.6616,198.7896 122.9386,199.5126 122.0486,199.5126 C121.1556,199.5126 120.4336,198.7896 120.4336,197.8986 C120.4336,197.0066 121.1556,196.2846 122.0486,196.2846 C122.9386,196.2846 123.6616,197.0066 123.6616,197.8986" id="Fill-40" fill="#131371"></path>
                <path d="M128.4761,197.8947 C128.4761,198.7867 127.7531,199.5087 126.8631,199.5087 C125.9721,199.5087 125.2491,198.7867 125.2491,197.8947 C125.2491,197.0037 125.9721,196.2807 126.8631,196.2807 C127.7531,196.2807 128.4761,197.0037 128.4761,197.8947" id="Fill-42" fill="#131371"></path>
                <path d="M119.4565,196.9875 C119.4565,197.8785 118.7325,198.6015 117.8415,198.6015 C116.9505,198.6015 116.2275,197.8785 116.2275,196.9875 C116.2275,196.0955 116.9505,195.3735 117.8415,195.3735 C118.7325,195.3735 119.4565,196.0955 119.4565,196.9875" id="Fill-44" fill="#131371"></path>
                <path d="M128.1958,202.7512 C128.1958,203.6432 127.4728,204.3662 126.5818,204.3662 C125.6908,204.3662 124.9678,203.6432 124.9678,202.7512 C124.9678,201.8602 125.6908,201.1382 126.5818,201.1382 C127.4728,201.1382 128.1958,201.8602 128.1958,202.7512" id="Fill-46" fill="#131371"></path>
                <path d="M123.6841,203.1262 C123.6841,204.0182 122.9601,204.7412 122.0701,204.7412 C121.1791,204.7412 120.4561,204.0182 120.4561,203.1262 C120.4561,202.2362 121.1791,201.5132 122.0701,201.5132 C122.9601,201.5132 123.6841,202.2362 123.6841,203.1262" id="Fill-48" fill="#131371"></path>
                <path d="M124.1382,208.9133 C124.1382,209.8043 123.4142,210.5273 122.5232,210.5273 C121.6322,210.5273 120.9092,209.8043 120.9092,208.9133 C120.9092,208.0223 121.6322,207.3003 122.5232,207.3003 C123.4142,207.3003 124.1382,208.0223 124.1382,208.9133" id="Fill-50" fill="#131371"></path>
                <path d="M133.3062,201.5129 C133.3062,202.4049 132.5832,203.1269 131.6932,203.1269 C130.8012,203.1269 130.0782,202.4049 130.0782,201.5129 C130.0782,200.6219 130.8012,199.8999 131.6932,199.8999 C132.5832,199.8999 133.3062,200.6219 133.3062,201.5129" id="Fill-52" fill="#131371"></path>
                <path d="M132.6714,206.3918 C132.6714,207.2838 131.9474,208.0058 131.0574,208.0058 C130.1654,208.0058 129.4424,207.2838 129.4424,206.3918 C129.4424,205.5008 130.1654,204.7788 131.0574,204.7788 C131.9474,204.7788 132.6714,205.5008 132.6714,206.3918" id="Fill-54" fill="#131371"></path>
                <path d="M128.1958,208.006 C128.1958,208.897 127.4738,209.619 126.5818,209.619 C125.6908,209.619 124.9678,208.897 124.9678,208.006 C124.9678,207.114 125.6908,206.392 126.5818,206.392 C127.4738,206.392 128.1958,207.114 128.1958,208.006" id="Fill-56" fill="#131371"></path>
                <path d="M129.4429,230.468 C129.4429,231.359 128.7199,232.081 127.8299,232.081 C126.9379,232.081 126.2149,231.359 126.2149,230.468 C126.2149,229.576 126.9379,228.854 127.8299,228.854 C128.7199,228.854 129.4429,229.576 129.4429,230.468" id="Fill-58" fill="#131371"></path>
                <path d="M131.7007,226.4084 C131.7007,227.2994 130.9777,228.0214 130.0877,228.0214 C129.1957,228.0214 128.4727,227.2994 128.4727,226.4084 C128.4727,225.5164 129.1957,224.7944 130.0877,224.7944 C130.9777,224.7944 131.7007,225.5164 131.7007,226.4084" id="Fill-60" fill="#131371"></path>
                <path d="M123.6616,230.0519 C123.6616,230.9429 122.9386,231.6649 122.0486,231.6649 C121.1566,231.6649 120.4336,230.9429 120.4336,230.0519 C120.4336,229.1599 121.1566,228.4379 122.0486,228.4379 C122.9386,228.4379 123.6616,229.1599 123.6616,230.0519" id="Fill-62" fill="#131371"></path>
                <path d="M126.3101,226.8254 C126.3101,227.7164 125.5871,228.4384 124.6971,228.4384 C123.8051,228.4384 123.0821,227.7164 123.0821,226.8254 C123.0821,225.9334 123.8051,225.2114 124.6971,225.2114 C125.5871,225.2114 126.3101,225.9334 126.3101,226.8254" id="Fill-64" fill="#131371"></path>
                <path d="M121.6411,225.8244 C121.6411,226.7154 120.9191,227.4374 120.0271,227.4374 C119.1361,227.4374 118.4131,226.7154 118.4131,225.8244 C118.4131,224.9324 119.1361,224.2104 120.0271,224.2104 C120.9191,224.2104 121.6411,224.9324 121.6411,225.8244" id="Fill-66" fill="#131371"></path>
                <path d="M117.7832,228.4387 C117.7832,229.3297 117.0612,230.0517 116.1692,230.0517 C115.2782,230.0517 114.5552,229.3297 114.5552,228.4387 C114.5552,227.5467 115.2782,226.8247 116.1692,226.8247 C117.0612,226.8247 117.7832,227.5467 117.7832,228.4387" id="Fill-68" fill="#131371"></path>
                <path d="M112.9199,226.0617 C112.9199,226.9527 112.1979,227.6747 111.3059,227.6747 C110.4149,227.6747 109.6919,226.9527 109.6919,226.0617 C109.6919,225.1697 110.4149,224.4477 111.3059,224.4477 C112.1979,224.4477 112.9199,225.1697 112.9199,226.0617" id="Fill-70" fill="#131371"></path>
                <path d="M134.2847,230.0519 C134.2847,230.9429 133.5617,231.6649 132.6717,231.6649 C131.7797,231.6649 131.0567,230.9429 131.0567,230.0519 C131.0567,229.1599 131.7797,228.4379 132.6717,228.4379 C133.5617,228.4379 134.2847,229.1599 134.2847,230.0519" id="Fill-72" fill="#131371"></path>
                <path d="M136.9507,225.2111 C136.9507,226.1021 136.2277,226.8241 135.3377,226.8241 C134.4457,226.8241 133.7227,226.1021 133.7227,225.2111 C133.7227,224.3191 134.4457,223.5971 135.3377,223.5971 C136.2277,223.5971 136.9507,224.3191 136.9507,225.2111" id="Fill-74" fill="#131371"></path>
                <path d="M139.2554,228.4387 C139.2554,229.3297 138.5324,230.0517 137.6424,230.0517 C136.7504,230.0517 136.0274,229.3297 136.0274,228.4387 C136.0274,227.5467 136.7504,226.8247 137.6424,226.8247 C138.5324,226.8247 139.2554,227.5467 139.2554,228.4387" id="Fill-76" fill="#131371"></path>
                <path d="M144.0972,226.0617 C144.0972,226.9527 143.3752,227.6747 142.4842,227.6747 C141.5932,227.6747 140.8702,226.9527 140.8702,226.0617 C140.8702,225.1697 141.5932,224.4477 142.4842,224.4477 C143.3752,224.4477 144.0972,225.1697 144.0972,226.0617" id="Fill-78" fill="#131371"></path>
                <path d="M133.1909,196.5822 C133.1909,197.4742 132.4679,198.1952 131.5779,198.1952 C130.6849,198.1952 129.9629,197.4742 129.9629,196.5822 C129.9629,195.6902 130.6849,194.9682 131.5779,194.9682 C132.4679,194.9682 133.1909,195.6902 133.1909,196.5822" id="Fill-80" fill="#131371"></path>
                <path d="M119.5464,202.1271 C119.5464,203.0191 118.8234,203.7411 117.9324,203.7411 C117.0414,203.7411 116.3184,203.0191 116.3184,202.1271 C116.3184,201.2371 117.0414,200.5141 117.9324,200.5141 C118.8234,200.5141 119.5464,201.2371 119.5464,202.1271" id="Fill-82" fill="#131371"></path>
                <path d="M119.4565,206.9806 C119.4565,207.8736 118.7325,208.5956 117.8425,208.5956 C116.9515,208.5956 116.2285,207.8736 116.2285,206.9806 C116.2285,206.0906 116.9515,205.3676 117.8425,205.3676 C118.7325,205.3676 119.4565,206.0906 119.4565,206.9806" id="Fill-84" fill="#131371"></path>
                <path d="M114.5342,175.0812 C114.5342,175.9722 113.8112,176.6952 112.9202,176.6952 C112.0292,176.6952 111.3062,175.9722 111.3062,175.0812 C111.3062,174.1892 112.0292,173.4672 112.9202,173.4672 C113.8112,173.4672 114.5342,174.1892 114.5342,175.0812" id="Fill-86" fill="#131371"></path>
                <path d="M119.0269,171.2697 C119.0269,172.1607 118.3039,172.8837 117.4129,172.8837 C116.5219,172.8837 115.7989,172.1607 115.7989,171.2697 C115.7989,170.3777 116.5219,169.6557 117.4129,169.6557 C118.3039,169.6557 119.0269,170.3777 119.0269,171.2697" id="Fill-88" fill="#131371"></path>
                <path d="M120.8608,167.1994 C120.8608,168.0904 120.1378,168.8134 119.2468,168.8134 C118.3548,168.8134 117.6328,168.0904 117.6328,167.1994 C117.6328,166.3074 118.3548,165.5854 119.2468,165.5854 C120.1378,165.5854 120.8608,166.3074 120.8608,167.1994" id="Fill-90" fill="#131371"></path>
                <path d="M118.4409,175.5295 C118.4409,176.4205 117.7179,177.1435 116.8269,177.1435 C115.9359,177.1435 115.2129,176.4205 115.2129,175.5295 C115.2129,174.6375 115.9359,173.9155 116.8269,173.9155 C117.7179,173.9155 118.4409,174.6375 118.4409,175.5295" id="Fill-92" fill="#131371"></path>
                <path d="M122.7534,175.5295 C122.7534,176.4205 122.0304,177.1435 121.1394,177.1435 C120.2474,177.1435 119.5244,176.4205 119.5244,175.5295 C119.5244,174.6375 120.2474,173.9155 121.1394,173.9155 C122.0304,173.9155 122.7534,174.6375 122.7534,175.5295" id="Fill-94" fill="#131371"></path>
                <path d="M122.7534,171.2697 C122.7534,172.1607 122.0304,172.8837 121.1394,172.8837 C120.2474,172.8837 119.5244,172.1607 119.5244,171.2697 C119.5244,170.3777 120.2474,169.6557 121.1394,169.6557 C122.0304,169.6557 122.7534,170.3777 122.7534,171.2697" id="Fill-96" fill="#131371"></path>
                <path d="M125.3901,167.2619 C125.3901,168.1529 124.6661,168.8759 123.7751,168.8759 C122.8841,168.8759 122.1611,168.1529 122.1611,167.2619 C122.1611,166.3699 122.8841,165.6479 123.7751,165.6479 C124.6661,165.6479 125.3901,166.3699 125.3901,167.2619" id="Fill-98" fill="#131371"></path>
                <path d="M127.0034,175.5295 C127.0034,176.4205 126.2804,177.1435 125.3894,177.1435 C124.4974,177.1435 123.7744,176.4205 123.7744,175.5295 C123.7744,174.6375 124.4974,173.9155 125.3894,173.9155 C126.2804,173.9155 127.0034,174.6375 127.0034,175.5295" id="Fill-100" fill="#131371"></path>
                <path d="M127.0034,171.2697 C127.0034,172.1607 126.2804,172.8837 125.3894,172.8837 C124.4974,172.8837 123.7744,172.1607 123.7744,171.2697 C123.7744,170.3777 124.4974,169.6557 125.3894,169.6557 C126.2804,169.6557 127.0034,170.3777 127.0034,171.2697" id="Fill-102" fill="#131371"></path>
                <path d="M130.0874,167.5851 C130.0874,168.4761 129.3644,169.1991 128.4734,169.1991 C127.5814,169.1991 126.8584,168.4761 126.8584,167.5851 C126.8584,166.6931 127.5814,165.9711 128.4734,165.9711 C129.3644,165.9711 130.0874,166.6931 130.0874,167.5851" id="Fill-104" fill="#131371"></path>
                <path d="M131.7007,175.5295 C131.7007,176.4205 130.9777,177.1435 130.0877,177.1435 C129.1957,177.1435 128.4727,176.4205 128.4727,175.5295 C128.4727,174.6375 129.1957,173.9155 130.0877,173.9155 C130.9777,173.9155 131.7007,174.6375 131.7007,175.5295" id="Fill-106" fill="#131371"></path>
                <path d="M131.7007,171.2697 C131.7007,172.1607 130.9777,172.8837 130.0877,172.8837 C129.1957,172.8837 128.4727,172.1607 128.4727,171.2697 C128.4727,170.3777 129.1957,169.6557 130.0877,169.6557 C130.9777,169.6557 131.7007,170.3777 131.7007,171.2697" id="Fill-108" fill="#131371"></path>
                <path d="M136.4507,175.0812 C136.4507,175.9722 135.7277,176.6952 134.8367,176.6952 C133.9447,176.6952 133.2217,175.9722 133.2217,175.0812 C133.2217,174.1892 133.9447,173.4672 134.8367,173.4672 C135.7277,173.4672 136.4507,174.1892 136.4507,175.0812" id="Fill-110" fill="#131371"></path>
                <path d="M136.1167,171.2697 C136.1167,172.1607 135.3937,172.8837 134.5037,172.8837 C133.6117,172.8837 132.8887,172.1607 132.8887,171.2697 C132.8887,170.3777 133.6117,169.6557 134.5037,169.6557 C135.3937,169.6557 136.1167,170.3777 136.1167,171.2697" id="Fill-112" fill="#131371"></path>
                <path d="M138.0649,165.9689 C138.0649,166.8599 137.3409,167.5829 136.4509,167.5829 C135.5599,167.5829 134.8369,166.8599 134.8369,165.9689 C134.8369,165.0769 135.5599,164.3549 136.4509,164.3549 C137.3409,164.3549 138.0649,165.0769 138.0649,165.9689" id="Fill-114" fill="#131371"></path>
                <path d="M134.2837,167.2619 C134.2837,168.1529 133.5597,168.8759 132.6697,168.8759 C131.7787,168.8759 131.0557,168.1529 131.0557,167.2619 C131.0557,166.3699 131.7787,165.6479 132.6697,165.6479 C133.5597,165.6479 134.2837,166.3699 134.2837,167.2619" id="Fill-116" fill="#131371"></path>
                <path d="M140.8696,173.9152 C140.8696,174.8062 140.1456,175.5292 139.2556,175.5292 C138.3646,175.5292 137.6416,174.8062 137.6416,173.9152 C137.6416,173.0232 138.3646,172.3012 139.2556,172.3012 C140.1456,172.3012 140.8696,173.0232 140.8696,173.9152" id="Fill-118" fill="#131371"></path>
                <path d="M140.8696,169.2014 C140.8696,170.0924 140.1456,170.8154 139.2556,170.8154 C138.3646,170.8154 137.6416,170.0924 137.6416,169.2014 C137.6416,168.3094 138.3646,167.5874 139.2556,167.5874 C140.1456,167.5874 140.8696,168.3094 140.8696,169.2014" id="Fill-120" fill="#131371"></path>
                <path d="M142.4839,164.8098 C142.4839,165.7008 141.7609,166.4238 140.8699,166.4238 C139.9779,166.4238 139.2549,165.7008 139.2549,164.8098 C139.2549,163.9178 139.9779,163.1958 140.8699,163.1958 C141.7609,163.1958 142.4839,163.9178 142.4839,164.8098" id="Fill-122" fill="#131371"></path>
                <path d="M145.1187,172.884 C145.1187,173.775 144.3947,174.498 143.5037,174.498 C142.6127,174.498 141.8897,173.775 141.8897,172.884 C141.8897,171.992 142.6127,171.27 143.5037,171.27 C144.3947,171.27 145.1187,171.992 145.1187,172.884" id="Fill-124" fill="#131371"></path>
                <path d="M146.1187,168.6242 C146.1187,169.5152 145.3957,170.2382 144.5057,170.2382 C143.6137,170.2382 142.8907,169.5152 142.8907,168.6242 C142.8907,167.7322 143.6137,167.0102 144.5057,167.0102 C145.3957,167.0102 146.1187,167.7322 146.1187,168.6242" id="Fill-126" fill="#131371"></path>
                <path d="M146.1187,163.1974 C146.1187,164.0884 145.3957,164.8114 144.5057,164.8114 C143.6137,164.8114 142.8907,164.0884 142.8907,163.1974 C142.8907,162.3054 143.6137,161.5834 144.5057,161.5834 C145.3957,161.5834 146.1187,162.3054 146.1187,163.1974" id="Fill-128" fill="#131371"></path>
                <path d="M150.4517,160.2062 C150.4517,161.0972 149.7277,161.8202 148.8377,161.8202 C147.9467,161.8202 147.2237,161.0972 147.2237,160.2062 C147.2237,159.3142 147.9467,158.5922 148.8377,158.5922 C149.7277,158.5922 150.4517,159.3142 150.4517,160.2062" id="Fill-130" fill="#131371"></path>
                <path d="M154.3081,170.4299 C154.3081,171.3209 153.5851,172.0439 152.6951,172.0439 C151.8031,172.0439 151.0801,171.3209 151.0801,170.4299 C151.0801,169.5379 151.8031,168.8159 152.6951,168.8159 C153.5851,168.8159 154.3081,169.5379 154.3081,170.4299" id="Fill-132" fill="#131371"></path>
                <path d="M155.3374,166.1652 C155.3374,167.0562 154.6144,167.7792 153.7234,167.7792 C152.8314,167.7792 152.1084,167.0562 152.1084,166.1652 C152.1084,165.2732 152.8314,164.5512 153.7234,164.5512 C154.6144,164.5512 155.3374,165.2732 155.3374,166.1652" id="Fill-134" fill="#131371"></path>
                <path d="M150.4517,167.7853 C150.4517,168.6763 149.7277,169.3993 148.8377,169.3993 C147.9467,169.3993 147.2237,168.6763 147.2237,167.7853 C147.2237,166.8933 147.9467,166.1713 148.8377,166.1713 C149.7277,166.1713 150.4517,166.8933 150.4517,167.7853" id="Fill-136" fill="#131371"></path>
                <path d="M154.3081,161.8205 C154.3081,162.7115 153.5851,163.4345 152.6951,163.4345 C151.8031,163.4345 151.0801,162.7115 151.0801,161.8205 C151.0801,160.9285 151.8031,160.2065 152.6951,160.2065 C153.5851,160.2065 154.3081,160.9285 154.3081,161.8205" id="Fill-138" fill="#131371"></path>
                <path d="M150.4507,164.0334 C150.4507,164.9244 149.7277,165.6474 148.8377,165.6474 C147.9457,165.6474 147.2227,164.9244 147.2227,164.0334 C147.2227,163.1414 147.9457,162.4194 148.8377,162.4194 C149.7277,162.4194 150.4507,163.1414 150.4507,164.0334" id="Fill-140" fill="#131371"></path>
                <path d="M159.0659,170.8156 C159.0659,171.7066 158.3419,172.4296 157.4509,172.4296 C156.5599,172.4296 155.8369,171.7066 155.8369,170.8156 C155.8369,169.9236 156.5599,169.2016 157.4509,169.2016 C158.3419,169.2016 159.0659,169.9236 159.0659,170.8156" id="Fill-142" fill="#131371"></path>
                <path d="M159.6714,167.2014 C159.6714,168.0924 158.9474,168.8154 158.0564,168.8154 C157.1654,168.8154 156.4424,168.0924 156.4424,167.2014 C156.4424,166.3094 157.1654,165.5874 158.0564,165.5874 C158.9474,165.5874 159.6714,166.3094 159.6714,167.2014" id="Fill-144" fill="#131371"></path>
                <path d="M159.0659,162.9387 C159.0659,163.8297 158.3419,164.5527 157.4509,164.5527 C156.5599,164.5527 155.8369,163.8297 155.8369,162.9387 C155.8369,162.0467 156.5599,161.3247 157.4509,161.3247 C158.3419,161.3247 159.0659,162.0467 159.0659,162.9387" id="Fill-146" fill="#131371"></path>
                <path d="M162.8989,173.467 C162.8989,174.358 162.1749,175.081 161.2849,175.081 C160.3939,175.081 159.6709,174.358 159.6709,173.467 C159.6709,172.575 160.3939,171.853 161.2849,171.853 C162.1749,171.853 162.8989,172.575 162.8989,173.467" id="Fill-148" fill="#131371"></path>
                <path d="M164.5132,169.6555 C164.5132,170.5465 163.7902,171.2695 162.8992,171.2695 C162.0072,171.2695 161.2842,170.5465 161.2842,169.6555 C161.2842,168.7635 162.0072,168.0415 162.8992,168.0415 C163.7902,168.0415 164.5132,168.7635 164.5132,169.6555" id="Fill-150" fill="#131371"></path>
                <path d="M163.2632,165.6496 C163.2632,166.5406 162.5402,167.2636 161.6492,167.2636 C160.7572,167.2636 160.0342,166.5406 160.0342,165.6496 C160.0342,164.7576 160.7572,164.0356 161.6492,164.0356 C162.5402,164.0356 163.2632,164.7576 163.2632,165.6496" id="Fill-152" fill="#131371"></path>
                <path d="M149.7007,171.8527 C149.7007,172.7437 148.9777,173.4667 148.0877,173.4667 C147.1957,173.4667 146.4727,172.7437 146.4727,171.8527 C146.4727,170.9607 147.1957,170.2387 148.0877,170.2387 C148.9777,170.2387 149.7007,170.9607 149.7007,171.8527" id="Fill-154" fill="#131371"></path>
                <path d="M115.2134,171.2697 C115.2134,172.1607 114.4904,172.8837 113.5994,172.8837 C112.7084,172.8837 111.9854,172.1607 111.9854,171.2697 C111.9854,170.3777 112.7084,169.6557 113.5994,169.6557 C114.4904,169.6557 115.2134,170.3777 115.2134,171.2697" id="Fill-156" fill="#131371"></path>
                <path d="M116.8271,166.7824 C116.8271,167.6734 116.1041,168.3964 115.2131,168.3964 C114.3221,168.3964 113.5991,167.6734 113.5991,166.7824 C113.5991,165.8904 114.3221,165.1684 115.2131,165.1684 C116.1041,165.1684 116.8271,165.8904 116.8271,166.7824" id="Fill-158" fill="#131371"></path>
                <path d="M110.1177,174.4982 C110.1177,175.3892 109.3947,176.1122 108.5037,176.1122 C107.6127,176.1122 106.8897,175.3892 106.8897,174.4982 C106.8897,173.6062 107.6127,172.8842 108.5037,172.8842 C109.3947,172.8842 110.1177,173.6062 110.1177,174.4982" id="Fill-160" fill="#131371"></path>
                <path d="M110.9512,170.4299 C110.9512,171.3209 110.2282,172.0439 109.3372,172.0439 C108.4462,172.0439 107.7232,171.3209 107.7232,170.4299 C107.7232,169.5379 108.4462,168.8159 109.3372,168.8159 C110.2282,168.8159 110.9512,169.5379 110.9512,170.4299" id="Fill-162" fill="#131371"></path>
                <path d="M112.5649,166.1691 C112.5649,167.0601 111.8419,167.7831 110.9509,167.7831 C110.0599,167.7831 109.3369,167.0601 109.3369,166.1691 C109.3369,165.2771 110.0599,164.5551 110.9509,164.5551 C111.8419,164.5551 112.5649,165.2771 112.5649,166.1691" id="Fill-164" fill="#131371"></path>
                <path d="M105.4526,173.9152 C105.4526,174.8062 104.7296,175.5292 103.8386,175.5292 C102.9476,175.5292 102.2246,174.8062 102.2246,173.9152 C102.2246,173.0232 102.9476,172.3012 103.8386,172.3012 C104.7296,172.3012 105.4526,173.0232 105.4526,173.9152" id="Fill-166" fill="#131371"></path>
                <path d="M106.5361,169.6555 C106.5361,170.5465 105.8131,171.2695 104.9221,171.2695 C104.0311,171.2695 103.3081,170.5465 103.3081,169.6555 C103.3081,168.7635 104.0311,168.0415 104.9221,168.0415 C105.8131,168.0415 106.5361,168.7635 106.5361,169.6555" id="Fill-168" fill="#131371"></path>
                <path d="M108.1504,165.6496 C108.1504,166.5406 107.4274,167.2636 106.5364,167.2636 C105.6454,167.2636 104.9224,166.5406 104.9224,165.6496 C104.9224,164.7576 105.6454,164.0356 106.5364,164.0356 C107.4274,164.0356 108.1504,164.7576 108.1504,165.6496" id="Fill-170" fill="#131371"></path>
                <path d="M100.7842,173.467 C100.7842,174.358 100.0612,175.081 99.1702,175.081 C98.2792,175.081 97.5562,174.358 97.5562,173.467 C97.5562,172.575 98.2792,171.853 99.1702,171.853 C100.0612,171.853 100.7842,172.575 100.7842,173.467" id="Fill-172" fill="#131371"></path>
                <path d="M102.3979,169.2014 C102.3979,170.0924 101.6749,170.8154 100.7839,170.8154 C99.8929,170.8154 99.1699,170.0924 99.1699,169.2014 C99.1699,168.3094 99.8929,167.5874 100.7839,167.5874 C101.6749,167.5874 102.3979,168.3094 102.3979,169.2014" id="Fill-174" fill="#131371"></path>
                <path d="M103.8389,164.5549 C103.8389,165.4459 103.1159,166.1689 102.2249,166.1689 C101.3339,166.1689 100.6109,165.4459 100.6109,164.5549 C100.6109,163.6629 101.3339,162.9409 102.2249,162.9409 C103.1159,162.9409 103.8389,163.6629 103.8389,164.5549" id="Fill-176" fill="#131371"></path>
                <path d="M96.3677,172.884 C96.3677,173.775 95.6447,174.498 94.7537,174.498 C93.8627,174.498 93.1397,173.775 93.1397,172.884 C93.1397,171.992 93.8627,171.27 94.7537,171.27 C95.6447,171.27 96.3677,171.992 96.3677,172.884" id="Fill-178" fill="#131371"></path>
                <path d="M97.3984,168.8156 C97.3984,169.7066 96.6754,170.4296 95.7844,170.4296 C94.8934,170.4296 94.1704,169.7066 94.1704,168.8156 C94.1704,167.9236 94.8934,167.2016 95.7844,167.2016 C96.6754,167.2016 97.3984,167.9236 97.3984,168.8156" id="Fill-180" fill="#131371"></path>
                <path d="M93.7314,165.1662 C93.7314,166.0572 93.0084,166.7802 92.1174,166.7802 C91.2264,166.7802 90.5034,166.0572 90.5034,165.1662 C90.5034,164.2742 91.2264,163.5522 92.1174,163.5522 C93.0084,163.5522 93.7314,164.2742 93.7314,165.1662" id="Fill-182" fill="#131371"></path>
                <path d="M98.4507,164.0353 C98.4507,164.9263 97.7277,165.6493 96.8367,165.6493 C95.9457,165.6493 95.2227,164.9263 95.2227,164.0353 C95.2227,163.1433 95.9457,162.4213 96.8367,162.4213 C97.7277,162.4213 98.4507,163.1433 98.4507,164.0353" id="Fill-184" fill="#131371"></path>
                <path d="M92.1177,173.9152 C92.1177,174.8062 91.3947,175.5292 90.5037,175.5292 C89.6127,175.5292 88.8897,174.8062 88.8897,173.9152 C88.8897,173.0232 89.6127,172.3012 90.5037,172.3012 C91.3947,172.3012 92.1177,173.0232 92.1177,173.9152" id="Fill-186" fill="#131371"></path>
                <path d="M88.7124,167.7814 C88.7124,168.6724 87.9894,169.3954 87.0984,169.3954 C86.2074,169.3954 85.4844,168.6724 85.4844,167.7814 C85.4844,166.8894 86.2074,166.1674 87.0984,166.1674 C87.9894,166.1674 88.7124,166.8894 88.7124,167.7814" id="Fill-188" fill="#131371"></path>
                <path d="M92.731,169.3937 C92.731,170.2847 92.008,171.0077 91.117,171.0077 C90.226,171.0077 89.503,170.2847 89.503,169.3937 C89.503,168.5017 90.226,167.7797 91.117,167.7797 C92.008,167.7797 92.731,168.5017 92.731,169.3937" id="Fill-190" fill="#131371"></path>
                <path d="M88.0991,172.301 C88.0991,173.192 87.3761,173.915 86.4851,173.915 C85.5941,173.915 84.8711,173.192 84.8711,172.301 C84.8711,171.409 85.5941,170.687 86.4851,170.687 C87.3761,170.687 88.0991,171.409 88.0991,172.301" id="Fill-192" fill="#131371"></path>
                <path d="M124.6606,165.4094 C122.0616,165.4094 120.6476,164.4304 119.2746,163.4804 C118.7106,163.0904 118.1276,162.6864 117.4006,162.3064 C116.5236,161.8464 115.6576,161.7854 114.4596,161.6984 C112.6696,161.5694 110.4416,161.4094 107.5886,159.7674 C106.0846,158.9024 105.0856,157.6004 104.6996,156.0054 C103.8666,152.5664 106.1436,148.9064 106.4056,148.5004 C107.0056,147.5734 108.2446,147.3074 109.1706,147.9064 C110.0976,148.5044 110.3636,149.7394 109.7686,150.6664 C109.3456,151.3314 108.2196,153.5664 108.5886,155.0714 C108.7186,155.5994 109.0256,155.9794 109.5836,156.3014 C111.6426,157.4854 113.1506,157.5944 114.7466,157.7094 C116.1696,157.8114 117.6406,157.9174 119.2556,158.7634 C120.2006,159.2574 120.9176,159.7534 121.5506,160.1914 C122.8946,161.1204 123.5136,161.5454 125.3566,161.3764 C128.4846,161.0894 129.4896,160.3504 130.6876,158.6954 C132.3756,156.3594 135.9826,155.3174 137.3096,155.0034 C137.8806,154.5444 138.8246,153.5664 138.8726,152.4894 C138.9286,151.2234 137.7126,149.9714 136.6826,149.1424 C135.8226,148.4504 135.6856,147.1914 136.3786,146.3304 C137.0726,145.4704 138.3306,145.3344 139.1906,146.0264 C141.7516,148.0864 142.9886,150.3344 142.8666,152.7084 C142.6866,156.2104 139.5896,158.3154 139.2366,158.5454 L138.9116,158.7554 L138.5316,158.8294 C137.0766,159.1184 134.6826,159.9964 133.9296,161.0394 C131.9146,163.8244 129.6896,164.9954 125.7226,165.3584 C125.3476,165.3934 124.9946,165.4094 124.6606,165.4094" id="Fill-194" fill="#131371"></path>
                <path d="M130.0698,252.5568 C125.7768,252.5568 121.9258,250.4408 119.8298,248.6238 C118.9948,247.9008 118.9048,246.6378 119.6278,245.8028 C120.3478,244.9688 121.6088,244.8768 122.4438,245.5968 C122.7558,245.8628 130.1198,252.0258 136.5558,245.6878 C137.3428,244.9128 138.6088,244.9218 139.3838,245.7088 C140.1598,246.4958 140.1498,247.7618 139.3628,248.5368 C136.3538,251.5008 133.1018,252.5568 130.0698,252.5568" id="Fill-196" fill="#131371"></path>
                <path d="M50.9756,196.4982 C50.0676,196.4982 49.2456,195.8762 49.0296,194.9532 C48.2686,191.6952 47.6036,188.4042 47.0546,185.1702 C46.8696,184.0812 47.6026,183.0482 48.6916,182.8632 C49.7796,182.6752 50.8126,183.4112 50.9976,184.5002 C51.5336,187.6532 52.1826,190.8642 52.9256,194.0432 C53.1766,195.1182 52.5086,196.1942 51.4326,196.4452 C51.2796,196.4812 51.1266,196.4982 50.9756,196.4982" id="Fill-198" fill="#131371"></path>
                <path d="M47.6616,176.8508 C46.6486,176.8508 45.7796,176.0838 45.6746,175.0548 C45.4646,173.0088 45.2966,170.9408 45.1736,168.9058 C44.3736,155.6178 44.5376,142.5798 45.6746,129.0468 C45.7666,127.9458 46.7366,127.1318 47.8356,127.2208 C48.9356,127.3138 49.7536,128.2808 49.6616,129.3818 C48.5396,142.7208 48.3776,155.5708 49.1666,168.6648 C49.2866,170.6448 49.4496,172.6578 49.6536,174.6468 C49.7656,175.7468 48.9666,176.7278 47.8676,176.8398 C47.7986,176.8478 47.7296,176.8508 47.6616,176.8508" id="Fill-200" fill="#131371"></path>
                <path d="M49.1611,117.1154 C49.0781,117.1154 48.9941,117.1104 48.9101,117.0994 C47.8131,116.9624 47.0361,115.9624 47.1741,114.8664 C47.8551,109.4434 48.6991,103.5904 49.8291,96.4444 C50.0031,95.3534 51.0271,94.6114 52.1181,94.7814 C53.2091,94.9544 53.9531,95.9784 53.7811,97.0694 C52.6561,104.1724 51.8181,109.9854 51.1431,115.3644 C51.0161,116.3764 50.1551,117.1154 49.1611,117.1154" id="Fill-202" fill="#131371"></path>
                <path d="M53.8037,86.4733 C53.6957,86.4733 53.5867,86.4643 53.4757,86.4463 C52.3867,86.2663 51.6487,85.2373 51.8277,84.1473 C52.1637,82.1073 52.4677,80.0443 52.7747,77.9593 C53.3397,74.1223 53.9237,70.1553 54.7407,66.1363 C57.0817,54.6173 62.5937,39.2893 75.5577,31.6843 C83.4657,27.0453 90.3577,27.5203 90.6477,27.5403 C91.7487,27.6253 92.5727,28.5873 92.4877,29.6883 C92.4027,30.7873 91.4507,31.6063 90.3457,31.5293 C89.3267,31.4543 66.1077,30.2913 58.6597,66.9323 C57.8647,70.8453 57.2887,74.7583 56.7317,78.5423 C56.4217,80.6493 56.1147,82.7353 55.7747,84.7983 C55.6137,85.7783 54.7647,86.4733 53.8037,86.4733" id="Fill-204" fill="#131371"></path>
                <path d="M179.2144,244.8879 C178.7024,244.8879 178.1914,244.6929 177.8004,244.3019 C177.0194,243.5209 177.0194,242.2549 177.8004,241.4739 L194.6284,224.6479 C195.4094,223.8669 196.6754,223.8669 197.4564,224.6479 C198.2374,225.4289 198.2374,226.6949 197.4564,227.4759 L180.6284,244.3019 C180.2374,244.6929 179.7264,244.8879 179.2144,244.8879" id="Fill-206" fill="#131371"></path>
                <path d="M177.6226,237.0226 C177.1106,237.0226 176.5996,236.8276 176.2086,236.4366 C175.4276,235.6556 175.4276,234.3896 176.2086,233.6086 L197.4606,212.3566 C198.2416,211.5756 199.5076,211.5756 200.2886,212.3566 C201.0696,213.1376 201.0696,214.4036 200.2886,215.1846 L179.0366,236.4366 C178.6456,236.8276 178.1346,237.0226 177.6226,237.0226" id="Fill-208" fill="#131371"></path>
                <path d="M174.8296,229.4543 C174.3176,229.4543 173.8066,229.2593 173.4156,228.8683 C172.6346,228.0873 172.6346,226.8213 173.4156,226.0403 L200.4236,199.0323 C201.2046,198.2513 202.4706,198.2513 203.2516,199.0323 C204.0326,199.8133 204.0326,201.0793 203.2516,201.8603 L176.2436,228.8683 C175.8526,229.2593 175.3416,229.4543 174.8296,229.4543" id="Fill-210" fill="#131371"></path>
                <path d="M173.9741,219.4943 C173.4621,219.4943 172.9511,219.2993 172.5601,218.9083 C171.7791,218.1273 171.7791,216.8613 172.5601,216.0803 L189.8591,198.7813 C190.6401,198.0003 191.9061,198.0003 192.6871,198.7813 C193.4681,199.5623 193.4681,200.8283 192.6871,201.6093 L175.3881,218.9083 C174.9971,219.2993 174.4861,219.4943 173.9741,219.4943" id="Fill-212" fill="#131371"></path>
                <path d="M173.9741,208.5519 C173.4621,208.5519 172.9511,208.3569 172.5601,207.9659 C171.7791,207.1849 171.7791,205.9189 172.5601,205.1379 L192.7571,184.9419 C193.5381,184.1599 194.8041,184.1599 195.5851,184.9419 C196.3671,185.7229 196.3671,186.9889 195.5851,187.7699 L175.3881,207.9659 C174.9971,208.3569 174.4861,208.5519 173.9741,208.5519" id="Fill-214" fill="#131371"></path>
                <path d="M177.0132,195.5695 C176.5012,195.5695 175.9902,195.3745 175.5992,194.9835 C174.8182,194.2025 174.8182,192.9365 175.5992,192.1555 L189.8592,177.8955 C190.6402,177.1145 191.9062,177.1145 192.6872,177.8955 C193.4682,178.6765 193.4682,179.9425 192.6872,180.7235 L178.4272,194.9835 C178.0362,195.3745 177.5252,195.5695 177.0132,195.5695" id="Fill-216" fill="#131371"></path>
                <path d="M70.5874,94.2692 C70.4794,94.2692 70.3694,94.2602 70.2584,94.2422 C69.1694,94.0612 68.4314,93.0322 68.6114,91.9422 C70.3674,81.3292 72.2584,72.1092 73.8774,64.4912 C75.4444,57.1142 78.3314,51.1902 82.4554,46.8812 C83.2194,46.0842 84.4854,46.0552 85.2834,46.8202 C86.0814,47.5842 86.1084,48.8502 85.3454,49.6482 C81.7424,53.4112 79.2004,58.6842 77.7904,65.3222 C76.1804,72.8972 74.3004,82.0612 72.5584,92.5952 C72.3964,93.5742 71.5484,94.2692 70.5874,94.2692" id="Fill-218" fill="#131371"></path>
                <path d="M98.0425,295.1799 C98.0935,295.1809 98.1475,295.1809 98.2065,295.1809 C101.8475,295.1809 112.8275,292.8839 120.4615,282.4899 L120.4615,270.8209 C112.1075,265.2009 99.7225,257.7519 96.6575,257.7519 C95.3035,257.8539 92.9585,263.9249 93.2105,278.0979 C93.3255,284.4979 96.5275,293.6049 98.0425,295.1799 M98.2075,299.1809 L98.2065,299.1809 C97.7835,299.1809 97.4315,299.1569 97.1325,299.1069 C92.7595,298.3779 89.3165,284.0379 89.2115,278.1699 C89.0175,267.2999 90.0915,254.2429 96.3085,253.7649 C96.4195,253.7559 96.5365,253.7519 96.6575,253.7519 C102.2115,253.7519 120.0635,265.7079 123.5865,268.1059 L124.4615,268.7009 L124.4615,283.7689 L124.0955,284.2869 C115.4715,296.5049 102.4845,299.1809 98.2075,299.1809" id="Fill-220" fill="#131371"></path>
                <path d="M137.7241,283.1838 C145.3571,293.5778 156.3371,295.8748 159.9791,295.8748 C160.0371,295.8748 160.0921,295.8748 160.1431,295.8738 C161.6581,294.2988 164.8601,285.1928 164.9741,278.7918 C165.2271,264.6198 162.8821,258.5478 161.5711,258.4478 L161.5701,258.4478 C158.4621,258.4478 146.0781,265.8958 137.7241,271.5148 L137.7241,283.1838 Z M159.9791,299.8748 C155.7031,299.8748 142.7141,297.1998 134.0901,284.9818 L133.7241,284.4628 L133.7241,269.3948 L134.5991,268.7998 C138.1211,266.4028 155.9741,254.4468 161.5281,254.4468 C161.6491,254.4468 161.7661,254.4508 161.8771,254.4588 C165.3091,254.7228 169.3261,259.1708 168.9741,278.8648 C168.8691,284.7328 165.4261,299.0728 161.0531,299.8008 C160.7531,299.8508 160.4021,299.8748 159.9791,299.8748 L159.9791,299.8748 Z" id="Fill-222" fill="#131371"></path>
                <path d="M102.4966,309.507 L100.8176,307.777 C100.1426,307.08 84.2096,290.462 78.7266,268.026 C76.6366,259.47 73.3496,244.704 74.8226,241.945 L82.2646,226.666 L83.9186,230.944 C84.0166,231.192 94.1686,256.199 129.9686,265.954 C131.0346,266.244 131.6626,267.344 131.3726,268.409 C131.0826,269.475 129.9836,270.105 128.9176,269.814 C99.2866,261.739 86.4466,244.046 82.0626,236.213 L78.4746,243.58 C78.3886,244.251 78.1306,248.733 82.6126,267.076 C86.8356,284.361 97.8916,298.361 102.0636,303.185 L109.4836,292.679 C110.1206,291.778 111.3686,291.562 112.2716,292.198 C113.1736,292.836 113.3886,294.084 112.7516,294.986 L102.4966,309.507 Z" id="Fill-224" fill="#131371"></path>
                <path d="M128.3511,270.5783 C126.1831,270.5783 124.4181,271.9843 124.4181,273.7143 L124.4181,282.9163 C124.4181,284.6453 126.1831,286.0523 128.3511,286.0523 C130.5201,286.0523 132.2851,284.6453 132.2851,282.9163 L132.2851,273.7143 C132.2851,271.9843 130.5201,270.5783 128.3511,270.5783 M128.3511,290.0523 C123.9771,290.0523 120.4181,286.8503 120.4181,282.9163 L120.4181,273.7143 C120.4181,269.7793 123.9771,266.5783 128.3511,266.5783 C132.7261,266.5783 136.2851,269.7793 136.2851,273.7143 L136.2851,282.9163 C136.2851,286.8503 132.7261,290.0523 128.3511,290.0523" id="Fill-226" fill="#131371"></path>
                <path d="M128.3491,270.5783 C127.3191,270.5783 126.4451,269.7883 126.3581,268.7443 C126.2661,267.6433 127.0841,266.6773 128.1851,266.5853 C151.3041,264.6603 172.9621,232.8593 173.1781,232.5383 C173.7931,231.6233 175.0371,231.3793 175.9541,231.9963 C176.8701,232.6133 177.1141,233.8553 176.4961,234.7723 C176.2661,235.1143 170.7501,243.2603 162.1291,251.7793 C150.4021,263.3683 139.0931,269.6903 128.5171,270.5713 C128.4601,270.5763 128.4051,270.5783 128.3491,270.5783" id="Fill-228" fill="#131371"></path>
                <path d="M154.4263,311.466 L139.2583,290.793 C138.6053,289.903 138.7973,288.651 139.6873,287.997 C140.5793,287.343 141.8293,287.537 142.4833,288.426 L154.7963,305.209 C158.9473,300.41 170.0513,286.363 174.2793,269.067 C174.8953,266.542 175.4533,264.153 175.9373,261.964 C176.1763,260.884 177.2463,260.203 178.3223,260.443 C179.4013,260.682 180.0813,261.749 179.8433,262.827 C179.3523,265.045 178.7873,267.463 178.1633,270.016 C172.6813,292.452 156.7493,309.07 156.0733,309.767 L154.4263,311.466 Z" id="Fill-230" fill="#131371"></path>
                <path d="M50.0278,256.05 C49.2498,256.05 48.5098,255.593 48.1868,254.832 C47.7538,253.816 48.2278,252.641 49.2438,252.208 L75.4828,241.047 C76.4988,240.615 77.6738,241.088 78.1058,242.105 C78.5378,243.121 78.0648,244.296 77.0478,244.729 L50.8098,255.89 C50.5538,255.998 50.2888,256.05 50.0278,256.05" id="Fill-232" fill="#131371"></path>
                <path d="M2.0015,285.6945 C1.2235,285.6945 0.4835,285.2375 0.1605,284.4765 C-0.2725,283.4605 0.2015,282.2855 1.2175,281.8525 L67.3655,253.7145 C68.3825,253.2825 69.5565,253.7555 69.9885,254.7715 C70.4215,255.7885 69.9475,256.9635 68.9315,257.3955 L2.7835,285.5345 C2.5275,285.6425 2.2625,285.6945 2.0015,285.6945" id="Fill-234" fill="#131371"></path>
            </g>
        </g>
    </g>
</svg>