<?xml version="1.0" encoding="UTF-8"?>
<svg width="259px" height="302px" viewBox="0 0 259 302" version="1.1" xmlns="http://www.w3.org/2000/svg" xmlns:xlink="http://www.w3.org/1999/xlink">
    <!-- Generator: Sketch 49.3 (51167) - http://www.bohemiancoding.com/sketch -->
    <title>2</title>
    <desc>Created with Sketch.</desc>
    <defs></defs>
    <g id="Page-1" stroke="none" stroke-width="1" fill="none" fill-rule="evenodd">
        <g id="Artboard" transform="translate(-712.000000, -3186.000000)" fill="#131371">
            <g id="2" transform="translate(712.000000, 3186.000000)">
                <path d="M60.811,137 L60.777,137 C59.672,136.981 58.792,136.07 58.811,134.966 C59.166,113.983 65.616,106.803 80.249,95.421 C88.925,88.673 94.991,81.702 98.553,77.042 C99.223,76.164 100.478,75.996 101.356,76.667 C102.233,77.337 102.401,78.593 101.73,79.47 C98.026,84.318 91.718,91.568 82.706,98.579 C67.571,110.351 63.123,116.563 62.81,135.034 C62.792,136.126 61.9,137 60.811,137" id="Fill-1"></path>
                <path d="M119.5537,76.6133 C113.8517,76.6133 106.6357,74.7723 98.0287,68.9913 C97.1117,68.3753 96.8677,67.1333 97.4837,66.2163 C98.0987,65.2983 99.3427,65.0543 100.2597,65.6713 C112.6107,73.9663 121.4747,73.3303 126.7367,71.3373 C131.9737,69.3513 135.0997,65.4593 135.8757,62.4823 C136.4587,60.2423 137.6077,58.6573 139.2917,57.7713 C142.7757,55.9373 147.5207,57.6513 152.1117,59.3083 C153.6087,59.8493 155.0227,60.3603 156.3607,60.7423 C161.7167,62.2743 165.2407,55.9763 165.3877,55.7073 C165.9187,54.7403 167.1357,54.3843 168.0997,54.9123 C169.0677,55.4393 169.4277,56.6483 168.9027,57.6173 C167.1387,60.8733 162.0167,66.5203 155.2617,64.5883 C153.7927,64.1683 152.2477,63.6103 150.7527,63.0703 C147.1537,61.7703 143.0747,60.2973 141.1547,61.3103 C140.9147,61.4373 140.1797,61.8233 139.7467,63.4903 C138.7877,67.1723 135.1767,72.4153 128.1537,75.0773 C125.8507,75.9503 122.9737,76.6133 119.5537,76.6133" id="Fill-3"></path>
                <path d="M197.812,130.6665 L197.771,130.6665 C196.667,130.6445 195.79,129.7305 195.811,128.6265 C195.815,128.4705 196.045,112.9105 189.916,105.2495 C184.29,98.2165 181.225,86.7525 180.22,82.4235 C175.709,82.3925 171.561,80.1705 168.13,75.9225 C165.329,72.4555 163.989,68.8395 163.933,68.6875 C163.553,67.6495 164.086,66.5015 165.124,66.1215 C166.159,65.7425 167.309,66.2745 167.689,67.3115 C167.759,67.5005 172.307,79.4625 181.571,78.3475 L183.416,78.1245 L183.774,79.9485 C183.803,80.0975 186.763,94.9055 193.039,102.7505 C200.078,111.5485 199.825,128.0115 199.811,128.7075 C199.789,129.7985 198.897,130.6665 197.812,130.6665" id="Fill-5"></path>
                <path d="M204.146,109.9824 C204.082,109.9824 204.015,109.9794 203.949,109.9724 C202.85,109.8654 202.046,108.8864 202.154,107.7874 C202.203,107.2864 206.848,57.4704 189.015,38.3644 L188.556,37.8724 C170.188,18.1904 163.315,10.8264 145.131,7.6364 C138.174,6.4154 131.901,7.6254 125.836,8.7954 C115.806,10.7304 105.435,12.7324 92.651,3.6304 C91.751,2.9894 91.541,1.7404 92.181,0.8414 C92.822,-0.0596 94.071,-0.2696 94.97,0.3714 C106.359,8.4794 115.033,6.8064 125.078,4.8684 C131.498,3.6294 138.134,2.3484 145.823,3.6974 C165.326,7.1184 172.982,15.3224 191.48,35.1434 L191.939,35.6354 C200.001,44.2734 204.835,59.1484 206.306,79.8494 C207.389,95.0884 206.186,107.6504 206.134,108.1774 C206.033,109.2104 205.163,109.9824 204.146,109.9824" id="Fill-7"></path>
                <path d="M45.6387,40.9883 C44.0437,40.9883 42.6857,40.6743 41.5827,40.1223 C40.5957,39.6293 40.1947,38.4273 40.6887,37.4393 C41.1827,36.4513 42.3847,36.0503 43.3717,36.5453 C43.6747,36.6963 50.9627,40.0713 66.3787,24.2703 C80.1797,10.1243 96.2237,10.6393 96.8957,10.6693 C97.9987,10.7163 98.8557,11.6483 98.8087,12.7523 C98.7627,13.8543 97.8267,14.6953 96.7287,14.6653 C96.5057,14.6623 81.7127,14.2813 69.2427,27.0633 C59.1987,37.3593 51.0567,40.9883 45.6387,40.9883" id="Fill-9"></path>
                <path d="M53.4756,118.665 C52.6386,118.665 51.8596,118.136 51.5796,117.298 C51.3026,116.465 44.8336,96.332 49.4866,47.144 C49.5906,46.044 50.5556,45.235 51.6656,45.342 C52.7656,45.446 53.5726,46.422 53.4686,47.521 C48.9126,95.694 55.3106,115.839 55.3756,116.037 C55.7216,117.085 55.1536,118.216 54.1056,118.563 C53.8966,118.632 53.6846,118.665 53.4756,118.665" id="Fill-11"></path>
                <path d="M149.2837,114.6665 C148.6127,114.6665 147.9567,114.3285 147.5787,113.7145 C146.9997,112.7745 147.2927,111.5425 148.2327,110.9625 C148.8367,110.5915 163.2907,101.8895 186.7107,104.6415 C187.8077,104.7705 188.5927,105.7645 188.4637,106.8615 C188.3347,107.9585 187.3367,108.7425 186.2437,108.6145 C164.1877,106.0195 150.4667,114.2845 150.3307,114.3695 C150.0037,114.5705 149.6407,114.6665 149.2837,114.6665" id="Fill-13"></path>
                <path d="M118.478,118.666 C117.934,118.666 117.391,118.445 116.996,118.01 C116.415,117.374 102.829,102.911 79.144,111.273 C78.103,111.642 76.959,111.095 76.592,110.054 C76.224,109.012 76.77,107.87 77.811,107.502 C91.509,102.666 102.206,105.013 108.768,107.835 C115.919,110.91 119.799,115.146 119.961,115.325 C120.702,116.144 120.638,117.409 119.819,118.149 C119.436,118.496 118.957,118.666 118.478,118.666" id="Fill-15"></path>
                <path d="M114.938,188.4658 C113.753,188.4658 112.719,188.4208 111.896,188.3188 C106.142,187.5998 101.533,184.4448 101.339,184.3118 C100.431,183.6828 100.205,182.4368 100.834,181.5288 C101.462,180.6218 102.705,180.3938 103.614,181.0208 C103.653,181.0478 107.639,183.7558 112.393,184.3498 C116.434,184.8518 127.448,183.6638 134.028,182.9538 C135.75,182.7678 137.226,182.6088 138.292,182.5088 C140.044,182.3428 142.577,182.3958 145.508,182.4548 C150.905,182.5648 159.059,182.7308 161.278,181.0678 C162.165,180.4028 163.417,180.5848 164.078,181.4668 C164.741,182.3508 164.562,183.6048 163.678,184.2668 C160.601,186.5738 153.887,186.6288 145.427,186.4538 C142.736,186.3988 140.192,186.3468 138.665,186.4908 C137.613,186.5898 136.158,186.7468 134.458,186.9308 C128.58,187.5658 120.246,188.4658 114.938,188.4658" id="Fill-17"></path>
                <path d="M136.729,199.4775 C129.67,199.4775 122.829,198.0485 122.396,197.9565 C121.315,197.7265 120.626,196.6645 120.855,195.5835 C121.085,194.5045 122.149,193.8115 123.227,194.0435 C123.378,194.0755 138.381,197.2045 145.708,194.1545 C146.731,193.7265 147.9,194.2115 148.324,195.2305 C148.749,196.2495 148.267,197.4205 147.248,197.8455 C144.303,199.0735 140.485,199.4775 136.729,199.4775" id="Fill-19"></path>
                <path d="M126.6475,225.3418 C126.2495,225.3418 125.8525,225.3388 125.4525,225.3338 C99.7155,224.9998 74.6565,200.8158 67.8595,187.3708 C61.5925,174.9778 58.9295,147.3578 58.8195,146.1878 C58.7155,145.0878 59.5225,144.1128 60.6225,144.0088 C61.7135,143.9018 62.6975,144.7118 62.8015,145.8128 C62.8285,146.0908 65.5035,173.8478 71.4285,185.5668 C77.8345,198.2348 101.3815,221.0218 125.5035,221.3338 C147.8915,221.6188 166.5955,213.3808 178.2205,198.1218 C188.4165,184.7388 192.7765,137.9568 192.8185,137.4858 C192.9195,136.3858 193.8925,135.5708 194.9915,135.6748 C196.0925,135.7758 196.9025,136.7478 196.8035,137.8478 C196.6235,139.8178 192.2925,186.2528 181.4015,200.5458 C169.1995,216.5628 149.7875,225.3418 126.6475,225.3418" id="Fill-21"></path>
                <path d="M56.3022,166.3408 C48.3312,166.3418 43.8792,144.3778 42.6932,137.5688 C41.1432,128.6758 39.3322,113.5388 44.6092,112.0728 C52.0672,110.0048 57.3892,125.0148 58.3792,128.0468 C58.7222,129.0958 58.1492,130.2248 57.0992,130.5678 C56.0512,130.9098 54.9202,130.3388 54.5772,129.2888 C52.3892,122.6048 48.3642,115.6138 45.8752,115.8898 C43.4992,119.2678 46.6492,145.5868 52.6422,157.8098 C54.4392,161.4748 55.8432,162.3388 56.3302,162.3398 C57.4302,162.2448 58.3902,163.0848 58.4722,164.1868 C58.5542,165.2878 57.7272,166.2468 56.6262,166.3278 C56.5172,166.3368 56.4092,166.3408 56.3022,166.3408" id="Fill-23"></path>
                <path d="M119.813,132.667 C119.198,132.667 118.591,132.384 118.199,131.85 C118.077,131.686 111.077,122.393 100.859,121.586 C94.508,121.083 88.119,123.946 81.879,130.092 C81.092,130.868 79.825,130.858 79.051,130.07 C78.276,129.284 78.286,128.017 79.073,127.242 C86.186,120.235 93.631,116.993 101.209,117.602 C113.302,118.575 121.099,129.04 121.425,129.485 C122.078,130.376 121.884,131.627 120.994,132.28 C120.637,132.542 120.223,132.667 119.813,132.667" id="Fill-25"></path>
                <path d="M149.2798,132.6675 C148.9828,132.6675 148.6798,132.6005 148.3948,132.4595 C147.4048,131.9705 146.9998,130.7705 147.4888,129.7805 C147.7358,129.2825 153.6518,117.5475 164.6688,115.1565 C171.1438,113.7525 177.8968,115.8685 184.7418,121.4505 C185.5978,122.1475 185.7258,123.4075 185.0278,124.2635 C184.3308,125.1205 183.0708,125.2485 182.2148,124.5495 C176.3598,119.7775 170.7418,117.9325 165.5168,119.0655 C156.3618,121.0525 151.1268,131.4485 151.0748,131.5535 C150.7258,132.2585 150.0168,132.6675 149.2798,132.6675" id="Fill-27"></path>
                <path d="M111.1445,126.832 C111.1445,132.447 106.5925,136.999 100.9775,136.999 C95.3635,136.999 90.8115,132.447 90.8115,126.832 C90.8115,124.127 91.8685,121.668 93.5915,119.847 C95.4445,117.889 107.8415,118.598 109.6325,121.496 C110.5915,123.047 111.1445,124.875 111.1445,126.832" id="Fill-29"></path>
                <path d="M177.395,123.1025 C177.395,128.1765 173.282,132.2905 168.207,132.2905 C163.133,132.2905 159.02,128.1765 159.02,123.1025 C159.02,121.3825 159.493,119.7745 160.315,118.3985 C161.918,115.7125 173.633,115.2275 175.319,117.2855 C176.616,118.8695 177.395,120.8945 177.395,123.1025" id="Fill-31"></path>
                <path d="M125.1733,168.7109 L125.1523,168.7109 C121.7603,168.6749 119.3793,167.5709 118.0743,165.4289 C115.6063,161.3759 118.4363,155.4919 118.7673,154.8339 C119.2643,153.8479 120.4663,153.4489 121.4533,153.9469 C122.4393,154.4419 122.8363,155.6439 122.3423,156.6299 C121.7643,157.7899 120.3683,161.5139 121.4923,163.3519 C122.0323,164.2329 123.2773,164.6899 125.1943,164.7109 C126.2983,164.7229 127.1843,165.6279 127.1733,166.7319 C127.1613,167.8289 126.2683,168.7109 125.1733,168.7109" id="Fill-33"></path>
                <path d="M144.5317,168.6035 C143.6107,168.6035 142.7827,167.9645 142.5797,167.0285 C142.3437,165.9495 143.0297,164.8835 144.1087,164.6495 C146.1867,164.1975 147.5187,163.3455 148.0677,162.1195 C149.0177,159.9955 147.6997,156.8135 147.1627,155.8675 C146.6187,154.9065 146.9557,153.6855 147.9167,153.1405 C148.8787,152.5975 150.0987,152.9345 150.6427,153.8945 C150.9567,154.4485 153.6527,159.4285 151.7187,163.7525 C150.6227,166.2045 148.3477,167.8215 144.9587,168.5575 C144.8157,168.5885 144.6727,168.6035 144.5317,168.6035" id="Fill-35"></path>
                <path d="M197.8149,162.416 C197.1769,162.416 196.5509,162.112 196.1639,161.548 C195.5389,160.637 195.7709,159.392 196.6809,158.767 C202.1699,155.001 206.3089,146.443 208.3349,134.669 C210.3149,123.15 209.4649,113.804 208.5749,111.427 C206.9179,111.917 203.8879,114.983 201.9219,117.866 C201.2989,118.778 200.0549,119.015 199.1429,118.392 C198.2309,117.769 197.9959,116.525 198.6179,115.612 C200.0429,113.523 205.0479,106.752 209.6739,107.407 C211.8479,107.713 212.4899,110.446 212.7309,111.475 C214.8699,120.579 213.4499,152.114 198.9449,162.065 C198.5979,162.303 198.2049,162.416 197.8149,162.416" id="Fill-37"></path>
                <path d="M174.3921,272.6709 C173.5121,272.6709 172.7061,272.0859 172.4631,271.1959 C167.1901,251.8589 169.3171,210.1219 169.4111,208.3549 C169.4681,207.2509 170.4231,206.4009 171.5131,206.4629 C172.6161,206.5209 173.4631,207.4619 173.4051,208.5659 C173.3821,208.9909 171.2171,251.4259 176.3231,270.1439 C176.6131,271.2089 175.9851,272.3089 174.9191,272.5999 C174.7441,272.6479 174.5661,272.6709 174.3921,272.6709" id="Fill-39"></path>
                <path d="M153.6411,287.166 C153.3211,287.166 152.9961,287.089 152.6951,286.926 C152.1711,286.644 139.5311,279.607 109.6351,245.228 C99.1481,233.169 92.0641,224.741 87.3771,219.165 C82.9211,213.864 79.9721,210.355 78.6351,209.175 C75.6691,213.96 65.0561,239.535 65.1111,243.237 C66.4401,246.004 81.7391,260.154 95.9501,272.401 C96.7871,273.122 96.8811,274.385 96.1601,275.222 C95.4381,276.058 94.1761,276.153 93.3391,275.431 C81.6601,265.366 61.9531,247.907 61.1831,244.059 C60.7591,241.936 62.8891,235.155 67.5141,223.905 C68.2051,222.222 74.3331,207.405 76.3281,205.661 C77.0251,205.05 77.7981,204.774 78.6231,204.836 C80.6901,204.994 81.9891,206.539 90.4391,216.591 C95.1181,222.157 102.1891,230.569 112.6541,242.603 C141.8841,276.218 154.4781,283.342 154.6021,283.41 C155.5671,283.94 155.9251,285.153 155.3981,286.121 C155.0351,286.787 154.3491,287.166 153.6411,287.166" id="Fill-41"></path>
                <path d="M218.8921,301.166 C218.4411,301.166 217.9871,301.014 217.6131,300.702 C216.9261,300.131 200.6321,286.366 185.8671,257.835 C170.9571,229.027 174.0491,213.634 174.1881,212.992 C174.3531,212.231 174.9461,211.635 175.7051,211.465 C176.4631,211.292 177.2561,211.58 177.7301,212.199 C178.1551,212.752 220.4861,267.645 249.3771,279.056 C250.4051,279.462 250.9091,280.623 250.5031,281.65 C250.0981,282.678 248.9381,283.181 247.9091,282.776 C235.2921,277.794 219.0981,264.79 199.7761,244.126 C190.1751,233.858 182.1511,224.153 177.8781,218.837 C178.1021,225.277 180.0261,237.848 189.4191,255.997 C203.8171,283.816 220.0111,297.495 220.1731,297.63 C221.0221,298.337 221.1361,299.598 220.4291,300.446 C220.0341,300.921 219.4651,301.166 218.8921,301.166" id="Fill-43"></path>
                <path d="M2.001,279.917 C1.175,279.917 0.402,279.401 0.113,278.577 C-0.252,277.535 0.297,276.394 1.34,276.028 C32.715,265.034 59.225,241.897 59.489,241.665 C60.32,240.934 61.583,241.016 62.312,241.845 C63.042,242.674 62.961,243.938 62.132,244.667 C61.862,244.905 34.765,268.555 2.662,279.804 C2.443,279.88 2.22,279.917 2.001,279.917" id="Fill-45"></path>
                <path d="M254.5698,242.3008 C215.8618,242.3008 180.5668,221.5148 179.0538,220.6128 C178.1058,220.0458 177.7958,218.8198 178.3608,217.8698 C178.9248,216.9218 180.1538,216.6118 181.1028,217.1768 C181.4708,217.3978 218.4378,239.1438 256.8408,238.2758 L256.8858,238.2758 C257.9698,238.2758 258.8608,239.1418 258.8838,240.2318 C258.9098,241.3348 258.0338,242.2498 256.9288,242.2758 C256.1438,242.2918 255.3528,242.3008 254.5698,242.3008" id="Fill-47"></path>
                <path d="M145.521,143.666 C144.97,143.666 144.422,143.44 144.027,142.997 C138.261,136.528 141.084,125.09 141.207,124.606 C141.479,123.536 142.565,122.889 143.638,123.16 C144.708,123.432 145.355,124.519 145.084,125.589 C145.059,125.687 142.666,135.458 147.013,140.335 C147.748,141.16 147.675,142.424 146.851,143.159 C146.469,143.499 145.995,143.666 145.521,143.666" id="Fill-49"></path>
                <path d="M59.4819,184.4648 C55.8649,184.4648 51.8199,193.2748 51.8199,205.0638 C51.8199,216.8528 55.8649,225.6618 59.4819,225.6618 C63.0989,225.6618 67.1449,216.8528 67.1449,205.0638 C67.1449,193.2748 63.0989,184.4648 59.4819,184.4648 M59.4819,229.6618 C52.8339,229.6618 47.8199,219.0868 47.8199,205.0638 C47.8199,191.0398 52.8339,180.4648 59.4819,180.4648 C66.1309,180.4648 71.1449,191.0398 71.1449,205.0638 C71.1449,219.0868 66.1309,229.6618 59.4819,229.6618" id="Fill-51"></path>
                <path d="M196.7935,181.416 C195.7625,181.713 192.8935,187.545 192.8935,198.919 C192.8935,210.191 195.7115,216.02 196.8225,216.413 C197.9345,216.02 200.7515,210.189 200.7515,198.919 C200.7515,187.547 197.8835,181.714 196.7935,181.416 M196.8225,220.419 C191.3745,220.419 188.8935,209.274 188.8935,198.919 C188.8935,188.563 191.3745,177.419 196.8225,177.419 C202.2705,177.419 204.7515,188.563 204.7515,198.919 C204.7515,209.274 202.2705,220.419 196.8225,220.419" id="Fill-53"></path>
                <path d="M59.7959,170.416 C59.3939,170.416 58.4779,171.597 58.4779,173.541 C58.4779,175.485 59.3939,176.666 59.7959,176.666 C60.1979,176.666 61.1139,175.485 61.1139,173.541 C61.1139,171.597 60.1979,170.416 59.7959,170.416 M59.7959,180.666 C56.8139,180.666 54.4779,177.536 54.4779,173.541 C54.4779,169.546 56.8139,166.416 59.7959,166.416 C62.7779,166.416 65.1139,169.546 65.1139,173.541 C65.1139,177.536 62.7779,180.666 59.7959,180.666" id="Fill-55"></path>
                <path d="M196.6187,166.417 C196.2307,166.701 195.4577,168.043 195.4577,170.253 C195.4577,172.463 196.2307,173.805 196.6187,174.09 C197.0067,173.805 197.7787,172.463 197.7787,170.253 C197.7787,168.044 197.0067,166.702 196.6187,166.417 M196.6187,178.122 C193.6767,178.122 191.4577,174.739 191.4577,170.253 C191.4577,165.768 193.6767,162.385 196.6187,162.385 C199.5597,162.385 201.7787,165.768 201.7787,170.253 C201.7787,174.739 199.5597,178.122 196.6187,178.122" id="Fill-57"></path>
                <path d="M129.6821,165.8906 C129.6821,164.5556 128.1811,163.4716 126.3291,163.4716 C124.4771,163.4716 122.9761,164.5556 122.9761,165.8906 C122.9761,167.2276 124.4771,168.3106 126.3291,168.3106 C128.1811,168.3106 129.6821,167.2276 129.6821,165.8906" id="Fill-59"></path>
                <path d="M147.9048,165.8945 C147.9048,164.5575 146.4038,163.4745 144.5518,163.4745 C142.6998,163.4745 141.1998,164.5575 141.1998,165.8945 C141.1998,167.2295 142.6998,168.3125 144.5518,168.3125 C146.4038,168.3125 147.9048,167.2295 147.9048,165.8945" id="Fill-61"></path>
                <path d="M183.481,72.6665 C183.378,72.6665 183.275,72.6585 183.171,72.6425 C179.106,72.0115 176.172,70.4785 174.451,68.0855 C172.501,65.3745 172.901,62.6325 172.953,62.3285 C173.139,61.2405 174.168,60.5105 175.262,60.6945 C176.342,60.8795 177.07,61.8985 176.9,62.9775 C176.835,63.4645 176.508,67.5605 183.785,68.6895 C184.877,68.8585 185.624,69.8815 185.455,70.9725 C185.301,71.9605 184.45,72.6665 183.481,72.6665" id="Fill-63"></path>
                <path d="M115.6563,70 C114.6123,70 113.7323,69.189 113.6623,68.132 C113.5903,67.03 114.4243,66.077 115.5263,66.004 C115.6263,65.998 125.5343,65.172 130.5803,50.034 C132.9683,42.868 137.0923,37.912 142.5053,35.702 C147.7083,33.577 153.8973,34.111 159.9323,37.205 C170.3113,42.525 171.8593,45.934 172.0863,46.853 L168.2033,47.813 C168.2033,47.813 168.2073,47.877 168.2603,47.994 C168.2483,47.968 166.9833,45.313 158.1083,40.764 C153.1263,38.21 148.1233,37.728 144.0173,39.405 C139.7173,41.161 136.3833,45.273 134.3753,51.298 C128.4893,68.958 116.3053,69.961 115.7903,69.996 C115.7453,69.999 115.7003,70 115.6563,70" id="Fill-65"></path>
                <path d="M120.582,21.2173 C118.576,21.2173 116.687,21.0393 115.11,20.5893 C114.047,20.2863 113.432,19.1793 113.735,18.1173 C114.037,17.0553 115.145,16.4383 116.207,16.7423 C121.51,18.2543 132.734,15.8083 136.613,14.7383 C137.674,14.4413 138.779,15.0693 139.073,16.1343 C139.367,17.1983 138.743,18.2993 137.678,18.5933 C137.194,18.7273 128.076,21.2173 120.582,21.2173" id="Fill-67"></path>
                <path d="M59.4814,109.9824 C58.4034,109.9824 57.5144,109.1244 57.4834,108.0394 C57.4434,106.6654 57.3114,94.5624 64.6594,92.7254 C68.5544,91.7524 78.9504,80.3184 84.5884,73.3394 C85.2814,72.4814 86.5414,72.3464 87.4004,73.0414 C88.2604,73.7344 88.3944,74.9944 87.6994,75.8534 C85.1254,79.0414 71.9594,95.0244 65.6294,96.6064 C62.2744,97.4444 61.3864,104.5944 61.4814,107.9254 C61.5134,109.0294 60.6434,109.9504 59.5394,109.9814 C59.5204,109.9824 59.5004,109.9824 59.4814,109.9824" id="Fill-69"></path>
                <path d="M61.7944,78.5986 C60.7674,78.5986 59.8934,77.8116 59.8044,76.7696 C59.7324,75.9346 58.1064,56.1846 63.2954,44.8356 C63.7544,43.8316 64.9404,43.3916 65.9464,43.8486 C66.9514,44.3086 67.3934,45.4946 66.9334,46.4996 C62.1764,56.9006 63.7734,76.2336 63.7894,76.4276 C63.8844,77.5276 63.0684,78.4966 61.9684,78.5916 C61.9094,78.5966 61.8524,78.5986 61.7944,78.5986" id="Fill-71"></path>
                <path d="M75.8091,127.0986 C75.3761,127.0986 74.9391,126.9586 74.5731,126.6696 C73.7051,125.9866 73.5561,124.7286 74.2391,123.8606 C86.3701,108.4616 99.2821,110.1386 107.9761,114.2566 C108.9741,114.7296 109.4001,115.9226 108.9271,116.9206 C108.4551,117.9186 107.2621,118.3446 106.2641,117.8716 C95.5291,112.7886 85.8111,115.6356 77.3821,126.3366 C76.9871,126.8376 76.4011,127.0986 75.8091,127.0986" id="Fill-73"></path>
                <path d="M112.1851,246.5937 C111.6731,246.5937 111.1621,246.3987 110.7711,246.0077 C109.9901,245.2267 109.9901,243.9607 110.7711,243.1797 L132.0231,221.9277 C132.8041,221.1467 134.0711,221.1467 134.8521,221.9277 C135.6321,222.7087 135.6321,223.9747 134.8521,224.7557 L113.5991,246.0077 C113.2091,246.3987 112.6971,246.5937 112.1851,246.5937" id="Fill-75"></path>
                <path d="M118.4751,253.9336 C117.9631,253.9336 117.4511,253.7386 117.0611,253.3476 C116.2801,252.5666 116.2801,251.3006 117.0611,250.5196 L138.3131,229.2676 C139.0941,228.4866 140.3601,228.4866 141.1411,229.2676 C141.9221,230.0486 141.9221,231.3146 141.1411,232.0956 L119.8891,253.3476 C119.4991,253.7386 118.9871,253.9336 118.4751,253.9336" id="Fill-77"></path>
                <path d="M125.813,260.6347 C125.301,260.6347 124.789,260.4397 124.399,260.0487 C123.618,259.2677 123.618,258.0017 124.399,257.2207 L140.315,241.3057 C141.096,240.5247 142.362,240.5247 143.143,241.3057 C143.924,242.0867 143.924,243.3527 143.143,244.1337 L127.227,260.0487 C126.836,260.4397 126.325,260.6347 125.813,260.6347" id="Fill-79"></path>
                <path d="M132.1025,267.8457 C131.5905,267.8457 131.0785,267.6507 130.6885,267.2597 C129.9075,266.4787 129.9075,265.2127 130.6885,264.4317 L140.3145,254.8057 C141.0965,254.0247 142.3615,254.0247 143.1435,254.8057 C143.9245,255.5867 143.9245,256.8527 143.1435,257.6337 L133.5165,267.2597 C133.1265,267.6507 132.6145,267.8457 132.1025,267.8457" id="Fill-81"></path>
                <path d="M105.4458,239.334 C104.9338,239.334 104.4218,239.139 104.0318,238.748 C103.2508,237.967 103.2508,236.701 104.0318,235.92 L117.8208,222.132 C118.6018,221.351 119.8688,221.351 120.6488,222.132 C121.4298,222.913 121.4298,224.179 120.6488,224.96 L106.8598,238.748 C106.4688,239.139 105.9578,239.334 105.4458,239.334" id="Fill-83"></path>
                <path d="M99.1431,229.6279 C98.6311,229.6279 98.1191,229.4329 97.7291,229.0419 C96.9481,228.2609 96.9481,226.9949 97.7291,226.2139 L105.3671,218.5759 C106.1481,217.7949 107.4151,217.7949 108.1951,218.5759 C108.9761,219.3569 108.9761,220.6229 108.1951,221.4039 L100.5571,229.0419 C100.1661,229.4329 99.6551,229.6279 99.1431,229.6279" id="Fill-85"></path>
                <path d="M90.8091,221.7168 C90.2971,221.7168 89.7851,221.5218 89.3951,221.1308 C88.6141,220.3498 88.6141,219.0838 89.3951,218.3028 L94.0621,213.6358 C94.8421,212.8548 96.1101,212.8548 96.8901,213.6358 C97.6711,214.4168 97.6711,215.6828 96.8901,216.4638 L92.2231,221.1308 C91.8331,221.5218 91.3211,221.7168 90.8091,221.7168" id="Fill-87"></path>
                <path d="M84.6528,212.8721 C84.1408,212.8721 83.6288,212.6771 83.2388,212.2861 C82.4578,211.5051 82.4578,210.2391 83.2388,209.4581 L85.8618,206.8351 C86.6418,206.0541 87.9098,206.0541 88.6898,206.8351 C89.4708,207.6161 89.4708,208.8821 88.6898,209.6631 L86.0668,212.2861 C85.6768,212.6771 85.1648,212.8721 84.6528,212.8721" id="Fill-89"></path>
                <path d="M138.8677,274.1103 C138.3557,274.1103 137.8447,273.9153 137.4537,273.5243 C136.6727,272.7433 136.6727,271.4773 137.4537,270.6963 L143.7197,264.4303 C144.5007,263.6493 145.7657,263.6493 146.5477,264.4303 C147.3287,265.2123 147.3287,266.4773 146.5477,267.2583 L140.2817,273.5243 C139.8907,273.9153 139.3797,274.1103 138.8677,274.1103" id="Fill-91"></path>
                <path d="M125.1743,179.915 C124.4453,179.915 123.7413,179.515 123.3893,178.819 C122.8893,177.834 123.2833,176.631 124.2683,176.131 C124.7573,175.883 136.3523,170.116 146.3753,174.857 C147.3733,175.329 147.8003,176.521 147.3273,177.52 C146.8563,178.519 145.6633,178.946 144.6643,178.473 C136.3993,174.565 126.1793,179.647 126.0773,179.699 C125.7873,179.846 125.4783,179.915 125.1743,179.915" id="Fill-93"></path>
            </g>
        </g>
    </g>
</svg>