<?xml version="1.0" encoding="UTF-8"?>
<svg width="254px" height="310px" viewBox="0 0 254 310" version="1.1" xmlns="http://www.w3.org/2000/svg" xmlns:xlink="http://www.w3.org/1999/xlink">
    <!-- Generator: Sketch 49.3 (51167) - http://www.bohemiancoding.com/sketch -->
    <title>3</title>
    <desc>Created with Sketch.</desc>
    <defs>
        <polygon id="path-1" points="1.54813936e-14 275.238923 1.54813936e-14 0.51250774 251.262577 0.51250774 251.262577 275.238923 0 275.238923"></polygon>
    </defs>
    <g id="Page-1" stroke="none" stroke-width="1" fill="none" fill-rule="evenodd">
        <g id="Artboard" transform="translate(-461.000000, -3380.000000)">
            <g id="3" transform="translate(461.000000, 3380.000000)">
                <path d="M164.1579,121.601483 C163.312511,121.601483 162.539009,121.037149 162.308013,120.18105 C162.031968,119.157954 162.637734,118.104146 163.659485,117.827737 C163.77642,117.797025 175.371281,114.662474 185.994232,111.353248 C197.855552,107.658201 203.607454,114.306406 203.846118,114.590492 C204.527605,115.403402 204.422171,116.61365 203.611288,117.295074 C202.800405,117.977458 201.592707,117.871885 200.91122,117.060895 C200.744443,116.869904 196.453281,112.115291 187.132918,115.019502 C176.439039,118.350802 164.774209,121.503588 164.657273,121.53526 C164.490496,121.580368 164.32276,121.601483 164.1579,121.601483" id="Fill-1" fill="#131371"></path>
                <path d="M137.202174,124.704746 C137.038272,124.704746 136.871494,124.683632 136.704717,124.639483 C136.500558,124.583817 116.081834,119.120907 108.573019,117.711031 C101.975728,116.477749 94.7333736,123.157625 94.6605283,123.224808 C93.8889434,123.946542 92.6754943,123.909111 91.951834,123.135551 C91.2291321,122.36295 91.2665132,121.149824 92.0371396,120.425211 C92.3898642,120.094096 100.753653,112.338337 109.279426,113.938245 C116.931057,115.374994 136.852325,120.704498 137.696755,120.93004 C138.719464,121.204529 139.326189,122.256418 139.053019,123.281433 C138.822981,124.138492 138.048521,124.704746 137.202174,124.704746" id="Fill-3" fill="#131371"></path>
                <path d="M150.672608,174.341409 C148.83614,174.341409 147.397446,173.568808 145.880155,172.754938 C144.272767,171.890201 142.271438,170.816238 138.943559,170.140573 C136.020163,169.547446 134.006374,168.283452 132.958744,166.382183 C131.618774,163.95305 132.46608,161.536393 132.56768,161.268622 C132.94245,160.278158 134.047589,159.773328 135.038669,160.15339 C136.021122,160.524814 136.520495,161.617972 136.16202,162.603638 C136.141891,162.666022 135.827506,163.675681 136.330714,164.555774 C136.813793,165.398437 137.980276,166.028034 139.705559,166.378344 C143.586488,167.165341 145.95971,168.440851 147.692661,169.370851 C149.170654,170.164567 149.931695,170.533111 150.811589,170.49952 C153.342005,170.373793 155.471771,169.248003 157.891959,167.598189 C158.260978,167.345774 158.686548,167.079923 159.137997,166.799675 C162.955665,164.422368 163.341937,163.525 162.513801,162.189985 C161.955001,161.288777 162.232005,160.106362 163.131069,159.546827 C164.029174,158.986331 165.211952,159.2637 165.770752,160.164907 C168.914601,165.235279 163.678367,168.493638 161.161371,170.058994 C160.759763,170.310449 160.380201,170.545588 160.05048,170.769211 C157.493227,172.515 154.62734,174.154257 151.000412,174.333731 C150.890186,174.338529 150.779959,174.341409 150.672608,174.341409" id="Fill-5" fill="#131371"></path>
                <path d="M101.497537,135.50244 C100.970368,135.50244 100.445115,135.285536 100.065552,134.860365 C99.3610619,134.06857 99.4310317,132.855443 100.221786,132.150025 C112.099402,121.54956 131.26442,131.458043 132.074345,131.884173 C133.01079,132.378446 133.369266,133.537827 132.87756,134.475505 C132.385854,135.414142 131.227039,135.77405 130.289635,135.282656 C130.11519,135.19052 112.662994,126.189963 102.77233,135.015845 C102.407145,135.342161 101.951862,135.50244 101.497537,135.50244" id="Fill-7" fill="#131371"></path>
                <path d="M168.353117,132.14369 C167.591117,132.14369 166.870332,131.685889 166.571283,130.933443 C166.17926,129.948737 166.658506,128.832545 167.642875,128.440966 C167.8432,128.361307 172.603064,126.473474 178.412475,125.048241 C186.495426,123.067313 192.451487,122.998211 196.117713,124.841895 C198.186136,125.883226 199.582657,127.57239 200.157751,129.728954 C200.429962,130.753009 199.822279,131.804898 198.79957,132.078427 C197.769192,132.350997 196.725396,131.742514 196.452226,130.718458 C196.157011,129.606105 195.503321,128.828706 194.396264,128.27205 C188.606981,125.361121 174.145275,129.980409 169.061442,132.006446 C168.828528,132.099542 168.588906,132.14369 168.353117,132.14369" id="Fill-9" fill="#131371"></path>
                <path d="M148.973205,195.265737 C143.014269,195.265737 138.031076,193.467161 134.30734,191.868214 C131.178827,190.52744 124.752148,185.727718 124.030405,185.185458 C123.183099,184.549142 123.012488,183.346573 123.647967,182.498152 C124.282488,181.649731 125.484435,181.478895 126.330782,182.115211 C128.192171,183.51357 133.525212,187.357378 135.816963,188.339204 C139.379672,189.86905 144.18171,191.600443 149.829137,191.412331 C155.849416,191.210783 166.843303,189.622393 172.818533,181.243755 C173.434842,180.379019 174.631038,180.18035 175.492722,180.796511 C176.355363,181.412672 176.554729,182.611402 175.939378,183.47422 C169.005657,193.195551 156.684261,195.024839 149.956616,195.249421 C149.625937,195.260938 149.298133,195.265737 148.973205,195.265737" id="Fill-11" fill="#131371"></path>
                <path d="M149.352767,205.488347 C141.50848,205.488347 136.344133,201.569678 136.023997,201.321102 C135.188193,200.66943 135.03771,199.463981 135.687567,198.628037 C136.335506,197.792093 137.537454,197.639492 138.37134,198.286365 C138.773906,198.593486 148.365522,205.74556 161.144118,198.154879 C162.055642,197.612619 163.230752,197.913981 163.770382,198.826706 C164.310012,199.738471 164.010963,200.915127 163.100397,201.456427 C158.016563,204.475808 153.338171,205.488347 149.352767,205.488347" id="Fill-13" fill="#131371"></path>
                <path d="M149.949906,235.154483 C149.181197,235.154483 148.438367,235.12569 147.720457,235.070985 C113.969129,232.539158 84.0019215,182.807672 83.0520574,170.68792 C82.1069857,158.630551 79.9647592,139.747424 79.942714,139.558353 C79.8229026,138.505505 80.5791517,137.55439 81.6315743,137.434421 C82.6830385,137.316372 83.6338611,138.070737 83.752714,139.124545 C83.7738008,139.314576 85.9236951,158.262966 86.8735592,170.388477 C87.7438687,181.481294 116.780382,228.900737 148.007046,231.243492 C157.191303,231.924916 171.282072,228.010087 186.207688,205.406 C196.054261,190.492409 202.526948,172.58631 203.832412,162.605845 C206.452925,142.566217 210.308933,127.494266 210.347272,127.344545 C210.610857,126.319529 211.652737,125.699529 212.682155,125.965381 C213.70774,126.230272 214.32405,127.277362 214.059506,128.303337 C214.021167,128.452099 210.222669,143.311944 207.634744,163.104916 C206.271771,173.521108 199.57288,192.123988 189.405212,207.522254 C174.575446,229.982378 160.115657,235.154483 149.949906,235.154483" id="Fill-15" fill="#131371"></path>
                <path d="M160.373491,71.3953034 C155.31362,71.3953034 149.994955,69.7253344 144.639869,66.4141889 C138.349295,62.5223932 134.241205,57.7735387 134.069635,57.5739102 L133.912442,57.3905975 L123.501318,36.2990805 C123.032616,35.3479659 123.420805,34.1972229 124.36971,33.7269443 C125.319574,33.2595449 126.468805,33.6472848 126.938465,34.5974396 L137.12722,55.2397926 C138.751861,57.0354892 153.144555,72.2773158 167.596676,66.0753963 C174.971303,62.9110929 181.610767,59.0912786 186.945725,56.0219907 C194.218752,51.8393901 199.474155,48.8267276 203.256359,49.130969 C204.311657,49.2192663 205.095703,50.1473467 205.007522,51.2030743 C204.920299,52.2607214 203.995355,53.0362012 202.93814,52.9575015 C200.325295,52.7262012 195.021008,55.8031672 188.855997,59.3513715 C183.434774,62.4696068 176.687959,66.3508452 169.107257,69.6044056 C166.319967,70.800257 163.391778,71.3953034 160.373491,71.3953034" id="Fill-17" fill="#131371"></path>
                <path d="M73.3545291,109.743743 C72.9308762,109.743743 72.5043479,109.603619 72.1487479,109.315693 C71.326363,108.648666 71.1988838,107.440337 71.8659932,106.61591 C77.9667857,99.072257 82.6518875,91.453743 86.7858574,84.7325975 C89.5587706,80.2236811 91.9540385,76.3290062 94.2294951,73.3835263 C104.334861,60.3040217 125.736038,54.4706471 126.642771,54.2278297 C127.664522,53.9571796 128.715986,54.5647028 128.988197,55.5877988 C129.261367,56.6118545 128.653684,57.663743 127.630974,57.9372724 C127.422023,57.9938978 106.568144,63.6881084 97.2621592,75.7320402 C95.1113064,78.5162817 92.76588,82.3303375 90.0495177,86.7461579 C86.0631555,93.2283251 81.1010498,101.296003 74.8449819,109.032567 C74.4663781,109.500926 73.9133291,109.743743 73.3545291,109.743743" id="Fill-19" fill="#131371"></path>
                <path d="M210.047457,123.521467 C210.028287,123.521467 210.011034,123.521467 209.991864,123.520508 C208.934649,123.490755 208.100762,122.606824 208.130475,121.547257 C208.319298,114.795399 207.264958,95.9996099 200.203758,90.1988669 C190.879562,82.5371641 178.833253,70.0152755 178.712483,69.8905077 C177.978279,69.1255851 178.001283,67.9105387 178.7652,67.1763282 C179.528158,66.4430774 180.740649,66.4651517 181.474853,67.2291146 C181.593706,67.3538824 193.487615,79.7145325 202.636408,87.2303529 C212.594166,95.4112817 211.993192,120.588464 211.962521,121.656669 C211.932808,122.698 211.080709,123.521467 210.047457,123.521467" id="Fill-21" fill="#131371"></path>
                <path d="M79.9263238,162.855381 C79.6847842,162.855381 79.4394106,162.808353 79.2007464,162.711418 C78.8278936,162.555938 70.0251162,158.758198 67.6183464,143.067207 C67.45732,142.019158 68.1752294,141.039251 69.2219011,140.878972 C70.2685728,140.712935 71.2462332,141.436588 71.4072596,142.483678 C73.4622634,155.876062 80.3854408,159.039406 80.6787389,159.168012 C81.6420219,159.589344 82.0973049,160.712254 81.6870709,161.680644 C81.3774785,162.412935 80.6710709,162.855381 79.9263238,162.855381" id="Fill-23" fill="#131371"></path>
                <path d="M63.1555185,147.019851 C62.2765826,147.019851 61.4829525,146.409449 61.2855034,145.514 C61.0573826,144.479387 61.7101147,143.454372 62.7433675,143.22595 C85.7298883,138.135424 83.3192845,104.32431 83.2914883,103.983598 C83.2080996,102.92691 83.9950204,102.001709 85.0503185,101.917251 C86.1056166,101.834712 87.028643,102.619789 87.1139487,103.676477 C87.1436619,104.05078 89.8197675,141.161523 63.5715034,146.973783 C63.4325223,147.004495 63.2925826,147.019851 63.1555185,147.019851" id="Fill-25" fill="#131371"></path>
                <path d="M177.265066,265.309805 C176.510734,265.309805 175.796659,264.860641 175.4909,264.119712 C171.367474,254.085502 175.195685,220.892467 175.360546,219.483551 C175.484191,218.429743 176.444598,217.669619 177.487436,217.801105 C178.5389,217.924913 179.291315,218.877947 179.16767,219.931755 C178.076908,229.249031 175.926055,255.090362 179.037315,262.658969 C179.439882,263.639836 178.972138,264.760827 177.993519,265.164882 C177.754855,265.262777 177.507565,265.309805 177.265066,265.309805" id="Fill-27" fill="#131371"></path>
                <path d="M150.073552,287.139467 C145.183333,287.139467 140.575869,286.721975 136.871303,286.075102 C116.557054,282.524019 89.4471064,265.408755 91.4426838,245.601387 C93.24848,227.675133 93.1114158,197.796124 93.1104574,197.496681 C93.1047064,196.436155 93.9587215,195.572378 95.0168951,195.566619 L95.0274385,195.566619 C96.0817781,195.566619 96.9386687,196.419839 96.9444196,197.475567 C96.9453781,197.777889 97.0834008,227.859406 95.2574762,245.987207 C93.5091894,263.332811 119.126767,279.076588 137.530744,282.293678 C156.870208,285.671046 173.843159,280.957703 179.075559,274.442904 C181.91365,270.910056 182.224201,266.35987 179.997627,260.918074 C179.59602,259.937207 180.064722,258.816217 181.045257,258.41408 C182.02771,258.013864 183.144352,258.483183 183.545001,259.46309 C187.027197,267.973214 184.661642,273.614638 182.063174,276.849003 C175.816691,284.624916 162.090148,287.139467 150.073552,287.139467" id="Fill-29" fill="#131371"></path>
                <g id="Group-33" transform="translate(0.000000, 0.447245)">
                    <mask id="mask-2" fill="white">
                        <use xlink:href="#path-1"></use>
                    </mask>
                    <g id="Clip-32"></g>
                    <path d="M249.344707,275.238923 C249.133839,275.238923 248.921054,275.203412 248.710186,275.130471 C247.95873,274.865579 230.263077,268.297034 227.308051,236.313288 C226.418571,226.689851 227.90519,214.275455 229.626639,199.902204 C233.566035,166.997096 238.962337,121.930966 220.807568,71.1591084 C209.639235,39.9268483 191.877447,19.3622353 168.013907,10.036322 C152.842918,4.10793189 135.571877,2.809387 116.675235,6.1790774 C92.1953864,10.544031 67.3235147,20.2452074 55.6970242,85.2463529 C49.6844128,118.860718 35.7096204,141.789201 25.0454543,155.103845 C13.4410091,169.591307 3.36056377,176.027406 2.93691094,176.294217 C2.04359774,176.859511 0.859861887,176.59078 0.295310943,175.693412 C-0.26924,174.797963 -0.000862641509,173.612669 0.893409057,173.046415 C1.29022415,172.79592 40.7186921,147.206043 51.9224883,84.5697276 C62.8071072,23.7204706 84.5111675,8.01508359 116.003334,2.398613 C135.60159,-1.09680495 153.570413,0.269882353 169.408511,6.45932508 C194.350352,16.2075294 212.858805,37.5399443 224.416285,69.8644025 C242.876813,121.48948 237.418209,167.074836 233.431847,200.359046 C231.737235,214.515393 230.27362,226.742638 231.12476,235.959139 C233.8555,265.515672 249.818202,271.45078 249.979228,271.506446 C250.977975,271.858675 251.504186,272.952793 251.154337,273.953814 C250.877334,274.74369 250.13642,275.237963 249.344707,275.238923" id="Fill-31" fill="#131371" mask="url(#mask-2)"></path>
                </g>
                <path d="M129.612462,309.487492 C122.960537,309.487492 98.3311638,308.271486 83.7295185,291.039133 C73.363443,278.80613 70.5138506,261.323282 75.2583789,239.075263 C81.0744996,211.809659 76.5063336,192.834396 71.6506204,181.718545 C71.2260091,180.746316 71.6688317,179.615728 72.6388242,179.190557 C73.6078581,178.765387 74.738877,179.208793 75.1634883,180.180062 C80.2454053,191.81322 85.0368996,211.61291 79.0089525,239.877616 C74.5241751,260.900031 77.0967638,277.277245 86.6529147,288.555294 C102.080779,306.762755 130.808658,305.639845 131.091413,305.62161 C132.166839,305.580341 133.046734,306.390372 133.095617,307.448978 C133.145458,308.507585 132.327866,309.406873 131.270651,309.45678 C131.117292,309.463498 130.539322,309.487492 129.612462,309.487492" id="Fill-34" fill="#131371"></path>
                <path d="M69.5121321,299.220734 C69.0472642,299.220734 68.5814377,299.051817 68.2124189,298.712065 C67.7571358,298.290734 56.9281094,288.214294 46.1115434,272.055904 C36.0886075,257.082808 24.3001321,233.923025 25.0582981,208.625873 C26.5046604,160.360889 61.540366,129.090238 61.8940491,128.780238 C62.6905547,128.081539 63.9011283,128.163118 64.5989094,128.958752 C65.2966906,129.755347 65.2171358,130.967514 64.4206302,131.667173 C64.080366,131.966616 30.2849472,162.190176 28.8903434,208.741043 C27.4957396,255.314944 70.379566,295.490176 70.8128038,295.890393 C71.5901396,296.609248 71.6390226,297.824294 70.9211132,298.602653 C70.5434679,299.012467 70.0287585,299.220734 69.5121321,299.220734" id="Fill-36" fill="#131371"></path>
                <path d="M251.742755,303.699034 C251.709208,303.699034 251.67566,303.698074 251.643072,303.696155 C231.8512,302.674978 215.449509,288.104019 204.210249,261.559189 C195.850294,241.811325 193.280581,222.694019 193.175147,221.889746 C193.037125,220.838817 193.776121,219.875226 194.825668,219.737981 C195.879049,219.594019 196.838498,220.339746 196.976521,221.389715 C197.076204,222.151759 207.487328,297.572935 251.839562,299.862904 C252.896777,299.91761 253.710536,300.819777 253.654943,301.878384 C253.602226,302.903399 252.755879,303.699034 251.742755,303.699034" id="Fill-38" fill="#131371"></path>
                <path d="M238.322928,237.167755 C238.139857,237.167755 237.952951,237.140882 237.768921,237.085217 C236.754838,236.780015 236.18166,235.707972 236.48646,234.693514 C249.081985,192.82048 240.476657,171.491904 240.388475,171.282678 C239.9792,170.30469 240.437358,169.178901 241.413102,168.768127 C242.393638,168.357353 243.514113,168.818034 243.923389,169.794102 C244.305826,170.705867 253.146943,192.617972 240.157479,235.801068 C239.907313,236.631254 239.146272,237.167755 238.322928,237.167755" id="Fill-40" fill="#131371"></path>
                <path d="M122.664843,132.045796 C122.664843,135.856012 119.719402,138.944495 116.086722,138.944495 C112.453085,138.944495 109.507643,135.856012 109.507643,132.045796 C109.507643,131.460347 109.576654,130.893133 109.707968,130.349913 C110.428752,127.361245 121.148511,126.884248 122.147258,129.360409 C122.480813,130.186755 122.664843,131.094681 122.664843,132.045796" id="Fill-42" fill="#131371"></path>
                <path d="M189.439047,128.381077 C189.439047,131.979189 186.506066,134.897796 182.889681,134.897796 C179.272337,134.897796 176.339356,131.979189 176.339356,128.381077 C176.339356,124.783926 187.292986,123.092842 188.449885,124.937486 C189.076737,125.936588 189.439047,127.117084 189.439047,128.381077" id="Fill-44" fill="#131371"></path>
                <path d="M161.365721,303.874285 C160.042045,303.874285 158.687698,303.834935 157.29597,303.755276 C151.55557,303.425121 145.259245,302.413542 138.5824,300.746452 C137.555857,300.491158 136.929962,299.448867 137.186838,298.420012 C137.442755,297.391158 138.4808,296.760601 139.510219,297.021653 C145.955109,298.630198 152.01277,299.606266 157.514506,299.922025 C178.343464,301.119796 190.363894,292.985895 193.183774,275.742025 C193.354385,274.696854 194.336838,273.985678 195.385426,274.158433 C196.430181,274.330229 197.138506,275.316854 196.967894,276.362985 C194.013826,294.419765 181.734604,303.874285 161.365721,303.874285" id="Fill-46" fill="#131371"></path>
                <path d="M124.684287,296.379963 C124.464792,296.379963 124.242423,296.341573 124.024845,296.261913 C120.413253,294.937455 118.245147,293.977703 118.155049,293.937393 C117.186974,293.507424 116.75086,292.373957 117.180264,291.404607 C117.609668,290.437176 118.741645,289.99761 119.709721,290.428539 C119.730808,290.438136 121.863449,291.380613 125.343728,292.657084 C126.337683,293.021789 126.848558,294.123585 126.484332,295.119808 C126.19966,295.897207 125.465457,296.379963 124.684287,296.379963" id="Fill-48" fill="#131371"></path>
                <path d="M117.871911,48.5328514 C117.18659,48.5328514 116.524273,48.1643065 116.179217,47.5174334 C115.774734,46.7582693 106.341269,28.7936254 113.319081,17.2046161 C116.959428,11.1591362 124.251624,8.09464706 134.993428,8.09464706 C135.088318,8.09464706 135.182251,8.09464706 135.277141,8.09560681 C136.336273,8.10040557 137.190288,8.96418266 137.184537,10.0237492 C137.179745,11.0813963 136.322854,11.9346161 135.267556,11.9346161 C135.177458,11.9365356 135.082568,11.9336563 134.990552,11.9336563 C125.686485,11.9336563 119.501345,14.3733467 116.602869,19.1874644 C110.736907,28.9289505 119.471632,45.5413034 119.560771,45.7083003 C120.060145,46.6430991 119.70742,47.8063189 118.772892,48.3063498 C118.485345,48.4599102 118.176711,48.5328514 117.871911,48.5328514" id="Fill-50" fill="#131371"></path>
                <path d="M145.191672,269.781483 C144.700925,269.781483 144.211136,269.594331 143.836366,269.219068 C143.087785,268.469502 143.087785,267.254455 143.836366,266.504889 L173.911883,236.38882 C174.661423,235.639254 175.873913,235.639254 176.622494,236.38882 C177.372034,237.138387 177.372034,238.353433 176.622494,239.103 L146.546977,269.219068 C146.173166,269.594331 145.682419,269.781483 145.191672,269.781483" id="Fill-52" fill="#131371"></path>
                <path d="M155.440715,272.742319 C154.949968,272.742319 154.46018,272.555167 154.08541,272.179904 C153.336829,271.430337 153.336829,270.215291 154.08541,269.465724 L173.575357,249.95108 C174.323938,249.201514 175.537387,249.201514 176.285968,249.95108 C177.034549,250.700647 177.034549,251.915693 176.285968,252.66526 L156.796021,272.179904 C156.421251,272.555167 155.931463,272.742319 155.440715,272.742319" id="Fill-54" fill="#131371"></path>
                <path d="M163.908884,274.165056 C163.418137,274.165056 162.928348,273.977904 162.553578,273.602641 C161.804997,272.853074 161.804997,271.637068 162.553578,270.888461 L174.481993,258.946263 C175.231533,258.195737 176.444023,258.195737 177.192605,258.946263 C177.942144,259.69583 177.942144,260.910876 177.192605,261.660443 L165.264189,273.602641 C164.88942,273.977904 164.399631,274.165056 163.908884,274.165056" id="Fill-56" fill="#131371"></path>
                <path d="M120.700033,280.768056 C120.199701,280.768056 119.699369,280.573226 119.322682,280.184526 C118.586562,279.423443 118.605731,278.207437 119.365814,277.469387 L175.339746,223.161802 C176.100788,222.423752 177.313278,222.442947 178.050358,223.204031 C178.787437,223.965115 178.767309,225.181121 178.007226,225.91917 L122.034252,280.227715 C121.661399,280.588582 121.180237,280.768056 120.700033,280.768056" id="Fill-58" fill="#131371"></path>
            </g>
        </g>
    </g>
</svg>