<?xml version="1.0" encoding="UTF-8"?>
<svg width="215px" height="297px" viewBox="0 0 215 297" version="1.1" xmlns="http://www.w3.org/2000/svg" xmlns:xlink="http://www.w3.org/1999/xlink">
    <!-- Generator: Sketch 49.3 (51167) - http://www.bohemiancoding.com/sketch -->
    <title>4</title>
    <desc>Created with Sketch.</desc>
    <defs>
        <polygon id="path-1" points="0.401551462 0.658253425 148.078208 0.658253425 148.078208 147.102393 0.401551462 147.102393 0.401551462 0.658253425"></polygon>
        <polygon id="path-3" points="0 66.0974205 0 0.838366503 67.1124827 0.838366503 67.1124827 66.0974205 3.49301679e-15 66.0974205"></polygon>
        <polygon id="path-5" points="26.9442891 0.731520067 26.9442891 26.0398932 0.409289411 26.0398932 0.409289411 0.731520067 26.9442891 0.731520067"></polygon>
    </defs>
    <g id="Page-1" stroke="none" stroke-width="1" fill="none" fill-rule="evenodd">
        <g id="Artboard" transform="translate(-740.000000, -3519.000000)">
            <g id="4" transform="translate(740.000000, 3518.000000)">
                <g id="Group-3" transform="translate(35.663507, 0.362295)">
                    <mask id="mask-2" fill="white">
                        <use xlink:href="#path-1"></use>
                    </mask>
                    <g id="Clip-2"></g>
                    <path d="M20.184628,147.102393 C19.6629218,147.102393 19.1412156,146.903386 18.7438223,146.504352 C18.5227085,146.282893 13.3066659,141.054626 10.9100782,138.318537 C7.66775592,134.61701 -2.29459005,100.203112 1.09548104,63.8277219 C3.01519668,43.2197973 14.9981351,28.3116329 24.7118555,19.4338863 C35.9794858,9.13655753 48.3873294,3.08062603 54.8210261,2.42135205 C56.0111682,2.2988863 57.283846,2.15600959 58.6278507,2.00394795 C76.9038697,-0.0585794521 110.918704,-3.89583973 132.020291,27.2308726 C154.147969,59.870037 147.070291,94.8238041 146.758491,96.2954342 C146.525149,97.397626 145.43996,98.0977219 144.343562,97.8680986 C143.243088,97.6343932 142.538988,96.5515918 142.77131,95.4494 C142.843656,95.1054753 149.770528,60.6803521 128.648562,29.5250644 C108.927661,0.435365753 77.7271872,3.95727671 59.0843436,6.06062603 C57.7250545,6.21370822 56.4391303,6.35862603 55.2357417,6.48211233 C45.9785142,7.43122192 8.56749526,27.5737767 5.15296919,64.2073658 C1.84135782,99.7448863 11.655955,132.614695 13.9893673,135.644701 C16.2840592,138.263427 21.5724479,143.565174 21.6254336,143.618242 C22.4212393,144.41529 22.4212393,145.707304 21.6254336,146.504352 C21.2270213,146.903386 20.7063341,147.102393 20.184628,147.102393" id="Fill-1" fill="#131371" mask="url(#mask-2)"></path>
                </g>
                <path d="M107.051251,222.567627 C100.63182,222.567627 94.9806825,221.984895 92.8592133,221.299086 C89.4650664,220.203018 84.003455,214.670627 75.4126256,205.690826 C69.5179573,199.527737 63.4215355,193.156456 59.8174834,190.901045 C51.1430995,185.474792 46.2938815,151.506874 45.7691185,147.651244 C45.6172938,146.534764 46.3988341,145.506052 47.5135735,145.35399 C48.6252559,145.197847 49.6554218,145.983668 49.8072464,147.100148 C51.6902796,160.930614 56.6587156,184.11236 61.976654,187.438326 C66.0127441,189.963162 72.0082891,196.230347 78.3553744,202.865949 C84.1899242,208.964744 91.4510142,216.554559 94.1094739,217.41386 C99.4294502,219.130422 124.91663,219.114093 128.836559,214.207299 C130.24272,212.445833 132.875706,210.26084 136.210754,207.494134 C145.357934,199.90534 159.182128,188.435401 164.051725,172.73223 C170.746275,151.139477 173.783787,118.434997 173.813336,118.107401 C173.91727,116.985819 174.912791,116.155093 176.02855,116.26021 C177.149403,116.363285 177.974758,117.356278 177.872863,118.478881 C177.842294,118.811579 174.7681,151.936525 167.944142,173.9426 C162.714853,190.805114 148.329213,202.740422 138.810114,210.639463 C135.780754,213.152052 133.164071,215.322758 132.018763,216.756627 C128.466678,221.204175 116.860754,222.567627 107.051251,222.567627" id="Fill-4" fill="#131371"></path>
                <path d="M176.964768,153.028919 C176.355431,153.028919 175.753227,152.925844 175.16427,152.718673 C174.103536,152.343111 173.547185,151.177645 173.922161,150.114234 C174.296118,149.051844 175.45773,148.493604 176.521521,148.868145 C176.813962,148.971221 177.242943,149.040618 177.962327,148.645666 C182.485479,146.159611 187.777943,132.3567 189.860692,123.348323 C191.867019,114.674686 190.437422,99.8226521 188.537066,97.7591041 C187.218536,97.5723438 182.711687,100.810542 179.134128,104.528399 C178.353607,105.340755 177.063607,105.365248 176.253536,104.583508 C175.442445,103.801768 175.416972,102.509755 176.197493,101.697399 C179.420455,98.3438781 187.344886,90.9530699 191.307611,94.7607342 C195.176592,98.4775699 195.713583,116.131008 193.831569,124.268858 C192.436616,130.304378 186.886355,148.395632 179.92382,152.223707 C178.949697,152.759495 177.9501,153.028919 176.964768,153.028919" id="Fill-6" fill="#131371"></path>
                <path d="M111.16631,97.7643089 C110.337898,97.7643089 109.558396,97.2540349 109.254746,96.4294322 C108.864486,95.371124 109.404533,94.1974938 110.461192,93.8076445 C111.551476,93.4055486 137.283206,83.9613979 147.079462,85.1370692 C157.738775,86.4250007 158.910576,92.2237541 159.009415,92.880987 C159.176524,93.9954253 158.410268,95.0353637 157.296547,95.2027336 C156.194036,95.371124 155.146547,94.6036719 154.979438,93.488213 C154.974344,93.488213 154.084794,90.0959116 146.5924,89.1906856 C139.250813,88.3038295 119.041832,94.9873979 111.871429,97.637761 C111.639107,97.723487 111.400671,97.7643089 111.16631,97.7643089" id="Fill-8" fill="#131371"></path>
                <path d="M90.6911777,100.596738 C90.4333815,100.596738 90.1704905,100.547751 89.9167701,100.442635 C84.6681209,98.2811144 69.7872678,92.8058747 64.0607275,93.4253473 C57.7044716,94.112176 54.8136896,99.4557651 54.7851588,99.5098541 C54.2583578,100.505909 53.0254194,100.885553 52.0309171,100.359971 C51.0364147,99.8323473 50.6563436,98.5974842 51.1821256,97.6004089 C51.340064,97.3024089 55.137718,90.2841007 63.6235948,89.3676486 C71.4257512,88.524676 89.4388791,95.8317993 91.4676232,96.6676281 C92.5079787,97.0962582 93.0052299,98.2892788 92.5772678,99.3312582 C92.2532393,100.120142 91.4930972,100.596738 90.6911777,100.596738" id="Fill-10" fill="#131371"></path>
                <path d="M95.0600592,136.725564 C94.9184242,136.725564 94.7747512,136.710255 94.6300592,136.679639 C93.5295853,136.442872 92.8295616,135.357009 93.0649408,134.254817 C94.6728555,126.766036 94.5943957,117.223913 94.5933768,117.127982 C94.5821682,116.001297 95.4849645,115.078721 96.6098934,115.066475 C97.7460308,115.025653 98.6569787,115.958434 98.6692062,117.086139 C98.673282,117.494358 98.7537796,127.171194 97.0511019,135.112077 C96.8452725,136.070372 95.9995379,136.725564 95.0600592,136.725564" id="Fill-12" fill="#131371"></path>
                <path d="M109.878756,191.893426 C109.607713,191.893426 109.333614,191.838316 109.069704,191.724015 C102.192761,188.741974 96.8860308,191.607673 96.833045,191.636248 C95.8466943,192.184282 94.6076422,191.82607 94.0625,190.840221 C93.5173578,189.854371 93.8729739,188.612364 94.8572867,188.066371 C95.1446327,187.906145 101.993045,184.202577 110.689846,187.978604 C111.723069,188.426625 112.196884,189.62781 111.749562,190.662645 C111.416363,191.433159 110.66641,191.892405 109.878756,191.893426" id="Fill-14" fill="#131371"></path>
                <path d="M101.177268,157.986129 C100.943927,157.986129 100.711604,157.973882 100.480301,157.95041 C95.5169597,157.426868 87.3561303,152.316985 86.4411066,151.735273 C85.7217227,151.279088 85.3620308,150.421827 85.5393294,149.58804 L86.5144716,144.998636 C86.7488318,143.896444 87.8319834,143.195327 88.9314384,143.426992 C90.0319123,143.661718 90.7349929,144.74554 90.5006327,145.847732 L89.8260829,149.024697 C92.6964858,150.734115 97.9858934,153.582464 100.907244,153.89067 C102.868737,154.090697 106.062149,152.077156 108.625846,150.454485 C111.205846,148.821608 113.243761,147.531636 115.073808,147.531636 C116.199756,147.531636 117.111723,148.445026 117.111723,149.572732 C117.111723,150.699416 116.199756,151.613827 115.073808,151.613827 C114.383974,151.638321 112.229898,153.002793 110.804377,153.904958 C107.767884,155.825629 104.355396,157.986129 101.177268,157.986129" id="Fill-16" fill="#131371"></path>
                <path d="M111.524576,150.441626 C111.524576,148.599537 113.029576,147.107496 114.883059,147.107496 C116.737562,147.107496 118.241543,148.599537 118.241543,150.441626 C118.241543,152.283715 116.737562,153.776777 114.883059,153.776777 C113.029576,153.776777 111.524576,152.283715 111.524576,150.441626" id="Fill-18" fill="#131371"></path>
                <path d="M116.777607,111.581099 C116.358815,111.581099 115.935948,111.45251 115.571161,111.184106 C114.665308,110.516668 114.470687,109.238942 115.138104,108.330654 C115.460095,107.891818 123.167488,97.5608116 134.683744,95.8830308 C140.852512,94.9869897 146.882701,96.7321267 152.618412,101.07762 C153.516114,101.757305 153.693412,103.037072 153.013768,103.936175 C152.335142,104.835277 151.05737,105.012853 150.158649,104.333168 C145.325735,100.671442 140.317559,99.1875651 135.270664,99.9223596 C125.420403,101.35725 118.490474,110.655462 118.421185,110.749353 C118.021754,111.293305 117.403246,111.581099 116.777607,111.581099" id="Fill-20" fill="#131371"></path>
                <path d="M59.0149526,114.575489 C58.7113033,114.575489 58.4025592,114.507112 58.1121564,114.363215 C57.1044076,113.863147 56.6907109,112.638489 57.19,111.628147 C59.6966351,106.557044 63.3343128,103.395386 68.0031754,102.232982 C78.0072986,99.7428452 88.9916588,107.550037 89.4542654,107.883756 C90.3682701,108.54201 90.5751185,109.817695 89.917891,110.732105 C89.2606635,111.646516 87.9879858,111.853688 87.075,111.197475 C86.9761611,111.127058 77.1422038,104.153653 68.9742417,106.197811 C65.479218,107.0714 62.8187204,109.440092 60.8429621,113.439619 C60.487346,114.158085 59.7649052,114.575489 59.0149526,114.575489" id="Fill-22" fill="#131371"></path>
                <path d="M46.3411611,157.985108 C45.9203318,157.985108 45.4954265,157.855499 45.1316588,157.585053 C34.8901185,150.007485 31.7221801,130.345608 31.4643839,119.922752 C31.247346,111.150122 32.7778199,109.895868 33.3535308,109.424375 C36.5907583,106.771971 40.6390758,109.218225 42.522109,111.082766 C43.3219905,111.874711 43.3291232,113.166725 42.5384123,113.968875 C41.7487204,114.768985 40.4607583,114.77817 39.6598578,113.989286 C39.1880806,113.529019 37.1623934,111.91043 36.0853555,112.482958 C34.2919905,116.498814 36.0751659,145.80793 47.5537204,154.302971 C48.4585545,154.972451 48.6511374,156.250177 47.9816825,157.156423 C47.5822512,157.698334 46.965782,157.985108 46.3411611,157.985108" id="Fill-24" fill="#131371"></path>
                <path d="M142.613678,103.701755 C142.613678,107.932947 139.188962,111.365049 134.963346,111.365049 C130.73773,111.365049 127.310976,107.932947 127.310976,103.701755 C127.310976,99.470563 130.73773,96.0384603 134.963346,96.0384603 C139.188962,96.0384603 142.613678,99.470563 142.613678,103.701755" id="Fill-26" fill="#131371"></path>
                <path d="M79.8946114,107.871612 C79.8946114,111.758879 76.74909,114.90931 72.8678815,114.90931 C68.986673,114.90931 65.8401327,111.758879 65.8401327,107.871612 C65.8401327,106.90005 66.0367915,105.975434 66.3924076,105.132461 C67.4592559,102.606605 78.2265782,102.571906 79.3107488,105.057961 C79.6857251,105.920324 79.8946114,106.872495 79.8946114,107.871612" id="Fill-28" fill="#131371"></path>
                <path d="M110.441934,297.341747 C109.378142,297.341747 108.48146,296.514082 108.410133,295.435363 C106.005393,259.041603 129.577953,239.12663 136.860441,233.890199 C145.271934,227.841411 163.625393,202.866562 166.624185,198.749671 L165.439137,173.102281 C165.387171,171.975596 166.255322,171.020363 167.380251,170.968315 C168.52454,170.923411 169.457905,171.787815 169.510891,172.912459 L170.761152,199.986575 L170.345417,200.564205 C169.474209,201.773555 148.900441,230.258068 139.236649,237.206979 C132.386199,242.132144 110.21063,260.871445 112.47781,295.165938 C112.551175,296.290582 111.701365,297.263164 110.578474,297.337664 C110.532621,297.340726 110.486768,297.341747 110.441934,297.341747" id="Fill-30" fill="#131371"></path>
                <path d="M165.280588,267.320288 C165.116536,267.320288 164.950445,267.299877 164.785374,267.258034 C164.011986,267.065151 163.422009,266.436493 163.276299,265.649651 C163.231464,265.40676 158.66246,241.275904 147.820754,234.038178 C146.884332,233.412582 146.63163,232.145062 147.256251,231.207178 C147.880872,230.269295 149.14336,230.013137 150.08182,230.641795 C159.372673,236.845705 164.342128,252.680527 166.29445,260.473432 C170.996938,253.814356 180.574118,238.838836 182.330801,225.113486 C184.600019,207.384527 170.934782,195.680884 170.796204,195.563521 C169.933147,194.839952 169.821062,193.553041 170.544521,192.688637 C171.266962,191.825253 172.550848,191.709932 173.414924,192.436562 C174.048716,192.969288 188.922436,205.714911 186.373005,225.630904 C183.892863,245.017233 167.567128,265.683329 166.872199,266.552836 C166.480919,267.043719 165.891962,267.320288 165.280588,267.320288" id="Fill-32" fill="#131371"></path>
                <path d="M103.493867,274.395338 C102.512611,274.395338 101.647517,273.681975 101.484483,272.679797 C101.451877,272.474667 98.0190095,252.138208 86.228654,250.206311 C83.289981,249.726653 82.2934408,250.862523 81.9663555,251.236044 C79.2009052,254.39464 80.6243886,263.709181 82.1711659,268.839475 C82.4197915,269.664078 82.1242938,270.557058 81.4334408,271.069373 C80.7415687,271.583729 79.80209,271.60516 79.086782,271.125503 C78.4845782,270.720345 64.3363555,260.843482 65.0221137,227.400126 C65.0455498,226.273441 65.9829905,225.427407 67.1018057,225.400873 C68.2267346,225.425366 69.1203602,226.357126 69.0969242,227.483811 C68.718891,245.943482 73.0239858,256.61127 76.6351706,262.268167 C76.0217583,257.520578 76.0625166,251.78816 78.9013318,248.543838 C80.185218,247.077311 82.6103365,245.471989 86.8869005,246.178208 C101.572114,248.58364 105.354483,271.073455 105.508346,272.029708 C105.687682,273.141085 104.932635,274.188167 103.821972,274.368804 C103.711924,274.386153 103.601877,274.395338 103.493867,274.395338" id="Fill-34" fill="#131371"></path>
                <path d="M86.5556374,243.641432 C86.1776043,243.641432 85.7944763,243.535295 85.4531256,243.315877 C77.4940498,238.174357 68.5669645,219.104398 68.1909692,218.295103 C68.0656374,218.025679 68.0004242,217.731761 68.0004242,217.433761 L68.0004242,198.841418 C68.0004242,197.713713 68.91341,196.800323 70.0383389,196.800323 C71.1642867,196.800323 72.0762536,197.713713 72.0762536,198.841418 L72.0762536,216.978597 C74.6878412,222.496699 82.0192393,236.239398 87.6622251,239.884795 C88.6078175,240.496103 88.8798791,241.759542 88.2705427,242.70661 C87.880282,243.311795 87.2250924,243.641432 86.5556374,243.641432" id="Fill-36" fill="#131371"></path>
                <path d="M100.735957,181.28432 C97.9898673,181.28432 94.6690853,180.769964 90.1571422,178.877868 C82.2887536,175.575375 78.5389905,179.895354 78.38309,180.080073 C77.6647251,180.933251 76.3849147,181.06184 75.5218578,180.35256 C74.6598199,179.642258 74.5202227,178.37882 75.2192275,177.507272 C75.4474739,177.221518 80.9345592,170.580813 91.7314313,175.112046 C98.0428531,177.760368 101.336123,177.315409 104.819938,176.846977 L105.466976,176.760231 C106.472687,176.62858 107.744346,176.651032 109.216739,176.674505 C113.641052,176.755128 120.341716,176.862286 125.200104,172.678039 C126.051953,171.944265 127.339915,172.040197 128.073564,172.895416 C128.807213,173.749614 128.710412,175.038566 127.856526,175.774382 C121.824299,180.968971 113.889678,180.833238 109.148469,180.756697 C107.837071,180.737306 106.705009,180.715875 105.994796,180.808745 L105.363043,180.892429 C103.943635,181.084292 102.451882,181.28432 100.735957,181.28432" id="Fill-38" fill="#131371"></path>
                <path d="M155.042206,154.300624 C154.633604,154.300624 154.219908,154.177138 153.861235,153.92098 C152.944173,153.266809 152.731211,151.992145 153.384363,151.074672 C160.052419,141.708083 162.497917,117.156761 162.522372,116.910809 C162.630382,115.789227 163.614694,114.964624 164.746756,115.075864 C165.86659,115.185062 166.686851,116.182138 166.577822,117.30474 C166.476945,118.355905 164.002917,143.189918 156.704126,153.444384 C156.305713,154.002624 155.679055,154.300624 155.042206,154.300624" id="Fill-40" fill="#131371"></path>
                <path d="M28.5487393,272.809713 C28.0270332,272.809713 27.505327,272.610706 27.1079336,272.211672 C26.312128,271.414624 26.312128,270.12261 27.1079336,269.325562 L59.0817962,237.301788 C59.8765829,236.50474 61.1686209,236.50474 61.9634076,237.301788 C62.7592133,238.098836 62.7592133,239.39085 61.9634076,240.187898 L29.989545,272.211672 C29.5921517,272.610706 29.0704455,272.809713 28.5487393,272.809713" id="Fill-42" fill="#131371"></path>
                <path d="M40.4642227,272.893398 C39.9425166,272.893398 39.4218294,272.694391 39.0234171,272.295357 C38.2276114,271.498309 38.2276114,270.206295 39.0234171,269.409247 L59.7418768,248.658446 C60.5376825,247.861398 61.8276825,247.861398 62.6245071,248.658446 C63.4203128,249.455494 63.4203128,250.747508 62.6245071,251.544555 L41.9050284,272.295357 C41.5076351,272.694391 40.9859289,272.893398 40.4642227,272.893398" id="Fill-44" fill="#131371"></path>
                <path d="M51.5051351,275.427827 C50.9834289,275.427827 50.4617227,275.22882 50.0633104,274.829786 C49.2685237,274.032738 49.2685237,272.739703 50.0643294,271.943676 L62.7452536,259.244998 C63.5420782,258.446929 64.8320782,258.446929 65.6278839,259.244998 C66.4236896,260.042046 66.4236896,261.33406 65.6268649,262.131108 L52.9459408,274.829786 C52.5475284,275.22882 52.0268412,275.427827 51.5051351,275.427827" id="Fill-46" fill="#131371"></path>
                <g id="Group-50" transform="translate(0.000000, 219.780103)">
                    <mask id="mask-4" fill="white">
                        <use xlink:href="#path-3"></use>
                    </mask>
                    <g id="Clip-49"></g>
                    <path d="M2.03791469,66.0974205 C1.50601896,66.0974205 0.974123223,65.8902493 0.573672986,65.4769274 C-0.208886256,64.6676329 -0.188507109,63.3745986 0.619526066,62.5897973 L63.6563033,1.41305068 C64.4653555,0.630290411 65.7543365,0.648660274 66.5379147,1.45897534 C67.3214929,2.26826986 67.3011137,3.56130411 66.4920616,4.34508493 L3.45630332,65.5228521 C3.05992891,65.9065781 2.54841232,66.0974205 2.03791469,66.0974205" id="Fill-48" fill="#131371" mask="url(#mask-4)"></path>
                </g>
                <path d="M137.300019,269.60754 C136.778313,269.60754 136.257626,269.408533 135.859213,269.009499 C135.063408,268.212451 135.063408,266.920437 135.859213,266.123389 L157.551796,244.397964 C158.347602,243.600916 159.637602,243.600916 160.433408,244.397964 C161.229213,245.195012 161.229213,246.487026 160.433408,247.284074 L138.740825,269.009499 C138.342412,269.408533 137.821725,269.60754 137.300019,269.60754" id="Fill-51" fill="#131371"></path>
                <path d="M125.383007,266.954523 C124.861301,266.954523 124.340614,266.755516 123.942201,266.356482 C123.146396,265.559434 123.146396,264.267421 123.942201,263.470373 L152.148979,235.222626 C152.944784,234.425578 154.233765,234.425578 155.03059,235.222626 C155.826396,236.019674 155.826396,237.311688 155.03059,238.108736 L126.823813,266.356482 C126.4254,266.755516 125.904713,266.954523 125.383007,266.954523" id="Fill-53" fill="#131371"></path>
                <path d="M164.550199,85.885539 C163.694275,85.885539 162.898469,85.341587 162.615199,84.4843267 C160.882972,79.2336075 153.682,75.9158062 151.05309,75.0809979 L149.334109,74.5350048 L154.99136,44.2339158 C155.198209,43.1266212 156.266076,42.3969295 157.368588,42.6030801 C158.475175,42.8102514 159.204749,43.876724 158.9979,44.985039 L153.986668,71.82545 C157.285033,73.1878815 164.367806,76.7832719 166.485199,83.203539 C166.837758,84.2740938 166.257972,85.4283336 165.189085,85.7814432 C164.977142,85.851861 164.762142,85.885539 164.550199,85.885539" id="Fill-55" fill="#131371"></path>
                <g id="Group-59" transform="translate(187.488152, 217.739007)">
                    <mask id="mask-6" fill="white">
                        <use xlink:href="#path-5"></use>
                    </mask>
                    <g id="Clip-58"></g>
                    <path d="M24.9062725,26.0398932 C24.4039265,26.0398932 23.9015806,25.855174 23.5072441,25.4836945 L1.04840521,4.25731781 C0.230182464,3.48272192 0.192481043,2.19172877 0.964850711,1.37120822 C1.73823934,0.550687671 3.02823934,0.515989041 3.84646209,1.28752329 L26.3053009,22.5139 C27.1235237,23.2884959 27.1612251,24.579489 26.3888555,25.4000096 C25.9884052,25.8255781 25.4473389,26.0398932 24.9062725,26.0398932" id="Fill-57" fill="#131371" mask="url(#mask-6)"></path>
                </g>
            </g>
        </g>
    </g>
</svg>