<?xml version="1.0" encoding="UTF-8"?>
<svg width="303px" height="303px" viewBox="0 0 303 303" version="1.1" xmlns="http://www.w3.org/2000/svg" xmlns:xlink="http://www.w3.org/1999/xlink">
    <!-- Generator: Sketch 49.3 (51167) - http://www.bohemiancoding.com/sketch -->
    <title>Group 5</title>
    <desc>Created with Sketch.</desc>
    <defs></defs>
    <g id="Page-1" stroke="none" stroke-width="1" fill="none" fill-rule="evenodd">
        <g id="Artboard" transform="translate(-958.000000, -3043.000000)">
            <g id="Group-5" transform="translate(958.000000, 3043.000000)">
                <path d="M152.431437,80 C162.613929,80 172.153022,81.9266034 181.048442,85.7798101 C189.944959,89.6330168 197.721149,94.8823128 204.378659,101.527698 C211.036716,108.173084 216.295806,115.935341 220.156201,124.814469 C224.0155,133.693598 225.945972,143.214927 225.945972,153.378458 C225.945972,163.541715 224.0155,173.063592 220.156201,181.942447 C216.295806,190.822123 211.036716,198.583559 204.378659,205.229218 C197.721149,211.87433 189.94441,217.123626 181.048442,220.976832 C172.152748,224.830039 162.613929,226.756369 152.431437,226.756369 C142.248944,226.756369 132.709851,224.830039 123.814157,220.97738 C114.918463,217.124173 107.141724,211.874877 100.48394,205.229765 C93.8261567,198.584106 88.595041,190.821849 84.7905933,181.942994 C80.9861455,173.063592 79.0839216,163.541989 79.0839216,153.378458 C79.0839216,143.214927 80.9861455,133.693598 84.7905933,124.814469 C88.595041,115.935341 93.8261567,108.173084 100.48394,101.527698 C107.141724,94.8823128 114.918463,89.6330168 123.814157,85.7798101 C132.709851,81.9266034 142.248944,80 152.431437,80 Z M152.431437,88.0414749 C143.367899,88.0414749 134.86384,89.7447039 126.919257,93.151162 C118.974675,96.5576201 112.037153,101.220559 106.10669,107.139978 C100.176228,113.059397 95.5045896,119.984 92.0917761,127.913788 C88.6789627,135.843575 86.972556,144.331799 86.972556,153.378458 C86.972556,162.424844 88.6789627,170.913067 92.0917761,178.843128 C95.5045896,186.77319 100.176228,193.69752 106.10669,199.617212 C112.037153,205.536358 118.974675,210.19957 126.919257,213.606028 C134.86384,217.012212 143.367899,218.715715 152.431437,218.715715 C161.494974,218.715715 169.999034,217.012212 177.94389,213.606028 C185.888198,210.200391 192.825994,205.536358 198.756183,199.617212 C204.68692,193.69752 209.358284,186.77319 212.771097,178.843128 C216.184185,170.91252 217.890317,162.424296 217.890317,153.378458 C217.890317,144.332346 216.184185,135.843575 212.771097,127.913788 C209.359106,119.984 204.68692,113.059397 198.756183,107.139978 C192.825994,101.220559 185.888198,96.5576201 177.94389,93.151162 C169.999034,89.7447039 161.494974,88.0414749 152.431437,88.0414749 Z M171.229884,165.440944 C178.279028,162.983006 181.803737,158.34881 181.803737,151.53562 C181.803737,147.961631 181.21656,145.141531 180.041382,143.075318 C178.866754,141.009106 176.992504,139.305877 174.418632,137.965631 C173.187782,137.295508 171.733414,136.904603 170.054707,136.792916 C168.376549,136.681229 166.586769,136.653307 164.683722,136.709151 C162.781498,136.764994 160.768201,136.876682 158.641638,137.044212 C156.515623,137.211743 154.389608,137.295508 152.264142,137.295508 C150.138127,137.295508 148.012112,137.211743 145.886097,137.044212 C143.760082,136.876682 141.745963,136.764994 139.843739,136.709151 C137.941515,136.653307 136.151187,136.681229 134.472754,136.792916 C132.794321,136.904603 131.339679,137.295508 130.108828,137.965631 C127.535231,139.305877 125.688955,141.009106 124.57,143.075318 C123.451045,145.141531 122.891567,147.961631 122.891567,151.53562 C122.891567,158.34881 126.416276,162.983553 133.465694,165.440944 C134.696545,165.775732 136.039291,166.110246 137.493933,166.446128 C138.724784,166.668682 140.263347,166.892603 142.109623,167.11543 C143.955899,167.338804 146.109888,167.451313 148.57159,167.451313 L155.95642,167.451313 C158.306226,167.451313 160.432241,167.339626 162.335562,167.11543 C164.237785,166.892603 165.860271,166.668408 167.203017,166.446128 C168.768183,166.110793 170.110929,165.775732 171.229884,165.440944 Z M191.371078,141.148715 C191.371078,144.722704 190.978896,148.10124 190.19645,151.284324 C189.412907,154.466587 187.958539,157.343626 185.832524,159.912156 C183.706509,162.481235 180.768978,164.603291 177.020478,166.278324 C173.271978,167.953905 168.488718,169.014659 162.669877,169.461682 C163.565041,169.908156 164.712244,170.466866 166.110938,171.136715 C167.509632,171.807112 168.712509,173.091514 169.719569,174.989922 C170.278772,176.217933 170.642433,178.005475 170.810276,180.350905 C170.978394,182.695788 171.062041,185.097609 171.062041,187.554179 C171.062041,190.012117 171.034067,192.272961 170.978394,194.338899 C170.922172,196.405385 171.006368,197.662413 171.230159,198.108615 C171.677466,199.002112 172.321414,199.783648 173.160082,200.453497 C173.999573,201.123346 174.69892,201.625939 175.258123,201.961274 C175.817326,202.297156 175.984896,202.715709 175.761653,203.218302 C175.537862,203.720894 174.754593,204.028307 173.411847,204.138899 C172.740748,204.138899 171.901257,204.028307 170.894198,203.804112 C169.887138,203.580737 168.935203,203.189832 168.040862,202.631123 C167.146246,202.072961 166.390403,201.374642 165.774978,200.538084 C165.159552,199.699609 164.852114,198.611207 164.852114,197.27014 L164.852114,183.53262 C164.852114,181.969274 164.488453,180.852402 163.760584,180.182006 C163.03436,179.512156 162.279065,179.065134 161.4947,178.842034 L161.4947,196.935352 C161.4947,200.174279 161.886334,202.296335 162.669877,203.30152 C163.005289,203.748542 163.313276,204.223212 163.592741,204.725804 C163.872205,205.228397 164.040597,205.64695 164.096271,205.982285 C164.152493,206.317073 163.956401,206.512799 163.507996,206.568916 C163.060688,206.624486 162.222021,206.484877 160.990347,206.150363 C158.640541,205.592201 156.962108,204.307525 155.955323,202.297156 C154.948537,200.286788 154.444733,198.164732 154.444733,195.930989 L154.444733,178.173006 L150.753004,178.173006 L150.753004,195.930989 C150.753004,198.164732 150.277448,200.286788 149.326336,202.297156 C148.375224,204.307525 146.668817,205.592201 144.207116,206.150363 C142.976265,206.485698 142.165022,206.624486 141.773388,206.568916 C141.381754,206.513346 141.185937,206.317073 141.185937,205.982285 C141.185937,205.64695 141.35378,205.228397 141.689466,204.725804 C142.025153,204.223212 142.36084,203.748542 142.696526,203.30152 C142.920317,202.855045 143.172082,202.072961 143.451821,200.956089 C143.73156,199.839765 143.871429,198.499246 143.871429,196.935352 L143.871429,178.842034 C143.08816,179.06486 142.36084,179.511335 141.689466,180.182279 C141.018093,180.852128 140.682407,181.969 140.682407,183.532894 L140.682407,197.270413 C140.682407,198.610659 140.374694,199.699335 139.759269,200.53781 C139.143843,201.375737 138.388549,202.072687 137.493384,202.631397 C136.59822,203.189559 135.647108,203.581559 134.640049,203.803838 C133.632989,204.027212 132.793772,204.139173 132.122399,204.139173 C130.779653,204.028034 129.996384,203.721168 129.772593,203.218575 C129.548802,202.715983 129.716646,202.296883 130.276123,201.962095 C130.835601,201.626212 131.534948,201.12362 132.374164,200.453223 C133.213381,199.783922 133.85678,199.001564 134.304362,198.108888 C134.528153,197.550179 134.612075,196.070324 134.556127,193.668503 C134.500179,191.267503 134.472205,188.614385 134.472205,185.711341 C133.577041,186.046676 132.402138,186.27005 130.947496,186.381737 C129.492854,186.49233 127.870369,186.381737 126.080041,186.045855 C123.058862,185.487145 120.765004,184.510978 119.198466,183.113793 C117.631929,181.717704 116.12134,179.511883 114.666698,176.49633 C113.883429,175.04467 113.016239,173.844034 112.065127,172.894419 C111.114015,171.945352 110.274799,171.191464 109.547478,170.632754 C108.820157,170.074592 108.260679,169.599922 107.869045,169.209017 C107.47741,168.818112 107.449437,168.455128 107.785123,168.119793 C108.456496,167.338257 109.379634,167.002922 110.554537,167.114061 C111.72944,167.225749 112.428787,167.393553 112.652578,167.616654 C113.995325,168.174816 115.338071,169.347804 116.680817,171.135346 C118.023563,172.923162 119.422257,174.430391 120.876899,175.658402 C121.548272,176.216564 122.387489,176.774726 123.394549,177.333436 C124.401608,177.891598 125.520563,178.283598 126.751414,178.505877 C127.982265,178.729251 129.325011,178.729251 130.779653,178.505877 C132.234295,178.283324 133.688937,177.668497 135.143578,176.66386 C135.479265,175.211106 136.010769,174.067134 136.73809,173.228659 C137.46541,172.390732 138.248679,171.720883 139.087896,171.218291 C139.927112,170.715698 140.710381,170.324793 141.437701,170.045302 C142.165022,169.766084 142.752474,169.514788 143.200056,169.291413 C137.045802,168.844939 132.010504,167.812654 128.09416,166.19319 C124.177817,164.573726 121.072716,162.506693 118.778858,159.994006 C116.485,157.481045 114.918463,154.605101 114.079246,151.365899 C113.24003,148.126972 112.820422,144.720514 112.820422,141.146525 C112.820422,137.460849 113.379899,134.166078 114.498854,131.262212 C115.61781,128.358346 117.184347,125.789542 119.198466,123.555799 C118.303302,120.875307 117.99559,118.055207 118.275328,115.095497 C118.555067,112.135788 119.142519,109.483218 120.037683,107.137788 C124.289713,107.361162 127.842396,108.254659 130.695731,109.818279 C133.549067,111.381899 135.535213,112.666302 136.654168,113.671486 C141.465675,112.33124 146.445026,111.661117 151.59222,111.661117 L152.767123,111.661117 C157.578356,111.661117 162.223118,112.219553 166.697841,113.336425 C167.928692,112.33124 169.942812,111.102682 172.740474,109.650749 C175.537588,108.198816 179.007172,107.361162 183.146483,107.137788 C184.041647,109.371531 184.629099,111.884492 184.908838,114.67667 C185.188851,117.468849 184.993034,120.149341 184.32166,122.718145 C186.559571,124.951888 188.292854,127.604458 189.524528,130.675855 C190.755653,133.749441 191.371078,137.239665 191.371078,141.148715 Z M152.09575,137.295508 L152.263593,137.295508 L152.431437,137.295508 L152.09575,137.295508 Z M173.747534,150.362905 C173.747534,151.926525 173.328748,153.266771 172.488709,154.383642 C171.649218,155.500514 170.614459,156.058676 169.383608,156.058676 C168.153306,156.058676 167.146246,155.500514 166.362429,154.383642 C165.579709,153.266497 165.187252,151.926251 165.187252,150.362905 C165.187252,148.799559 165.579983,147.459039 166.362429,146.342168 C167.145424,145.225296 168.152483,144.66686 169.383608,144.66686 C170.614733,144.66686 171.650041,145.225296 172.488709,146.342168 C173.3282,147.459039 173.747534,148.799285 173.747534,150.362905 Z M140.85025,150.362905 C140.85025,151.926525 140.430642,153.266771 139.591425,154.383642 C138.752209,155.500514 137.717175,156.058676 136.486325,156.058676 C135.255474,156.058676 134.248414,155.500514 133.465146,154.383642 C132.681877,153.266497 132.290243,151.926251 132.290243,150.362905 C132.290243,148.799559 132.681877,147.459039 133.465146,146.342168 C134.248414,145.225296 135.255474,144.66686 136.486325,144.66686 C137.717175,144.66686 138.752209,145.225296 139.591425,146.342168 C140.430916,147.459039 140.85025,148.799285 140.85025,150.362905 Z" id="Shape" fill="#0677DB" fill-rule="nonzero"></path>
                <path d="M50.8433,252.7882 C50.5173,252.7842 50.2363,252.6632 50.0023,252.4262 C49.7623,252.1842 49.6443,251.8982 49.6463,251.5742 C49.6473,251.2492 49.7643,250.9762 49.9993,250.7502 C50.2393,250.5182 50.5223,250.4042 50.8463,250.4082 C51.1703,250.4132 51.4483,250.5352 51.6843,250.7742 C51.9143,251.0072 52.0283,251.2832 52.0293,251.6062 C52.0303,251.9312 51.9143,252.2132 51.6783,252.4492 C51.4473,252.6802 51.1703,252.7932 50.8433,252.7882" id="Fill-1" fill="#131371"></path>
                <path d="M33.063,236.9435 C32.351,236.0065 32,235.5385 31.311,234.5995 C31.664,234.3595 31.84,234.2365 32.193,233.9965 C32.877,234.9295 33.225,235.3955 33.932,236.3245 C34.806,235.7005 35.242,235.3915 36.116,234.7675 C35.27,233.6545 34.854,233.0955 34.041,231.9775 C34.398,231.7355 34.577,231.6155 34.934,231.3735 C36.047,232.9045 36.62,233.6665 37.798,235.1885 C35.064,237.1775 33.698,238.1725 30.964,240.1625 C29.734,238.5715 29.136,237.7745 27.971,236.1735 C28.365,235.9825 28.562,235.8865 28.955,235.6935 C29.752,236.7875 30.16,237.3345 30.989,238.4235 C31.819,237.8315 32.233,237.5355 33.063,236.9435" id="Fill-3" fill="#131371"></path>
                <path d="M25.6807,230.4845 C25.6417,230.8225 25.7777,231.2235 26.0937,231.6865 C26.3127,232.0055 26.4247,232.1665 26.6457,232.4845 C27.6167,231.8615 28.1017,231.5505 29.0737,230.9275 C28.8477,230.6035 28.7367,230.4415 28.5137,230.1165 C28.2217,229.6885 27.9027,229.4265 27.5507,229.3315 C27.2007,229.2355 26.8047,229.3215 26.3657,229.5925 C25.9487,229.8495 25.7207,230.1475 25.6807,230.4845 M27.1287,228.0825 C27.6447,228.1495 28.1267,228.3565 28.5787,228.7065 C29.3347,227.1925 29.7247,226.4465 30.5197,224.9675 C30.8427,225.4635 31.0057,225.7105 31.3347,226.2045 C30.5717,227.5725 30.1967,228.2635 29.4657,229.6625 C29.6587,229.9425 29.7557,230.0835 29.9507,230.3635 C31.1237,229.6115 31.7097,229.2355 32.8837,228.4835 C33.1777,228.9075 33.3247,229.1185 33.6227,229.5425 C30.7887,231.3955 29.3727,232.3215 26.5387,234.1755 C26.0157,233.4325 25.7577,233.0625 25.2477,232.3175 C24.0587,230.5795 24.1977,229.2815 25.5997,228.4355 C26.1047,228.1305 26.6147,228.0155 27.1287,228.0825" id="Fill-5" fill="#131371"></path>
                <path d="M25.0884,222.2326 C23.8334,223.4256 23.2104,224.0296 21.9714,225.2436 C23.6824,224.7976 24.5354,224.5676 26.2364,224.0996 C25.7694,223.3536 25.5404,222.9806 25.0884,222.2326 M27.3364,223.7746 C28.1564,223.5466 28.5684,223.4346 29.3864,223.2016 C29.6644,223.6396 29.8014,223.8586 30.0844,224.2956 C26.6444,225.2146 24.9134,225.6496 21.4294,226.4696 C21.0794,225.9066 20.9054,225.6256 20.5634,225.0616 C23.0084,222.5526 24.2514,221.3216 26.7714,218.9086 C27.0384,219.3646 27.1724,219.5906 27.4444,220.0446 C26.8334,220.6136 26.5294,220.9006 25.9224,221.4746 C26.4774,222.3976 26.7594,222.8556 27.3364,223.7746" id="Fill-7" fill="#131371"></path>
                <path d="M8.6987,197.6354 C8.9087,198.2304 9.0157,198.5294 9.2337,199.1234 C11.6487,198.3274 12.8547,197.9284 15.2687,197.1334 C15.0607,196.5634 14.9587,196.2794 14.7577,195.7104 C15.1777,195.5764 15.3877,195.5074 15.8087,195.3744 C16.3617,196.9434 16.6537,197.7294 17.2627,199.2954 C16.8467,199.4404 16.6377,199.5124 16.2217,199.6574 C16.0007,199.0894 15.8927,198.8044 15.6787,198.2354 C13.2717,199.0514 12.0677,199.4564 9.6597,200.2714 C9.8837,200.8654 9.9977,201.1634 10.2287,201.7574 C9.8177,201.9024 9.6107,201.9754 9.1997,202.1194 C8.5537,200.4604 8.2457,199.6284 7.6597,197.9664 C8.0747,197.8344 8.2827,197.7674 8.6987,197.6354" id="Fill-9" fill="#131371"></path>
                <path d="M12.7612,189.4284 C13.1962,189.5274 13.5722,189.7374 13.8922,190.0544 C14.2132,190.3714 14.4552,190.7874 14.6172,191.3034 C14.9352,192.3084 14.8372,193.2124 14.3102,194.0294 C13.8912,193.8884 13.6802,193.8174 13.2622,193.6734 C13.6672,193.0064 13.7562,192.3224 13.5322,191.6134 C13.4072,191.2204 13.1932,190.9284 12.8832,190.7354 C12.5742,190.5424 12.2052,190.5034 11.7822,190.6194 C11.5352,190.6864 11.3402,190.7854 11.1972,190.9114 C11.0542,191.0384 10.9482,191.2174 10.8762,191.4464 C10.8042,191.6764 10.7552,191.9914 10.7362,192.3894 C10.6972,193.2074 10.5592,193.8534 10.3022,194.3164 C10.0472,194.7784 9.6162,195.1034 9.0062,195.2874 C8.5712,195.4194 8.1522,195.4344 7.7482,195.3334 C7.3442,195.2324 6.9882,195.0274 6.6852,194.7224 C6.3822,194.4184 6.1582,194.0384 6.0152,193.5844 C5.7232,192.6564 5.8212,191.7934 6.3032,191.0044 C6.7062,191.1584 6.9102,191.2354 7.3132,191.3874 C6.9672,191.9884 6.8892,192.5974 7.0802,193.2074 C7.1972,193.5784 7.3862,193.8514 7.6412,194.0274 C7.8972,194.2024 8.1952,194.2394 8.5352,194.1384 C8.7492,194.0764 8.9182,193.9734 9.0382,193.8344 C9.1582,193.6954 9.2432,193.4954 9.2942,193.2354 C9.3442,192.9744 9.3812,192.6154 9.4042,192.1624 C9.4402,191.4454 9.5992,190.8644 9.8732,190.4224 C10.1462,189.9814 10.6452,189.6674 11.3642,189.4754 C11.8602,189.3444 12.3252,189.3294 12.7612,189.4284" id="Fill-11" fill="#131371"></path>
                <path d="M4.9629,153.5944 C4.7429,153.8264 4.6369,154.1494 4.6399,154.5594 C4.6439,154.9354 4.6459,155.1234 4.6519,155.5004 C5.7809,155.4744 6.3449,155.4604 7.4739,155.4344 C7.4679,155.0804 7.4679,154.9034 7.4649,154.5494 C7.4569,153.6694 7.0049,153.2334 6.1009,153.2404 C5.5619,153.2444 5.1829,153.3624 4.9629,153.5944 M1.3649,153.8554 C1.1759,154.0644 1.0799,154.3654 1.0849,154.7654 C1.0879,155.0924 1.0879,155.2544 1.0939,155.5814 C2.0849,155.5584 2.5799,155.5494 3.5699,155.5254 C3.5639,155.1774 3.5609,155.0024 3.5569,154.6534 C3.5529,154.2734 3.4529,153.9914 3.2489,153.8064 C3.0459,153.6214 2.7229,153.5324 2.2839,153.5364 C1.8609,153.5404 1.5539,153.6464 1.3649,153.8554 M8.0059,152.8034 C8.3849,153.2764 8.5779,153.8774 8.5849,154.6064 C8.5929,155.3624 8.5959,155.7384 8.6149,156.4944 C5.1839,156.6004 3.4689,156.6554 0.0369,156.7614 C0.0179,156.0114 0.0089,155.6354 0.0009,154.8854 C-0.0081,154.1594 0.1609,153.5564 0.4969,153.0884 C0.8339,152.6194 1.3959,152.3864 2.1749,152.3854 C2.6729,152.3844 3.0809,152.5034 3.3989,152.7374 C3.7159,152.9704 4.0239,153.6144 4.0239,153.6144 C4.0379,153.6134 4.3339,152.8124 4.6559,152.5234 C4.9759,152.2344 5.4619,152.0934 6.1079,152.0934 C6.9959,152.0934 7.6269,152.3304 8.0059,152.8034" id="Fill-13" fill="#131371"></path>
                <path d="M5.5283,147.383 C3.8013,147.704 2.9393,147.87 1.2143,148.215 C2.9083,148.645 3.7583,148.856 5.4573,149.265 C5.4813,148.512 5.4943,148.135 5.5283,147.383 M6.5673,149.511 C7.3873,149.707 7.7983,149.802 8.6193,149.993 C8.6083,150.437 8.6023,150.659 8.5943,151.104 C5.1753,150.26 3.4723,149.815 0.0703,148.875 C0.0893,148.308 0.0993,148.024 0.1243,147.457 C3.5923,146.694 5.3313,146.339 8.8073,145.676 C8.7793,146.132 8.7663,146.358 8.7423,146.815 C7.9083,146.963 7.4903,147.038 6.6563,147.192 C6.6123,148.118 6.5943,148.582 6.5673,149.511" id="Fill-15" fill="#131371"></path>
                <path d="M0.687,140.0861 C0.858,139.7851 1.108,139.5021 1.435,139.2431 C1.768,139.5051 1.936,139.6391 2.269,139.8991 C1.807,140.2711 1.548,140.7161 1.501,141.2341 C1.452,141.7781 1.681,142.2401 2.186,142.6151 C2.693,142.9911 3.519,143.2121 4.66,143.2801 C5.784,143.3471 6.625,143.2341 7.184,142.9431 C7.745,142.6521 8.048,142.2391 8.097,141.7001 C8.125,141.3901 8.084,141.1221 7.978,140.8921 C7.872,140.6631 7.713,140.4291 7.505,140.1911 C7.877,140.0121 8.063,139.9201 8.437,139.7431 C9.059,140.3201 9.331,141.0091 9.257,141.8201 C9.207,142.3671 8.996,142.8421 8.619,143.2531 C8.242,143.6651 7.709,143.9771 7.022,144.1871 C6.334,144.3981 5.521,144.4831 4.578,144.4341 C3.65,144.3861 2.858,144.2141 2.207,143.9171 C1.555,143.6181 1.075,143.2321 0.764,142.7551 C0.453,142.2771 0.32,141.7591 0.37,141.2041 C0.41,140.7611 0.516,140.3871 0.687,140.0861" id="Fill-17" fill="#131371"></path>
                <path d="M1.3843,134.0124 C1.4553,133.5164 1.4903,133.2674 1.5653,132.7724 C2.9693,133.9024 3.6803,134.4574 5.1073,135.5434 C7.0953,134.7694 8.0913,134.3974 10.0893,133.6884 C10.0103,134.1964 9.9723,134.4484 9.8993,134.9564 C7.9513,135.6404 6.9773,136.0004 5.0373,136.7454 C3.5663,135.6754 2.8343,135.1284 1.3843,134.0124 M9.4583,138.3284 C6.0463,138.0004 4.3413,137.8374 0.9283,137.5094 C0.9813,137.0574 1.0093,136.8304 1.0663,136.3804 C4.4743,136.7334 6.1783,136.9104 9.5873,137.2634 C9.5333,137.6894 9.5083,137.9024 9.4583,138.3284" id="Fill-19" fill="#131371"></path>
                <path d="M5.6777,130.3864 C5.8417,129.4464 5.9277,128.9774 6.1077,128.0414 C6.5337,128.1114 6.7457,128.1454 7.1717,128.2154 C6.9927,129.1444 6.9067,129.6114 6.7447,130.5444 C7.8197,130.7024 8.3597,130.7844 9.4337,130.9434 C9.6287,129.8254 9.7307,129.2674 9.9487,128.1564 C10.3787,128.2284 10.5947,128.2634 11.0247,128.3354 C10.7257,129.8584 10.5877,130.6234 10.3327,132.1564 C6.9417,131.6794 5.2457,131.4414 1.8547,130.9654 C2.1207,129.3634 2.2657,128.5664 2.5767,126.9754 C2.9977,127.0984 3.2087,127.1594 3.6297,127.2814 C3.4177,128.3694 3.3167,128.9144 3.1267,130.0084 C4.1477,130.1594 4.6567,130.2354 5.6777,130.3864" id="Fill-21" fill="#131371"></path>
                <path d="M5.332,122.4591 C4.836,122.6971 4.525,123.0841 4.406,123.6201 C4.352,123.8611 4.324,123.9831 4.271,124.2251 C6.77,124.6961 8.02,124.9321 10.519,125.4031 C10.57,125.1671 10.598,125.0511 10.65,124.8151 C10.901,123.6861 9.981,122.9041 7.871,122.4711 C6.674,122.2261 5.827,122.2211 5.332,122.4591 M11.242,122.8711 C11.729,123.5451 11.88,124.2951 11.695,125.1271 C11.561,125.7351 11.496,126.0381 11.369,126.6481 C8.003,126.0401 6.319,125.7371 2.953,125.1301 C3.079,124.5251 3.144,124.2231 3.276,123.6211 C3.487,122.6681 3.959,121.9631 4.681,121.5121 C5.405,121.0621 6.559,121.0081 8.141,121.3461 C9.723,121.6841 10.753,122.1961 11.242,122.8711" id="Fill-23" fill="#131371"></path>
                <path d="M21.3203,88.6437 C21.0193,88.7497 20.7773,88.9827 20.5913,89.3417 C20.4223,89.6717 20.3373,89.8377 20.1693,90.1677 C21.1793,90.6427 21.6843,90.8777 22.6953,91.3517 C22.8533,91.0407 22.9313,90.8847 23.0913,90.5747 C23.4873,89.8037 23.2903,89.2267 22.4873,88.8347 C22.0083,88.6017 21.6213,88.5377 21.3203,88.6437 M18.0193,87.2867 C17.7563,87.3857 17.5333,87.6087 17.3523,87.9587 C17.2053,88.2457 17.1313,88.3877 16.9853,88.6737 C17.8713,89.0897 18.3163,89.2997 19.2023,89.7157 C19.3573,89.4097 19.4343,89.2557 19.5913,88.9507 C19.7633,88.6177 19.8003,88.3247 19.7053,88.0727 C19.6103,87.8227 19.3693,87.6017 18.9783,87.4127 C18.6023,87.2297 18.2823,87.1877 18.0193,87.2867 M24.3713,89.2897 C24.4903,89.8717 24.3843,90.4777 24.0563,91.1177 C23.7163,91.7797 23.5483,92.1117 23.2163,92.7777 C20.1333,91.3597 18.5913,90.6507 15.5083,89.2327 C15.8373,88.5727 16.0063,88.2437 16.3423,87.5867 C16.6693,86.9497 17.0933,86.4977 17.6053,86.2357 C18.1163,85.9737 18.7183,86.0167 19.4083,86.3577 C19.8483,86.5757 20.1573,86.8597 20.3313,87.2037 C20.5053,87.5477 20.4793,88.2457 20.4793,88.2457 C20.4913,88.2517 21.1213,87.6837 21.5373,87.5717 C21.9523,87.4607 22.4473,87.5487 23.0193,87.8327 C23.8033,88.2237 24.2523,88.7107 24.3713,89.2897" id="Fill-25" fill="#131371"></path>
                <path d="M27.2427,85.2433 C27.0307,85.6143 26.9257,85.8013 26.7157,86.1743 C25.5727,85.5733 25.0007,85.2733 23.8577,84.6723 C21.5747,84.4563 20.4267,84.3633 18.1237,84.2083 C18.3627,83.7693 18.4847,83.5513 18.7267,83.1143 C20.4627,83.2943 21.3257,83.3913 23.0507,83.6043 C21.9417,82.3053 21.3927,81.6493 20.3067,80.3243 C20.5467,79.9113 20.6677,79.7063 20.9097,79.2953 C22.2797,81.0873 22.9747,81.9713 24.3857,83.7143 C25.5287,84.3253 26.1007,84.6313 27.2427,85.2433" id="Fill-27" fill="#131371"></path>
                <path d="M48.5942,56.3209 C48.3012,56.6349 48.1562,56.7919 47.8652,57.1079 C45.7122,55.1469 44.6362,54.1669 42.4832,52.2049 C41.9342,52.7999 41.6622,53.0999 41.1212,53.7019 C40.7772,53.3979 40.6052,53.2449 40.2612,52.9399 C41.6632,51.3789 42.3762,50.6089 43.8272,49.0919 C44.1282,49.4429 44.2772,49.6179 44.5782,49.9679 C44.0432,50.5289 43.7782,50.8089 43.2492,51.3759 C45.3872,53.3529 46.4562,54.3429 48.5942,56.3209" id="Fill-29" fill="#131371"></path>
                <path d="M50.4561,48.903 C49.8441,49.507 49.5411,49.81 48.9371,50.422 C50.0301,51.499 50.5771,52.039 51.6701,53.115 C51.3691,53.421 51.2191,53.575 50.9191,53.882 C48.4991,51.534 47.2891,50.36 44.8701,48.011 C45.1871,47.685 45.3451,47.523 45.6641,47.199 C46.6431,48.163 47.1321,48.644 48.1101,49.608 C48.7191,48.991 49.0251,48.685 49.6421,48.076 C48.6781,47.098 48.1961,46.61 47.2321,45.632 C47.5561,45.312 47.7201,45.152 48.0461,44.835 C50.3941,47.255 51.5681,48.466 53.9161,50.886 C53.6081,51.185 53.4551,51.335 53.1491,51.636 C52.0721,50.544 51.5331,49.996 50.4561,48.903" id="Fill-31" fill="#131371"></path>
                <path d="M52.9883,45.1193 C53.6873,44.4663 54.0393,44.1413 54.7473,43.4983 C55.0313,43.8153 55.1723,43.9723 55.4563,44.2893 C54.7533,44.9273 54.4043,45.2493 53.7093,45.8983 C54.4373,46.6833 54.8023,47.0773 55.5303,47.8623 C56.3613,47.0853 56.7803,46.7003 57.6253,45.9383 C57.9113,46.2593 58.0523,46.4183 58.3383,46.7403 C57.1813,47.7833 56.6093,48.3123 55.4783,49.3853 C53.1663,46.9283 52.0123,45.7013 49.7013,43.2453 C50.8833,42.1253 51.4803,41.5733 52.6883,40.4823 C52.9363,40.8373 53.0603,41.0143 53.3093,41.3693 C52.4823,42.1163 52.0733,42.4943 51.2593,43.2543 C51.9493,43.9993 52.2973,44.3743 52.9883,45.1193" id="Fill-33" fill="#131371"></path>
                <path d="M67.6328,30.6339 C67.1478,30.3209 66.7038,30.3079 66.3118,30.5959 C65.9188,30.8839 65.7938,31.3149 65.9308,31.8829 C66.0698,32.4509 66.4648,33.1879 67.1178,34.0949 C67.7598,34.9879 68.3288,35.5879 68.8148,35.8959 C69.3018,36.2059 69.7278,36.2259 70.0978,35.9539 C70.4718,35.6789 70.5908,35.2619 70.4548,34.6949 C70.3198,34.1289 69.9368,33.3869 69.3048,32.4759 C68.6738,31.5639 68.1178,30.9479 67.6328,30.6339 M71.5148,34.8209 C71.6218,35.7169 71.3618,36.3909 70.7318,36.8529 C70.1008,37.3159 69.3958,37.3579 68.6038,36.9779 C67.8118,36.5999 67.0128,35.8699 66.2138,34.7779 C65.4238,33.6979 64.9618,32.7029 64.8418,31.7929 C64.7218,30.8829 64.9998,30.1769 65.6698,29.6859 C66.3388,29.1949 67.0828,29.1489 67.8848,29.5419 C68.6868,29.9369 69.4648,30.6959 70.2268,31.8169 C70.9808,32.9229 71.4058,33.9249 71.5148,34.8209" id="Fill-35" fill="#131371"></path>
                <path d="M71.5088,27.0851 C71.2388,27.2681 71.1048,27.3591 70.8348,27.5431 C71.5548,28.6471 71.9138,29.2001 72.6338,30.3031 C72.9008,30.1211 73.0358,30.0301 73.3038,29.8491 C73.6708,29.6011 73.8858,29.3001 73.9488,28.9431 C74.0118,28.5881 73.8808,28.1491 73.5538,27.6311 C72.9868,26.7331 72.3028,26.5471 71.5088,27.0851 M75.0628,29.1521 C74.9238,29.7871 74.5308,30.3201 73.8798,30.7601 C73.6168,30.9381 73.4858,31.0271 73.2238,31.2071 C73.8818,32.2151 74.2108,32.7191 74.8688,33.7281 C74.5188,33.9681 74.3438,34.0901 73.9948,34.3321 C72.1268,31.5151 71.1928,30.1071 69.3248,27.2901 C69.9398,26.8631 70.2478,26.6531 70.8668,26.2331 C71.5858,25.7471 72.2658,25.5671 72.8908,25.6861 C73.5178,25.8051 74.0618,26.2431 74.5268,26.9921 C75.0268,27.7981 75.2008,28.5181 75.0628,29.1521" id="Fill-37" fill="#131371"></path>
                <path d="M77.5698,26.1945 C78.3788,25.6885 78.7858,25.4385 79.6018,24.9445 C79.8138,25.3155 79.9188,25.5005 80.1308,25.8715 C79.3198,26.3615 78.9158,26.6105 78.1128,27.1125 C78.6598,28.0365 78.9348,28.4985 79.4818,29.4235 C80.4438,28.8205 80.9268,28.5265 81.8998,27.9415 C82.1118,28.3175 82.2168,28.5045 82.4298,28.8795 C81.0978,29.6795 80.4378,30.0905 79.1258,30.9235 C77.3808,28.0265 76.5088,26.5775 74.7628,23.6795 C76.1328,22.8085 76.8228,22.3805 78.2148,21.5445 C78.3828,21.9455 78.4668,22.1475 78.6368,22.5495 C77.6858,23.1225 77.2118,23.4125 76.2708,24.0015 C76.7898,24.8795 77.0498,25.3165 77.5698,26.1945" id="Fill-39" fill="#131371"></path>
                <path d="M81.1733,21.2658 C81.9023,22.3938 82.4783,23.3538 82.9063,24.1448 C83.6373,25.4958 84.0043,26.1718 84.7343,27.5228 C84.4053,27.7118 84.2413,27.8078 83.9133,28.0008 C82.2823,25.0328 81.4673,23.5498 79.8373,20.5818 C80.3463,20.2838 80.6023,20.1338 81.1143,19.8398 C83.2233,21.9518 84.2593,23.0208 86.3023,25.1828 C85.9853,24.6658 85.7033,24.1978 85.4543,23.7798 C85.2053,23.3608 84.9303,22.8638 84.6283,22.2828 C83.9163,20.9138 83.5613,20.2298 82.8503,18.8608 C83.2013,18.6648 83.3783,18.5688 83.7313,18.3748 C85.2743,21.3918 86.0443,22.9008 87.5873,25.9178 C87.0983,26.1858 86.8563,26.3218 86.3693,26.5938 C84.3243,24.4368 83.2843,23.3718 81.1733,21.2658" id="Fill-41" fill="#131371"></path>
                <path d="M120.5186,11.6837 C120.4146,12.1107 120.2116,12.4727 119.9076,12.7747 C119.6026,13.0767 119.2076,13.2947 118.7236,13.4277 C117.7786,13.6867 116.9396,13.5347 116.1936,12.9617 C116.3336,12.5557 116.4046,12.3527 116.5476,11.9457 C117.1596,12.3867 117.7946,12.5157 118.4616,12.3327 C118.8316,12.2317 119.1056,12.0317 119.2936,11.7347 C119.4816,11.4367 119.5296,11.0767 119.4306,10.6497 C119.3726,10.4007 119.2866,10.2027 119.1716,10.0537 C119.0566,9.9047 118.8936,9.7887 118.6816,9.7047 C118.4676,9.6207 118.1736,9.5557 117.8016,9.5147 C117.0406,9.4297 116.4426,9.2537 116.0186,8.9717 C115.5946,8.6917 115.3016,8.2427 115.1446,7.6277 C115.0316,7.1877 115.0276,6.7717 115.1316,6.3787 C115.2346,5.9847 115.4306,5.6447 115.7206,5.3627 C116.0116,5.0787 116.3726,4.8787 116.7996,4.7627 C117.6736,4.5247 118.4786,4.6657 119.2056,5.1867 C119.0506,5.5797 118.9736,5.7777 118.8216,6.1697 C118.2686,5.7937 117.7006,5.6837 117.1266,5.8397 C116.7776,5.9347 116.5186,6.1047 116.3506,6.3487 C116.1816,6.5927 116.1386,6.8867 116.2236,7.2307 C116.2766,7.4477 116.3696,7.6197 116.4966,7.7467 C116.6226,7.8737 116.8086,7.9687 117.0496,8.0337 C117.2906,8.0987 117.6226,8.1567 118.0446,8.2047 C118.7136,8.2807 119.2556,8.4687 119.6606,8.7627 C120.0666,9.0577 120.3466,9.5687 120.5086,10.2927 C120.6196,10.7927 120.6226,11.2567 120.5186,11.6837" id="Fill-43" fill="#131371"></path>
                <path d="M124.3496,4.9098 C124.0356,4.4218 123.6386,4.2288 123.1656,4.3358 C122.6926,4.4428 122.4026,4.7888 122.2986,5.3718 C122.1946,5.9568 122.2556,6.8018 122.4836,7.9108 C122.7076,9.0028 122.9816,9.7908 123.2986,10.2748 C123.6166,10.7618 123.9946,10.9528 124.4406,10.8518 C124.8926,10.7498 125.1726,10.4108 125.2776,9.8288 C125.3826,9.2488 125.3316,8.4048 125.1266,7.3008 C124.9216,6.1958 124.6636,5.3988 124.3496,4.9098 M126.1866,10.3778 C125.9226,11.2528 125.4146,11.7748 124.6556,11.9458 C123.8946,12.1178 123.2376,11.8688 122.6716,11.1938 C122.1046,10.5188 121.6756,9.5178 121.3886,8.1768 C121.1056,6.8518 121.0866,5.7418 121.3456,4.8468 C121.6036,3.9528 122.1426,3.4118 122.9496,3.2298 C123.7566,3.0468 124.4516,3.3058 125.0216,3.9998 C125.5916,4.6938 125.9906,5.7168 126.2316,7.0678 C126.4686,8.4008 126.4516,9.5038 126.1866,10.3778" id="Fill-45" fill="#131371"></path>
                <path d="M132.2861,7.4469 C132.3651,8.0219 132.3471,8.5439 132.2341,9.0139 C132.1201,9.4859 131.9161,9.8749 131.6241,10.1799 C131.3321,10.4849 130.9611,10.6759 130.5081,10.7569 C129.8251,10.8799 129.2541,10.7169 128.7881,10.2599 C128.3231,9.8029 128.0111,9.1299 127.8611,8.2409 C127.4791,5.9729 127.2901,4.8389 126.9081,2.5699 C127.3521,2.4829 127.5751,2.4389 128.0201,2.3549 C128.3681,4.5199 128.5421,5.6029 128.8901,7.7679 C129.0021,8.4679 129.1781,8.9709 129.4111,9.2759 C129.6461,9.5819 129.9531,9.6989 130.3361,9.6309 C130.7261,9.5609 130.9861,9.3419 131.1171,8.9709 C131.2471,8.5999 131.2631,8.0629 131.1611,7.3589 C130.8481,5.1889 130.6911,4.1029 130.3781,1.9319 C130.8291,1.8549 131.0541,1.8179 131.5061,1.7449 C131.8181,4.0259 131.9741,5.1659 132.2861,7.4469" id="Fill-47" fill="#131371"></path>
                <path d="M136.5078,2.4411 C136.2628,2.2471 135.9098,2.1791 135.4468,2.2411 C135.1268,2.2831 134.9668,2.3051 134.6468,2.3501 C134.7818,3.5091 134.8488,4.0881 134.9848,5.2481 C135.3088,5.2021 135.4698,5.1781 135.7958,5.1351 C136.2238,5.0781 136.5378,4.9181 136.7338,4.6501 C136.9298,4.3831 137.0028,3.9891 136.9488,3.4701 C136.8988,2.9761 136.7528,2.6351 136.5078,2.4411 M137.8398,4.8641 C137.6068,5.2921 137.2788,5.6261 136.8518,5.8631 C137.7438,7.2521 138.1798,7.9501 139.0368,9.3531 C138.5398,9.4091 138.2908,9.4391 137.7958,9.4991 C137.0158,8.1731 136.6168,7.5121 135.8078,6.1981 C135.5268,6.2361 135.3858,6.2541 135.1048,6.2941 C135.2678,7.6941 135.3518,8.3971 135.5148,9.7971 C135.0908,9.8571 134.8768,9.8861 134.4538,9.9491 C134.0318,6.5491 133.8208,4.8481 133.3998,1.4491 C134.1438,1.3391 134.5168,1.2871 135.2618,1.1871 C137.0028,0.9531 137.9548,1.6881 138.1098,3.3351 C138.1648,3.9301 138.0728,4.4371 137.8398,4.8641" id="Fill-49" fill="#131371"></path>
                <path d="M143.5273,0.3683 C143.8483,0.4863 144.1603,0.6823 144.4623,0.9613 C144.2463,1.3343 144.1393,1.5213 143.9253,1.8953 C143.4943,1.5033 143.0163,1.3283 142.4973,1.3703 C141.9523,1.4153 141.5253,1.7183 141.2223,2.2823 C140.9203,2.8473 140.8153,3.6993 140.9023,4.8393 C140.9863,5.9613 141.2133,6.7743 141.5763,7.2783 C141.9393,7.7823 142.3863,8.0113 142.9253,7.9673 C143.2363,7.9423 143.4993,7.8543 143.7123,7.7103 C143.9253,7.5653 144.1343,7.3693 144.3413,7.1223 C144.5693,7.4603 144.6813,7.6313 144.9073,7.9703 C144.4203,8.6833 143.7753,9.0683 142.9633,9.1343 C142.4153,9.1793 141.9143,9.0513 141.4583,8.7473 C141.0013,8.4453 140.6233,7.9713 140.3233,7.3273 C140.0233,6.6833 139.8323,5.8953 139.7533,4.9543 C139.6753,4.0293 139.7373,3.2203 139.9443,2.5263 C140.1513,1.8303 140.4653,1.2853 140.8963,0.8963 C141.3253,0.5073 141.8203,0.2883 142.3763,0.2433 C142.8203,0.2063 143.2063,0.2503 143.5273,0.3683" id="Fill-51" fill="#131371"></path>
                <path d="M147.6133,3.776 C148.5733,3.734 149.0553,3.716 150.0183,3.691 C150.0253,4.124 150.0283,4.34 150.0343,4.774 C149.0773,4.797 148.6003,4.815 147.6473,4.857 C147.6803,5.945 147.6973,6.49 147.7303,7.579 C148.8723,7.529 149.4443,7.511 150.5893,7.486 C150.5933,7.924 150.5943,8.143 150.5983,8.58 C149.0293,8.613 148.2473,8.643 146.6843,8.725 C146.5553,5.297 146.4923,3.581 146.3633,0.152 C147.9963,0.067 148.8143,0.036 150.4523,0 C150.4063,0.439 150.3823,0.659 150.3363,1.097 C149.2153,1.123 148.6533,1.141 147.5353,1.191 C147.5663,2.224 147.5823,2.742 147.6133,3.776" id="Fill-53" fill="#131371"></path>
                <path d="M188.8105,4.7941 C189.0965,5.0191 189.3505,5.3171 189.5695,5.6881 C189.2415,5.9661 189.0805,6.1051 188.7545,6.3851 C188.4405,5.8611 188.0135,5.5261 187.4815,5.3851 C186.9245,5.2361 186.4095,5.3781 185.9395,5.8101 C185.4695,6.2421 185.1095,7.0171 184.8545,8.1321 C184.6055,9.2291 184.5895,10.0781 184.8015,10.6831 C185.0115,11.2881 185.3925,11.6621 185.9445,11.8091 C186.2615,11.8931 186.5485,11.9041 186.8055,11.8411 C187.0615,11.7781 187.3275,11.6651 187.6075,11.5031 C187.7355,11.9041 187.7985,12.1061 187.9235,12.5071 C187.2235,13.0131 186.4635,13.1541 185.6325,12.9341 C185.0725,12.7851 184.6105,12.4891 184.2455,12.0431 C183.8805,11.5961 183.6435,11.0141 183.5375,10.2991 C183.4305,9.5811 183.4745,8.7631 183.6765,7.8411 C183.8755,6.9341 184.1815,6.1861 184.5935,5.5971 C185.0065,5.0071 185.4835,4.5991 186.0285,4.3791 C186.5725,4.1581 187.1295,4.1211 187.6985,4.2731 C188.1525,4.3931 188.5245,4.5691 188.8105,4.7941" id="Fill-55" fill="#131371"></path>
                <path d="M194.1772,8.2121 C194.1062,7.6161 193.8202,7.2371 193.3232,7.0801 C192.8262,6.9241 192.3902,7.0771 192.0212,7.5341 C191.6512,7.9921 191.3182,8.7671 191.0192,9.8601 C190.7242,10.9371 190.6172,11.7741 190.6912,12.3661 C190.7662,12.9601 191.0342,13.3281 191.5042,13.4761 C191.9792,13.6251 192.3992,13.4731 192.7692,13.0191 C193.1382,12.5661 193.4852,11.8021 193.8032,10.7241 C194.1212,9.6451 194.2482,8.8091 194.1772,8.2121 M193.3782,13.9891 C192.7192,14.6151 191.9962,14.8001 191.1982,14.5491 C190.3992,14.2971 189.8962,13.7331 189.6742,12.8431 C189.4522,11.9531 189.5112,10.8441 189.8632,9.5161 C190.2112,8.2041 190.7072,7.2201 191.3662,6.5701 C192.0252,5.9211 192.7832,5.7281 193.6322,5.9951 C194.4792,6.2631 195.0172,6.8601 195.2352,7.7731 C195.4532,8.6861 195.3622,9.7941 194.9622,11.1071 C194.5672,12.4031 194.0352,13.3621 193.3782,13.9891" id="Fill-57" fill="#131371"></path>
                <path d="M199.9585,17.4874 C199.5565,17.3274 199.3545,17.2494 198.9515,17.0934 C199.4375,15.4984 199.6795,14.7004 200.1615,13.1034 C200.3205,12.5804 200.4835,12.0824 200.6485,11.6064 C200.8615,10.9894 201.0385,10.5054 201.1825,10.1544 C200.0245,12.1804 199.4535,13.1984 198.3265,15.2394 C197.9425,15.0954 197.7495,15.0234 197.3645,14.8824 C197.6745,12.5374 197.8195,11.3654 198.0945,9.0124 C197.9915,9.4234 197.8065,10.0434 197.5385,10.8764 C197.3755,11.3804 197.2525,11.7554 197.1655,12.0054 C196.6025,13.5664 196.3205,14.3454 195.7605,15.9074 C195.3685,15.7684 195.1715,15.7004 194.7795,15.5634 C195.9475,12.3494 196.5395,10.7444 197.7255,7.5364 C198.2805,7.7314 198.5585,7.8304 199.1135,8.0324 C198.7975,10.3524 198.6335,11.5104 198.2875,13.8234 C199.3745,11.7864 199.9245,10.7724 201.0405,8.7474 C201.5985,8.9604 201.8765,9.0644 202.4355,9.2824 C201.4545,12.5664 200.9585,14.2104 199.9585,17.4874" id="Fill-59" fill="#131371"></path>
                <path d="M206.062,20.0749 C205.661,19.8929 205.46,19.7989 205.059,19.6209 C205.615,18.0529 205.893,17.2679 206.447,15.6979 C206.63,15.1829 206.815,14.6939 207,14.2269 C207.242,13.6219 207.441,13.1479 207.602,12.8039 C206.345,14.7669 205.727,15.7519 204.501,17.7329 C204.119,17.5669 203.928,17.4849 203.544,17.3229 C203.953,14.9919 204.146,13.8249 204.522,11.4859 C204.401,11.8919 204.191,12.5039 203.885,13.3219 C203.701,13.8159 203.558,14.1849 203.459,14.4299 C202.825,15.9609 202.509,16.7289 201.878,18.2609 C201.487,18.0989 201.292,18.0209 200.9,17.8629 C202.214,14.7119 202.876,13.1379 204.209,9.9939 C204.763,10.2199 205.038,10.3349 205.592,10.5669 C205.177,12.8709 204.963,14.0209 204.518,16.3159 C205.702,14.3379 206.3,13.3499 207.512,11.3869 C208.068,11.6299 208.348,11.7529 208.904,12.0029 C207.776,15.2329 207.208,16.8509 206.062,20.0749" id="Fill-61" fill="#131371"></path>
                <path d="M212.9712,20.3048 C212.7282,20.8288 212.4262,21.2428 212.0622,21.5558 C211.6972,21.8688 211.2942,22.0558 210.8542,22.1158 C210.4142,22.1758 209.9612,22.0948 209.4942,21.8668 C208.7912,21.5238 208.3522,21.0168 208.1702,20.3408 C207.9882,19.6638 208.0692,18.9118 208.4172,18.0838 C209.3062,15.9708 209.7522,14.9118 210.6412,12.7988 C211.1012,13.0128 211.3302,13.1198 211.7902,13.3398 C210.9262,15.3458 210.4942,16.3508 209.6312,18.3568 C209.3512,19.0068 209.2372,19.5308 209.2872,19.9328 C209.3382,20.3358 209.5592,20.6318 209.9542,20.8248 C210.3552,21.0198 210.7182,21.0108 211.0442,20.7918 C211.3692,20.5728 211.6782,20.1428 211.9692,19.4988 C212.8672,17.5108 213.3152,16.5138 214.2142,14.5248 C214.6772,14.7568 214.9112,14.8728 215.3742,15.1088 C214.4122,17.1878 213.9322,18.2258 212.9712,20.3048" id="Fill-63" fill="#131371"></path>
                <path d="M217.4717,17.6408 C216.9867,18.9098 216.5427,19.9518 216.1457,20.7638 C215.4697,22.1498 215.1327,22.8438 214.4567,24.2308 C214.0737,24.0238 213.8797,23.9218 213.4967,23.7198 C214.9657,20.6498 215.7007,19.1128 217.1697,16.0428 C217.7647,16.3568 218.0647,16.5158 218.6597,16.8398 C218.2487,19.9068 218.0197,21.4348 217.5227,24.4728 C217.7567,23.9078 217.9697,23.3978 218.1627,22.9488 C218.3577,22.4968 218.6047,21.9788 218.9047,21.3938 C219.6097,20.0158 219.9617,19.3278 220.6667,17.9508 C221.0717,18.1788 221.2737,18.2898 221.6777,18.5228 C220.1067,21.5368 219.3217,23.0448 217.7497,26.0588 C217.1897,25.7378 216.9097,25.5798 216.3487,25.2678 C216.8397,22.2308 217.0657,20.7048 217.4717,17.6408" id="Fill-65" fill="#131371"></path>
                <path d="M227.2876,23.1764 C226.7066,22.8074 226.4166,22.6244 225.8346,22.2634 C224.5886,24.4574 223.9636,25.5534 222.7176,27.7474 C223.2746,28.0934 223.5526,28.2704 224.1086,28.6234 C223.8886,29.0014 223.7786,29.1894 223.5586,29.5674 C222.0276,28.5934 221.2596,28.1254 219.7216,27.2114 C219.9306,26.8264 220.0346,26.6324 220.2436,26.2464 C220.8016,26.5784 221.0806,26.7454 221.6386,27.0854 C222.8666,24.8804 223.4816,23.7774 224.7096,21.5724 C224.1266,21.2174 223.8356,21.0424 223.2516,20.6954 C223.4576,20.3154 223.5606,20.1234 223.7676,19.7434 C225.3976,20.7124 226.2106,21.2084 227.8336,22.2404 C227.6156,22.6144 227.5056,22.8024 227.2876,23.1764" id="Fill-67" fill="#131371"></path>
                <path d="M228.1353,32.5978 C227.7103,32.3058 227.5003,32.1618 227.0753,31.8748 C228.6243,29.3918 229.3993,28.1508 230.9483,25.6688 C230.1473,25.1278 229.7443,24.8578 228.9413,24.3318 C229.1793,23.9358 229.3013,23.7368 229.5393,23.3408 C231.6213,24.7028 232.6583,25.4128 234.7263,26.8818 C234.4253,27.2338 234.2743,27.4118 233.9743,27.7648 C233.2113,27.2228 232.8293,26.9558 232.0633,26.4288 C230.4913,28.8968 229.7063,30.1298 228.1353,32.5978" id="Fill-69" fill="#131371"></path>
                <path d="M234.0591,36.8849 C233.6391,36.5659 233.4281,36.4069 233.0071,36.0929 C233.7461,35.0359 234.1151,34.5059 234.8531,33.4489 C235.1941,31.0929 235.3491,29.9059 235.6241,27.5239 C236.1181,27.8809 236.3631,28.0609 236.8561,28.4229 C236.5781,30.2069 236.4311,31.0959 236.1171,32.8649 C237.6581,32.0199 238.4351,31.6049 240.0081,30.7949 C240.4761,31.1559 240.7101,31.3399 241.1761,31.7059 C239.0511,32.6889 238.0001,33.1979 235.9341,34.2489 C235.1841,35.3029 234.8091,35.8309 234.0591,36.8849" id="Fill-71" fill="#131371"></path>
                <path d="M251.6021,49.6193 C251.9271,49.6183 252.2081,49.7343 252.4451,49.9673 C252.6871,50.2063 252.8111,50.4913 252.8151,50.8173 C252.8201,51.1433 252.7071,51.4203 252.4771,51.6513 C252.2401,51.8873 251.9591,52.0013 251.6351,52.0003 C251.3111,51.9993 251.0321,51.8853 250.7931,51.6493 C250.5601,51.4193 250.4411,51.1413 250.4361,50.8173 C250.4311,50.4933 250.5451,50.2123 250.7771,49.9723 C251.0031,49.7373 251.2781,49.6203 251.6021,49.6193" id="Fill-73" fill="#131371"></path>
                <path d="M251.6299,49.6139 C251.9569,49.6189 252.2369,49.7389 252.4719,49.9759 C252.7109,50.2179 252.8289,50.5029 252.8269,50.8279 C252.8259,51.1519 252.7089,51.4259 252.4739,51.6529 C252.2339,51.8849 251.9519,51.9989 251.6279,51.9939 C251.3039,51.9889 251.0259,51.8669 250.7899,51.6279 C250.5589,51.3949 250.4449,51.1189 250.4449,50.7959 C250.4429,50.4709 250.5599,50.1899 250.7959,49.9529 C251.0259,49.7229 251.3029,49.6089 251.6299,49.6139" id="Fill-75" fill="#131371"></path>
                <path d="M269.4102,65.4596 C270.1232,66.3956 270.4732,66.8626 271.1632,67.8026 C270.8092,68.0436 270.6332,68.1646 270.2802,68.4066 C269.5962,67.4726 269.2492,67.0076 268.5412,66.0776 C267.6682,66.7016 267.2312,67.0116 266.3572,67.6346 C267.2042,68.7476 267.6202,69.3076 268.4332,70.4246 C268.0762,70.6666 267.8962,70.7876 267.5392,71.0296 C266.4272,69.4976 265.8522,68.7356 264.6762,67.2136 C267.4092,65.2236 268.7762,64.2296 271.5082,62.2396 C272.7392,63.8296 273.3382,64.6276 274.5022,66.2286 C274.1092,66.4206 273.9112,66.5156 273.5192,66.7096 C272.7212,65.6156 272.3122,65.0676 271.4852,63.9786 C270.6552,64.5716 270.2402,64.8666 269.4102,65.4596" id="Fill-77" fill="#131371"></path>
                <path d="M276.793,71.9181 C276.832,71.5801 276.695,71.1781 276.379,70.7161 C276.16,70.3961 276.049,70.2361 275.828,69.9171 C274.856,70.5401 274.371,70.8511 273.4,71.4741 C273.626,71.7981 273.737,71.9601 273.959,72.2851 C274.252,72.7131 274.57,72.9751 274.922,73.0701 C275.273,73.1671 275.669,73.0801 276.108,72.8091 C276.526,72.5521 276.753,72.2551 276.793,71.9181 M275.344,74.3191 C274.828,74.2521 274.348,74.0451 273.895,73.6941 C273.139,75.2101 272.749,75.9561 271.954,77.4341 C271.631,76.9391 271.468,76.6931 271.138,76.1971 C271.902,74.8291 272.277,74.1391 273.007,72.7401 C272.815,72.4591 272.718,72.3191 272.523,72.0391 C271.35,72.7901 270.764,73.1661 269.591,73.9191 C269.297,73.4941 269.149,73.2831 268.851,72.8601 C271.685,71.0071 273.101,70.0801 275.935,68.2271 C276.458,68.9691 276.716,69.3401 277.226,70.0851 C278.415,71.8231 278.275,73.1201 276.874,73.9671 C276.369,74.2721 275.86,74.3861 275.344,74.3191" id="Fill-79" fill="#131371"></path>
                <path d="M277.3853,80.1701 C278.6403,78.9761 279.2623,78.3721 280.5023,77.1581 C278.7903,77.6051 277.9383,77.8351 276.2373,78.3021 C276.7033,79.0471 276.9323,79.4211 277.3853,80.1701 M275.1373,78.6281 C274.3163,78.8561 273.9063,78.9671 273.0873,79.2011 C272.8103,78.7621 272.6723,78.5441 272.3893,78.1061 C275.8293,77.1881 277.5603,76.7531 281.0443,75.9331 C281.3943,76.4961 281.5683,76.7771 281.9103,77.3411 C279.4643,79.8501 278.2233,81.0811 275.7023,83.4931 C275.4343,83.0381 275.3013,82.8131 275.0293,82.3581 C275.6403,81.7881 275.9443,81.5011 276.5503,80.9271 C275.9953,80.0051 275.7133,79.5461 275.1373,78.6281" id="Fill-81" fill="#131371"></path>
                <path d="M293.7754,104.7672 C293.5644,104.1712 293.4574,103.8732 293.2394,103.2782 C290.8254,104.0742 289.6194,104.4732 287.2044,105.2692 C287.4124,105.8372 287.5144,106.1222 287.7154,106.6922 C287.2954,106.8252 287.0854,106.8942 286.6644,107.0272 C286.1114,105.4592 285.8204,104.6732 285.2104,103.1062 C285.6274,102.9612 285.8354,102.8902 286.2524,102.7452 C286.4734,103.3132 286.5814,103.5982 286.7944,104.1662 C289.2024,103.3512 290.4064,102.9462 292.8124,102.1312 C292.5894,101.5362 292.4754,101.2392 292.2444,100.6442 C292.6554,100.5002 292.8624,100.4272 293.2744,100.2832 C293.9194,101.9412 294.2274,102.7732 294.8144,104.4352 C294.3984,104.5672 294.1894,104.6352 293.7754,104.7672" id="Fill-83" fill="#131371"></path>
                <path d="M289.7119,112.9738 C289.2769,112.8758 288.9009,112.6658 288.5809,112.3478 C288.2609,112.0308 288.0189,111.6148 287.8559,111.0988 C287.5379,110.0938 287.6359,109.1908 288.1639,108.3728 C288.5829,108.5128 288.7929,108.5848 289.2119,108.7288 C288.8059,109.3968 288.7179,110.0788 288.9409,110.7888 C289.0659,111.1808 289.2809,111.4738 289.5899,111.6668 C289.8999,111.8608 290.2669,111.8988 290.6909,111.7828 C290.9369,111.7158 291.1329,111.6158 291.2749,111.4908 C291.4189,111.3638 291.5249,111.1848 291.5969,110.9558 C291.6689,110.7268 291.7189,110.4118 291.7369,110.0118 C291.7749,109.1948 291.9139,108.5478 292.1719,108.0858 C292.4269,107.6238 292.8569,107.2988 293.4659,107.1148 C293.9019,106.9828 294.3209,106.9678 294.7259,107.0678 C295.1289,107.1708 295.4849,107.3748 295.7879,107.6798 C296.0909,107.9838 296.3159,108.3648 296.4589,108.8178 C296.7509,109.7468 296.6529,110.6088 296.1699,111.3968 C295.7679,111.2438 295.5629,111.1668 295.1599,111.0148 C295.5059,110.4138 295.5849,109.8058 295.3939,109.1948 C295.2759,108.8238 295.0869,108.5518 294.8319,108.3758 C294.5759,108.2008 294.2789,108.1628 293.9379,108.2648 C293.7239,108.3268 293.5559,108.4288 293.4359,108.5678 C293.3159,108.7078 293.2299,108.9068 293.1789,109.1668 C293.1289,109.4268 293.0919,109.7868 293.0689,110.2408 C293.0319,110.9568 292.8739,111.5378 292.6009,111.9798 C292.3279,112.4208 291.8289,112.7348 291.1099,112.9268 C290.6139,113.0578 290.1489,113.0728 289.7119,112.9738" id="Fill-85" fill="#131371"></path>
                <path d="M297.5107,148.8083 C297.7297,148.5753 297.8367,148.2533 297.8327,147.8433 C297.8297,147.4673 297.8267,147.2793 297.8207,146.9013 C296.6927,146.9283 296.1297,146.9413 294.9987,146.9673 C295.0057,147.3223 295.0057,147.4993 295.0087,147.8523 C295.0177,148.7333 295.4687,149.1683 296.3727,149.1623 C296.9107,149.1573 297.2907,149.0393 297.5107,148.8083 M301.1087,148.5473 C301.2977,148.3383 301.3927,148.0363 301.3887,147.6373 C301.3847,147.3093 301.3847,147.1463 301.3797,146.8213 C300.3887,146.8443 299.8937,146.8543 298.9037,146.8763 C298.9087,147.2253 298.9127,147.4013 298.9157,147.7483 C298.9197,148.1283 299.0197,148.4103 299.2237,148.5953 C299.4277,148.7803 299.7497,148.8703 300.1907,148.8663 C300.6127,148.8613 300.9197,148.7553 301.1087,148.5473 M294.4677,149.5983 C294.0887,149.1263 293.8967,148.5253 293.8887,147.7963 C293.8817,147.0403 293.8767,146.6633 293.8577,145.9073 C297.2897,145.8013 299.0057,145.7473 302.4377,145.6413 C302.4547,146.3913 302.4637,146.7673 302.4727,147.5163 C302.4817,148.2433 302.3127,148.8453 301.9767,149.3143 C301.6407,149.7833 301.0767,150.0153 300.2987,150.0173 C299.8007,150.0183 299.3927,149.8983 299.0737,149.6643 C298.7577,149.4323 298.4507,148.7883 298.4507,148.7883 C298.4367,148.7883 298.1397,149.5903 297.8187,149.8793 C297.4967,150.1673 297.0117,150.3093 296.3657,150.3093 C295.4777,150.3083 294.8467,150.0723 294.4677,149.5983" id="Fill-87" fill="#131371"></path>
                <path d="M296.9453,155.0197 C298.6723,154.6987 299.5353,154.5317 301.2593,154.1877 C299.5643,153.7567 298.7143,153.5467 297.0153,153.1377 C296.9923,153.8907 296.9793,154.2677 296.9453,155.0197 M295.9063,152.8907 C295.0863,152.6947 294.6753,152.5997 293.8543,152.4097 C293.8653,151.9647 293.8723,151.7427 293.8793,151.2987 C297.2983,152.1427 299.0013,152.5877 302.4043,153.5277 C302.3843,154.0947 302.3733,154.3777 302.3503,154.9457 C298.8813,155.7077 297.1423,156.0627 293.6673,156.7267 C293.6943,156.2707 293.7083,156.0447 293.7313,155.5877 C294.5653,155.4387 294.9823,155.3637 295.8173,155.2107 C295.8613,154.2837 295.8793,153.8207 295.9063,152.8907" id="Fill-89" fill="#131371"></path>
                <path d="M301.7861,162.3156 C301.6151,162.6166 301.3651,162.8996 301.0381,163.1596 C300.7051,162.8966 300.5371,162.7636 300.2041,162.5026 C300.6661,162.1316 300.9251,161.6856 300.9731,161.1686 C301.0221,160.6246 300.7931,160.1626 300.2871,159.7876 C299.7801,159.4106 298.9541,159.1896 297.8121,159.1216 C296.6891,159.0546 295.8491,159.1686 295.2891,159.4596 C294.7281,159.7506 294.4251,160.1636 294.3761,160.7016 C294.3481,161.0116 294.3891,161.2796 294.4951,161.5106 C294.6011,161.7396 294.7601,161.9726 294.9691,162.2106 C294.5961,162.3906 294.4111,162.4826 294.0371,162.6596 C293.4151,162.0826 293.1431,161.3936 293.2171,160.5826 C293.2661,160.0356 293.4771,159.5596 293.8541,159.1486 C294.2311,158.7366 294.7641,158.4246 295.4511,158.2156 C296.1401,158.0046 296.9521,157.9186 297.8951,157.9676 C298.8241,158.0166 299.6161,158.1886 300.2661,158.4856 C300.9181,158.7836 301.3991,159.1696 301.7091,159.6466 C302.0211,160.1256 302.1531,160.6426 302.1031,161.1976 C302.0631,161.6416 301.9571,162.0146 301.7861,162.3156" id="Fill-91" fill="#131371"></path>
                <path d="M301.0898,168.3903 C301.0188,168.8863 300.9828,169.1353 300.9078,169.6303 C299.5048,168.5003 298.7928,167.9443 297.3668,166.8593 C295.3778,167.6333 294.3818,168.0043 292.3848,168.7143 C292.4628,168.2063 292.5008,167.9543 292.5738,167.4463 C294.5228,166.7623 295.4958,166.4013 297.4368,165.6573 C298.9078,166.7263 299.6398,167.2743 301.0898,168.3903 M293.0148,164.0733 C296.4268,164.4023 298.1328,164.5653 301.5448,164.8933 C301.4918,165.3453 301.4648,165.5713 301.4078,166.0223 C297.9988,165.6693 296.2948,165.4923 292.8868,165.1393 C292.9398,164.7123 292.9648,164.4993 293.0148,164.0733" id="Fill-93" fill="#131371"></path>
                <path d="M296.7954,172.0158 C296.6314,172.9558 296.5454,173.4258 296.3654,174.3608 C295.9404,174.2908 295.7284,174.2568 295.3014,174.1858 C295.4814,173.2588 295.5664,172.7918 295.7294,171.8588 C294.6534,171.6988 294.1134,171.6178 293.0404,171.4598 C292.8454,172.5768 292.7434,173.1348 292.5244,174.2458 C292.0944,174.1738 291.8794,174.1398 291.4494,174.0668 C291.7484,172.5438 291.8864,171.7788 292.1404,170.2458 C295.5314,170.7228 297.2284,170.9618 300.6194,171.4378 C300.3524,173.0378 300.2074,173.8348 299.8954,175.4258 C299.4764,175.3048 299.2644,175.2428 298.8434,175.1218 C299.0554,174.0318 299.1564,173.4888 299.3474,172.3948 C298.3254,172.2428 297.8174,172.1678 296.7954,172.0158" id="Fill-95" fill="#131371"></path>
                <path d="M297.1411,179.9425 C297.6381,179.7055 297.9481,179.3175 298.0671,178.7815 C298.1211,178.5405 298.1481,178.4185 298.2021,178.1775 C295.7041,177.7065 294.4541,177.4705 291.9551,176.9995 C291.9031,177.2345 291.8751,177.3505 291.8231,177.5875 C291.5721,178.7165 292.4931,179.4985 294.6031,179.9315 C295.8001,180.1765 296.6461,180.1805 297.1411,179.9425 M291.2321,179.5315 C290.7441,178.8575 290.5931,178.1075 290.7771,177.2745 C290.9121,176.6665 290.9771,176.3645 291.1041,175.7545 C294.4711,176.3625 296.1541,176.6645 299.5211,177.2725 C299.3941,177.8775 299.3301,178.1785 299.1971,178.7815 C298.9861,179.7335 298.5151,180.4395 297.7931,180.8905 C297.0691,181.3405 295.9141,181.3935 294.3321,181.0555 C292.7501,180.7175 291.7211,180.2065 291.2321,179.5315" id="Fill-97" fill="#131371"></path>
                <path d="M281.1523,213.758 C281.4543,213.653 281.6953,213.419 281.8813,213.06 C282.0503,212.73 282.1363,212.565 282.3043,212.234 C281.2943,211.76 280.7893,211.525 279.7783,211.05 C279.6213,211.362 279.5423,211.518 279.3813,211.827 C278.9863,212.599 279.1823,213.175 279.9863,213.568 C280.4643,213.8 280.8523,213.865 281.1523,213.758 M284.4543,215.116 C284.7163,215.017 284.9403,214.793 285.1213,214.444 C285.2673,214.156 285.3423,214.015 285.4883,213.729 C284.6033,213.313 284.1563,213.102 283.2713,212.686 C283.1163,212.993 283.0403,213.147 282.8813,213.451 C282.7113,213.785 282.6733,214.077 282.7683,214.33 C282.8633,214.58 283.1043,214.8 283.4953,214.99 C283.8713,215.172 284.1903,215.214 284.4543,215.116 M278.1033,213.112 C277.9833,212.531 278.0893,211.925 278.4173,211.284 C278.7583,210.623 278.9253,210.29 279.2563,209.624 C282.3403,211.043 283.8823,211.752 286.9643,213.169 C286.6353,213.83 286.4673,214.158 286.1303,214.815 C285.8043,215.453 285.3803,215.904 284.8683,216.166 C284.3563,216.428 283.7543,216.385 283.0653,216.044 C282.6253,215.827 282.3163,215.542 282.1423,215.198 C281.9683,214.854 281.9943,214.156 281.9943,214.156 C281.9813,214.15 281.3523,214.719 280.9363,214.831 C280.5213,214.942 280.0273,214.854 279.4553,214.569 C278.6693,214.178 278.2213,213.692 278.1033,213.112" id="Fill-99" fill="#131371"></path>
                <path d="M275.23,217.1588 C275.443,216.7878 275.548,216.6008 275.758,216.2278 C276.902,216.8298 277.472,217.1288 278.617,217.7308 C280.899,217.9448 282.047,218.0398 284.348,218.1928 C284.11,218.6328 283.989,218.8498 283.746,219.2868 C282.011,219.1078 281.147,219.0118 279.422,218.7978 C280.532,220.0968 281.08,220.7518 282.165,222.0768 C281.926,222.4898 281.804,222.6948 281.562,223.1058 C280.194,221.3148 279.499,220.4308 278.087,218.6878 C276.945,218.0758 276.373,217.7698 275.23,217.1588" id="Fill-101" fill="#131371"></path>
                <path d="M253.8789,246.0812 C254.1729,245.7682 254.3169,245.6092 254.6079,245.2932 C256.7609,247.2552 257.8359,248.2332 259.9889,250.1962 C260.5379,249.6002 260.8099,249.3002 261.3509,248.6982 C261.6949,249.0032 261.8659,249.1552 262.2109,249.4602 C260.8089,251.0222 260.0949,251.7912 258.6439,253.3082 C258.3439,252.9572 258.1949,252.7832 257.8939,252.4322 C258.4289,251.8722 258.6929,251.5912 259.2229,251.0252 C257.0849,249.0472 256.0159,248.0582 253.8789,246.0812" id="Fill-103" fill="#131371"></path>
                <path d="M252.0161,253.4977 C252.6281,252.8937 252.9311,252.5907 253.5351,251.9787 C252.4421,250.9027 251.8961,250.3637 250.8031,249.2867 C251.1051,248.9817 251.2541,248.8267 251.5541,248.5187 C253.9741,250.8677 255.1831,252.0407 257.6021,254.3897 C257.2841,254.7147 257.1271,254.8777 256.8071,255.2007 C255.8291,254.2377 255.3401,253.7567 254.3621,252.7927 C253.7531,253.4097 253.4471,253.7167 252.8301,254.3247 C253.7931,255.3027 254.2751,255.7907 255.2391,256.7687 C254.9151,257.0887 254.7511,257.2477 254.4251,257.5657 C252.0781,255.1457 250.9051,253.9357 248.5571,251.5167 C248.8651,251.2167 249.0191,251.0677 249.3241,250.7657 C250.4011,251.8587 250.9391,252.4057 252.0161,253.4977" id="Fill-105" fill="#131371"></path>
                <path d="M249.4834,257.2814 C248.7834,257.9344 248.4324,258.2584 247.7244,258.9024 C247.4394,258.5854 247.2984,258.4274 247.0154,258.1124 C247.7174,257.4724 248.0674,257.1504 248.7624,256.5024 C248.0354,255.7184 247.6704,255.3234 246.9434,254.5404 C246.1124,255.3164 245.6934,255.7024 244.8484,256.4644 C244.5624,256.1424 244.4214,255.9834 244.1344,255.6624 C245.2924,254.6184 245.8644,254.0904 246.9954,253.0174 C249.3054,255.4724 250.4584,256.6984 252.7704,259.1554 C251.5884,260.2754 250.9914,260.8274 249.7834,261.9184 C249.5354,261.5634 249.4114,261.3864 249.1624,261.0314 C249.9884,260.2844 250.3994,259.9074 251.2124,259.1464 C250.5214,258.4014 250.1744,258.0274 249.4834,257.2814" id="Fill-107" fill="#131371"></path>
                <path d="M234.8389,271.7663 C235.3239,272.0793 235.7669,272.0913 236.1599,271.8043 C236.5519,271.5163 236.6789,271.0863 236.5399,270.5173 C236.4019,269.9483 236.0079,269.2133 235.3559,268.3063 C234.7129,267.4143 234.1449,266.8143 233.6589,266.5053 C233.1719,266.1963 232.7459,266.1753 232.3769,266.4483 C232.0019,266.7233 231.8829,267.1413 232.0179,267.7073 C232.1539,268.2733 232.5359,269.0143 233.1679,269.9263 C233.7989,270.8383 234.3539,271.4533 234.8389,271.7663 M230.9589,267.5813 C230.8519,266.6853 231.1119,266.0113 231.7429,265.5493 C232.3729,265.0873 233.0779,265.0453 233.8699,265.4243 C234.6629,265.8033 235.4609,266.5323 236.2589,267.6233 C237.0489,268.7033 237.5099,269.6973 237.6299,270.6073 C237.7499,271.5173 237.4719,272.2243 236.8019,272.7143 C236.1339,273.2053 235.3889,273.2513 234.5869,272.8583 C233.7849,272.4633 233.0069,271.7043 232.2459,270.5853 C231.4929,269.4793 231.0679,268.4783 230.9589,267.5813" id="Fill-109" fill="#131371"></path>
                <path d="M230.9634,275.3156 C231.2324,275.1316 231.3674,275.0416 231.6374,274.8576 C230.9184,273.7546 230.5574,273.2006 229.8384,272.0986 C229.5724,272.2816 229.4384,272.3726 229.1694,272.5526 C228.8014,272.8006 228.5874,273.1016 228.5254,273.4596 C228.4604,273.8136 228.5924,274.2526 228.9194,274.7706 C229.4844,275.6676 230.1694,275.8536 230.9634,275.3156 M227.4114,273.2506 C227.5494,272.6146 227.9424,272.0816 228.5934,271.6426 C228.8574,271.4646 228.9884,271.3746 229.2504,271.1956 C228.5914,270.1866 228.2624,269.6836 227.6044,268.6736 C227.9544,268.4336 228.1294,268.3126 228.4784,268.0706 C230.3464,270.8866 231.2794,272.2946 233.1464,275.1096 C232.5324,275.5366 232.2244,275.7486 231.6044,276.1666 C230.8854,276.6526 230.2054,276.8336 229.5804,276.7146 C228.9544,276.5956 228.4104,276.1576 227.9464,275.4096 C227.4464,274.6036 227.2714,273.8836 227.4114,273.2506" id="Fill-111" fill="#131371"></path>
                <path d="M224.9033,276.2077 C224.0933,276.7137 223.6873,276.9637 222.8713,277.4587 C222.6593,277.0877 222.5553,276.9017 222.3433,276.5307 C223.1543,276.0407 223.5573,275.7917 224.3613,275.2897 C223.8133,274.3647 223.5383,273.9027 222.9913,272.9797 C222.0303,273.5827 221.5463,273.8757 220.5743,274.4607 C220.3613,274.0847 220.2563,273.8977 220.0433,273.5217 C221.3763,272.7227 222.0353,272.3117 223.3473,271.4777 C225.0923,274.3757 225.9643,275.8237 227.7083,278.7207 C226.3393,279.5927 225.6483,280.0207 224.2573,280.8557 C224.0903,280.4567 224.0053,280.2537 223.8353,279.8517 C224.7863,279.2787 225.2603,278.9897 226.2013,278.3997 C225.6823,277.5217 225.4233,277.0847 224.9033,276.2077" id="Fill-113" fill="#131371"></path>
                <path d="M221.2998,281.1364 C220.5708,280.0084 219.9948,279.0484 219.5678,278.2574 C218.8358,276.9064 218.4698,276.2304 217.7388,274.8794 C218.0688,274.6904 218.2318,274.5934 218.5598,274.4014 C220.1908,277.3694 221.0058,278.8524 222.6348,281.8194 C222.1268,282.1184 221.8698,282.2674 221.3578,282.5604 C219.2498,280.4504 218.2138,279.3814 216.1718,277.2194 C216.4888,277.7374 216.7698,278.2044 217.0198,278.6234 C217.2688,279.0424 217.5428,279.5384 217.8458,280.1204 C218.5568,281.4884 218.9118,282.1714 219.6228,283.5404 C219.2718,283.7364 219.0948,283.8334 218.7408,284.0264 C217.1988,281.0094 216.4288,279.5014 214.8858,276.4844 C215.3748,276.2164 215.6178,276.0804 216.1028,275.8074 C218.1498,277.9654 219.1888,279.0314 221.2998,281.1364" id="Fill-115" fill="#131371"></path>
                <path d="M181.9546,290.7179 C182.0586,290.2909 182.2626,289.9289 182.5666,289.6279 C182.8716,289.3259 183.2656,289.1069 183.7506,288.9749 C184.6946,288.7159 185.5336,288.8679 186.2796,289.4399 C186.1406,289.8469 186.0686,290.0489 185.9256,290.4559 C185.3146,290.0149 184.6786,289.8859 184.0126,290.0699 C183.6426,290.1709 183.3676,290.3709 183.1796,290.6679 C182.9916,290.9659 182.9436,291.3249 183.0416,291.7519 C183.1006,292.0009 183.1876,292.1999 183.3016,292.3479 C183.4166,292.4979 183.5806,292.6139 183.7926,292.6969 C184.0056,292.7809 184.2996,292.8469 184.6716,292.8879 C185.4326,292.9719 186.0316,293.1489 186.4546,293.4299 C186.8786,293.7099 187.1726,294.1599 187.3286,294.7739 C187.4416,295.2139 187.4456,295.6299 187.3416,296.0229 C187.2386,296.4169 187.0436,296.7579 186.7526,297.0399 C186.4616,297.3239 186.1006,297.5239 185.6736,297.6389 C184.7996,297.8779 183.9946,297.7359 183.2686,297.2159 C183.4236,296.8229 183.4996,296.6249 183.6516,296.2329 C184.2046,296.6079 184.7736,296.7179 185.3466,296.5619 C185.6956,296.4679 185.9546,296.2979 186.1236,296.0529 C186.2926,295.8099 186.3356,295.5149 186.2496,295.1709 C186.1976,294.9559 186.1036,294.7829 185.9776,294.6559 C185.8506,294.5289 185.6656,294.4339 185.4246,294.3689 C185.1826,294.3039 184.8516,294.2459 184.4286,294.1969 C183.7606,294.1219 183.2186,293.9339 182.8126,293.6389 C182.4076,293.3449 182.1256,292.8339 181.9646,292.1089 C181.8536,291.6089 181.8506,291.1449 181.9546,290.7179" id="Fill-117" fill="#131371"></path>
                <path d="M178.124,297.4928 C178.437,297.9798 178.836,298.1738 179.308,298.0658 C179.782,297.9598 180.07,297.6128 180.175,297.0308 C180.279,296.4458 180.218,295.5998 179.99,294.4918 C179.765,293.3988 179.492,292.6118 179.175,292.1278 C178.857,291.6408 178.478,291.4488 178.032,291.5498 C177.581,291.6528 177.301,291.9918 177.196,292.5738 C177.091,293.1538 177.142,293.9978 177.347,295.1018 C177.552,296.2068 177.81,297.0038 178.124,297.4928 M176.287,292.0248 C176.551,291.1498 177.059,290.6278 177.819,290.4568 C178.579,290.2848 179.236,290.5338 179.802,291.2078 C180.37,291.8838 180.799,292.8848 181.085,294.2248 C181.368,295.5508 181.387,296.6608 181.128,297.5548 C180.87,298.4488 180.331,298.9908 179.524,299.1738 C178.717,299.3548 178.021,299.0958 177.452,298.4028 C176.882,297.7078 176.482,296.6838 176.242,295.3348 C176.005,294.0018 176.022,292.8988 176.287,292.0248" id="Fill-119" fill="#131371"></path>
                <path d="M170.1875,294.9557 C170.1085,294.3807 170.1265,293.8587 170.2395,293.3877 C170.3535,292.9167 170.5575,292.5277 170.8495,292.2227 C171.1405,291.9167 171.5125,291.7267 171.9655,291.6447 C172.6485,291.5217 173.2195,291.6857 173.6855,292.1427 C174.1505,292.5997 174.4615,293.2717 174.6115,294.1607 C174.9945,296.4307 175.1835,297.5637 175.5655,299.8337 C175.1205,299.9197 174.8985,299.9647 174.4535,300.0477 C174.1055,297.8827 173.9315,296.7997 173.5835,294.6347 C173.4715,293.9337 173.2945,293.4307 173.0615,293.1257 C172.8275,292.8207 172.5205,292.7027 172.1365,292.7717 C171.7465,292.8407 171.4865,293.0597 171.3555,293.4307 C171.2255,293.8017 171.2095,294.3397 171.3125,295.0437 C171.6255,297.2137 171.7825,298.2997 172.0955,300.4697 C171.6445,300.5477 171.4195,300.5847 170.9675,300.6577 C170.6555,298.3767 170.4995,297.2367 170.1875,294.9557" id="Fill-121" fill="#131371"></path>
                <path d="M165.9658,299.9616 C166.2108,300.1556 166.5638,300.2236 167.0258,300.1606 C167.3468,300.1196 167.5068,300.0976 167.8258,300.0516 C167.6918,298.8936 167.6248,298.3146 167.4888,297.1536 C167.1648,297.1996 167.0028,297.2236 166.6778,297.2676 C166.2498,297.3246 165.9358,297.4836 165.7388,297.7516 C165.5438,298.0196 165.4708,298.4126 165.5238,298.9316 C165.5738,299.4256 165.7208,299.7676 165.9658,299.9616 M164.6338,297.5376 C164.8668,297.1096 165.1958,296.7766 165.6218,296.5386 C164.7288,295.1496 164.2938,294.4526 163.4378,293.0496 C163.9328,292.9926 164.1828,292.9636 164.6778,292.9026 C165.4568,294.2286 165.8568,294.8896 166.6658,296.2036 C166.9468,296.1656 167.0868,296.1476 167.3688,296.1086 C167.2058,294.7086 167.1218,294.0056 166.9588,292.6056 C167.3828,292.5446 167.5968,292.5166 168.0198,292.4526 C168.4428,295.8536 168.6528,297.5546 169.0728,300.9526 C168.3308,301.0646 167.9558,301.1146 167.2118,301.2156 C165.4708,301.4486 164.5198,300.7156 164.3638,299.0666 C164.3088,298.4736 164.4018,297.9666 164.6338,297.5376" id="Fill-123" fill="#131371"></path>
                <path d="M158.9463,302.0338 C158.6253,301.9168 158.3133,301.7208 158.0113,301.4408 C158.2283,301.0678 158.3343,300.8818 158.5483,300.5078 C158.9793,300.8988 159.4573,301.0728 159.9763,301.0318 C160.5213,300.9868 160.9483,300.6838 161.2503,300.1198 C161.5533,299.5548 161.6583,298.7038 161.5723,297.5628 C161.4873,296.4408 161.2593,295.6278 160.8983,295.1248 C160.5353,294.6208 160.0873,294.3908 159.5473,294.4338 C159.2373,294.4598 158.9743,294.5488 158.7613,294.6918 C158.5483,294.8368 158.3393,295.0318 158.1333,295.2798 C157.9043,294.9418 157.7913,294.7698 157.5663,294.4318 C158.0533,293.7188 158.6973,293.3338 159.5093,293.2668 C160.0573,293.2218 160.5583,293.3508 161.0153,293.6538 C161.4723,293.9568 161.8503,294.4318 162.1503,295.0748 C162.4503,295.7188 162.6413,296.5078 162.7203,297.4478 C162.7983,298.3738 162.7353,299.1808 162.5293,299.8768 C162.3233,300.5718 162.0073,301.1168 161.5773,301.5058 C161.1493,301.8948 160.6543,302.1138 160.0973,302.1588 C159.6533,302.1948 159.2673,302.1518 158.9463,302.0338" id="Fill-125" fill="#131371"></path>
                <path d="M154.8604,298.6266 C153.8994,298.6676 153.4174,298.6866 152.4554,298.7116 C152.4494,298.2776 152.4454,298.0616 152.4394,297.6286 C153.3964,297.6056 153.8724,297.5876 154.8264,297.5456 C154.7934,296.4566 154.7764,295.9126 154.7434,294.8236 C153.6014,294.8726 153.0294,294.8916 151.8844,294.9156 C151.8804,294.4786 151.8804,294.2596 151.8754,293.8226 C153.4444,293.7886 154.2264,293.7586 155.7884,293.6766 C155.9174,297.1056 155.9814,298.8206 156.1104,302.2496 C154.4774,302.3356 153.6594,302.3656 152.0214,302.4016 C152.0674,301.9636 152.0914,301.7436 152.1374,301.3056 C153.2584,301.2786 153.8204,301.2606 154.9384,301.2116 C154.9074,300.1786 154.8904,299.6596 154.8604,298.6266" id="Fill-127" fill="#131371"></path>
                <path d="M113.6631,297.6081 C113.3771,297.3821 113.1231,297.0851 112.9051,296.7141 C113.2321,296.4361 113.3931,296.2961 113.7181,296.0161 C114.0331,296.5421 114.4611,296.8761 114.9921,297.0161 C115.5491,297.1661 116.0641,297.0231 116.5341,296.5921 C117.0051,296.1601 117.3641,295.3841 117.6181,294.2711 C117.8681,293.1731 117.8831,292.3241 117.6721,291.7201 C117.4611,291.1141 117.0811,290.7391 116.5291,290.5931 C116.2121,290.5091 115.9251,290.4981 115.6681,290.5611 C115.4131,290.6241 115.1461,290.7381 114.8661,290.9001 C114.7371,290.4981 114.6741,290.2961 114.5491,289.8961 C115.2491,289.3891 116.0091,289.2481 116.8411,289.4691 C117.4011,289.6181 117.8631,289.9141 118.2281,290.3591 C118.5931,290.8071 118.8301,291.3891 118.9361,292.1031 C119.0431,292.8211 118.9991,293.6381 118.7981,294.5611 C118.5981,295.4681 118.2921,296.2151 117.8791,296.8051 C117.4661,297.3951 116.9901,297.8021 116.4461,298.0231 C115.9011,298.2441 115.3441,298.2801 114.7761,298.1291 C114.3221,298.0091 113.9491,297.8331 113.6631,297.6081" id="Fill-129" fill="#131371"></path>
                <path d="M108.2959,294.1911 C108.3669,294.7861 108.6539,295.1651 109.1509,295.3221 C109.6469,295.4781 110.0829,295.3261 110.4519,294.8691 C110.8219,294.4111 111.1549,293.6351 111.4529,292.5421 C111.7489,291.4641 111.8569,290.6281 111.7819,290.0371 C111.7079,289.4421 111.4379,289.0741 110.9699,288.9261 C110.4949,288.7771 110.0749,288.9291 109.7029,289.3831 C109.3359,289.8371 108.9889,290.6001 108.6709,291.6791 C108.3509,292.7571 108.2259,293.5931 108.2959,294.1911 M109.0959,288.4141 C109.7529,287.7871 110.4769,287.6021 111.2749,287.8531 C112.0729,288.1051 112.5769,288.6691 112.7979,289.5591 C113.0209,290.4491 112.9619,291.5591 112.6099,292.8871 C112.2629,294.1991 111.7669,295.1811 111.1079,295.8321 C110.4479,296.4811 109.6909,296.6741 108.8419,296.4081 C107.9939,296.1391 107.4569,295.5421 107.2379,294.6291 C107.0199,293.7161 107.1109,292.6081 107.5119,291.2961 C107.9049,289.9991 108.4389,289.0411 109.0959,288.4141" id="Fill-131" fill="#131371"></path>
                <path d="M102.5151,284.9157 C102.9171,285.0747 103.1191,285.1527 103.5211,285.3097 C103.0361,286.9027 102.7941,287.7027 102.3121,289.2977 C102.1531,289.8207 101.9891,290.3197 101.8241,290.7957 C101.6121,291.4127 101.4361,291.8967 101.2911,292.2487 C102.4491,290.2217 103.0191,289.2037 104.1461,287.1627 C104.5311,287.3077 104.7241,287.3797 105.1081,287.5197 C104.7991,289.8657 104.6531,291.0367 104.3791,293.3897 C104.4811,292.9787 104.6661,292.3597 104.9341,291.5257 C105.0981,291.0227 105.2221,290.6467 105.3081,290.3967 C105.8711,288.8347 106.1531,288.0567 106.7121,286.4947 C107.1051,286.6337 107.3021,286.7027 107.6941,286.8377 C106.5251,290.0537 105.9341,291.6577 104.7481,294.8657 C104.1931,294.6707 103.9151,294.5717 103.3601,294.3707 C103.6751,292.0497 103.8391,290.8917 104.1861,288.5787 C103.0991,290.6157 102.5481,291.6307 101.4331,293.6537 C100.8741,293.4427 100.5971,293.3387 100.0371,293.1197 C101.0191,289.8367 101.5151,288.1917 102.5151,284.9157" id="Fill-133" fill="#131371"></path>
                <path d="M96.4106,282.3273 C96.8126,282.5083 97.0126,282.6033 97.4146,282.7823 C96.8576,284.3493 96.5806,285.1353 96.0266,286.7053 C95.8446,287.2193 95.6596,287.7083 95.4726,288.1763 C95.2306,288.7803 95.0326,289.2553 94.8716,289.5973 C96.1276,287.6353 96.7476,286.6503 97.9716,284.6693 C98.3546,284.8353 98.5456,284.9183 98.9286,285.0793 C98.5206,287.4103 98.3266,288.5773 97.9506,290.9163 C98.0716,290.5103 98.2836,289.8983 98.5886,289.0793 C98.7716,288.5863 98.9156,288.2163 99.0136,287.9723 C99.6496,286.4413 99.9636,285.6743 100.5956,284.1423 C100.9856,284.3043 101.1816,284.3813 101.5736,284.5393 C100.2596,287.6903 99.5966,289.2643 98.2646,292.4083 C97.7116,292.1823 97.4356,292.0663 96.8816,291.8363 C97.2976,289.5313 97.5096,288.3823 97.9546,286.0863 C96.7726,288.0643 96.1726,289.0533 94.9616,291.0153 C94.4056,290.7713 94.1266,290.6493 93.5696,290.4003 C94.6986,287.1693 95.2656,285.5523 96.4106,282.3273" id="Fill-135" fill="#131371"></path>
                <path d="M89.5024,282.0983 C89.7454,281.5733 90.0464,281.1593 90.4114,280.8473 C90.7774,280.5333 91.1794,280.3473 91.6184,280.2863 C92.0584,280.2263 92.5114,280.3063 92.9784,280.5363 C93.6834,280.8783 94.1204,281.3853 94.3034,282.0623 C94.4854,282.7393 94.4054,283.4903 94.0554,284.3173 C93.1684,286.4313 92.7204,287.4903 91.8324,289.6043 C91.3724,289.3903 91.1434,289.2823 90.6834,289.0633 C91.5464,287.0563 91.9804,286.0513 92.8414,284.0453 C93.1224,283.3953 93.2364,282.8713 93.1854,282.4703 C93.1364,282.0663 92.9154,281.7713 92.5204,281.5773 C92.1184,281.3833 91.7564,281.3913 91.4294,281.6103 C91.1044,281.8303 90.7944,282.2583 90.5034,282.9033 C89.6064,284.8923 89.1584,285.8893 88.2594,287.8763 C87.7964,287.6463 87.5624,287.5303 87.0994,287.2933 C88.0604,285.2143 88.5414,284.1753 89.5024,282.0983" id="Fill-137" fill="#131371"></path>
                <path d="M85.0015,284.7624 C85.4865,283.4934 85.9315,282.4514 86.3275,281.6384 C87.0035,280.2514 87.3415,279.5584 88.0185,278.1724 C88.4005,278.3774 88.5935,278.4794 88.9765,278.6824 C87.5085,281.7534 86.7735,283.2884 85.3045,286.3604 C84.7075,286.0454 84.4095,285.8854 83.8145,285.5634 C84.2245,282.4954 84.4545,280.9674 84.9505,277.9304 C84.7175,278.4944 84.5045,279.0034 84.3115,279.4534 C84.1165,279.9054 83.8695,280.4234 83.5675,281.0084 C82.8635,282.3874 82.5115,283.0734 81.8075,284.4514 C81.4025,284.2234 81.1995,284.1124 80.7965,283.8794 C82.3665,280.8654 83.1525,279.3584 84.7225,276.3434 C85.2835,276.6634 85.5635,276.8224 86.1245,277.1344 C85.6345,280.1714 85.4075,281.6964 85.0015,284.7624" id="Fill-139" fill="#131371"></path>
                <path d="M75.1865,279.2257 C75.7665,279.5957 76.0565,279.7777 76.6375,280.1387 C77.8845,277.9437 78.5105,276.8487 79.7565,274.6557 C79.1995,274.3087 78.9205,274.1317 78.3655,273.7787 C78.5845,273.4017 78.6945,273.2127 78.9155,272.8337 C80.4455,273.8087 81.2145,274.2767 82.7515,275.1897 C82.5435,275.5757 82.4395,275.7697 82.2305,276.1557 C81.6715,275.8227 81.3935,275.6567 80.8345,275.3167 C79.6065,277.5227 78.9915,278.6247 77.7635,280.8297 C78.3475,281.1847 78.6375,281.3597 79.2215,281.7057 C79.0145,282.0867 78.9125,282.2777 78.7055,282.6587 C77.0755,281.6897 76.2625,281.1937 74.6395,280.1617 C74.8575,279.7887 74.9685,279.5987 75.1865,279.2257" id="Fill-141" fill="#131371"></path>
                <path d="M74.3384,269.8039 C74.7634,270.0969 74.9734,270.2409 75.3994,270.5279 C73.8494,273.0109 73.0734,274.2509 71.5254,276.7329 C72.3264,277.2739 72.7294,277.5449 73.5314,278.0709 C73.2944,278.4659 73.1724,278.6649 72.9334,279.0609 C70.8524,277.6979 69.8154,276.9899 67.7464,275.5199 C68.0484,275.1679 68.1994,274.9899 68.4994,274.6379 C69.2614,275.1789 69.6444,275.4459 70.4094,275.9729 C71.9824,273.5049 72.7664,272.2729 74.3384,269.8039" id="Fill-143" fill="#131371"></path>
                <path d="M68.4136,265.5172 C68.8346,265.8362 69.0456,265.9952 69.4656,266.3092 C68.7266,267.3662 68.3586,267.8952 67.6206,268.9532 C67.2796,271.3102 67.1246,272.4962 66.8506,274.8782 C66.3556,274.5212 66.1096,274.3422 65.6166,273.9792 C65.8956,272.1942 66.0426,271.3052 66.3566,269.5372 C64.8156,270.3822 64.0386,270.7982 62.4656,271.6062 C61.9966,271.2462 61.7636,271.0622 61.2986,270.6962 C63.4226,269.7122 64.4736,269.2032 66.5396,268.1532 C67.2896,267.1002 67.6636,266.5712 68.4136,265.5172" id="Fill-145" fill="#131371"></path>
                <path d="M50.8711,252.7838 C50.5471,252.7848 50.2651,252.6688 50.0291,252.4358 C49.7861,252.1958 49.6621,251.9108 49.6591,251.5848 C49.6531,251.2588 49.7671,250.9828 49.9971,250.7518 C50.2331,250.5158 50.5141,250.4018 50.8381,250.4028 C51.1611,250.4028 51.4411,250.5168 51.6811,250.7538 C51.9131,250.9828 52.0331,251.2608 52.0371,251.5848 C52.0421,251.9078 51.9291,252.1898 51.6971,252.4298 C51.4711,252.6648 51.1961,252.7828 50.8711,252.7838" id="Fill-147" fill="#131371"></path>
                <path d="M52.603,252.1798 C52.603,253.6988 51.372,254.9298 49.853,254.9298 C48.334,254.9298 47.103,253.6988 47.103,252.1798 C47.103,250.6608 48.334,249.4298 49.853,249.4298 C51.372,249.4298 52.603,250.6608 52.603,252.1798" id="Fill-149" fill="#131371"></path>
                <path d="M255.27,49.632 C255.27,51.151 254.039,52.382 252.52,52.382 C251.001,52.382 249.77,51.151 249.77,49.632 C249.77,48.113 251.001,46.882 252.52,46.882 C254.039,46.882 255.27,48.113 255.27,49.632" id="Fill-151" fill="#131371"></path>
            </g>
        </g>
    </g>
</svg>