<?xml version="1.0" encoding="UTF-8"?>
<svg width="330px" height="47px" viewBox="0 0 330 47" version="1.1" xmlns="http://www.w3.org/2000/svg" xmlns:xlink="http://www.w3.org/1999/xlink">
    <!-- Generator: Sketch 49.3 (51167) - http://www.bohemiancoding.com/sketch -->
    <title>techcrunch</title>
    <desc>Created with Sketch.</desc>
    <defs></defs>
    <g id="Page-1" stroke="none" stroke-width="1" fill="none" fill-rule="evenodd">
        <g id="Artboard" transform="translate(-1074.000000, -3438.000000)" fill-rule="nonzero">
            <g id="techcrunch" transform="translate(1074.000000, 3438.000000)">
                <g id="Group" transform="translate(109.000000, 11.000000)">
                    <polygon id="Shape" fill="#0A9600" points="15.373913 7.59090909 15.373913 27.9090909 7.8242236 27.9090909 7.8242236 7.59090909 0.274534161 7.59090909 0.274534161 1.04545455 22.9236025 1.04545455 22.9236025 7.59090909"></polygon>
                    <path d="M40.6310559,20 L28.6888199,20 C28.826087,22.3181818 30.1987578,23.2727273 32.1204969,23.2727273 C33.9049689,23.2727273 35.4149068,22.8636364 37.336646,21.9090909 L40.0819876,26.2727273 C37.6111801,27.7727273 35.0031056,28.5909091 31.7086957,28.5909091 C25.531677,28.5909091 22.2372671,24.3636364 22.2372671,17.9545455 C22.2372671,11 26.0807453,7.31818182 31.5714286,7.31818182 C37.1993789,7.31818182 40.6310559,11 40.6310559,18.5 C40.6310559,19.1818182 40.6310559,19.5909091 40.6310559,20 Z M31.2968944,12.5 C29.7869565,12.5 28.826087,13.5909091 28.5515528,15.6363636 L34.3167702,15.6363636 C34.042236,13.5909091 33.4931677,12.5 31.2968944,12.5 Z" id="Shape" fill="#0A9600"></path>
                    <path d="M53.5341615,28.4545455 C47.4944099,28.4545455 44.0627329,24.6363636 44.0627329,17.8181818 C44.0627329,11.6818182 47.2198758,7.45454545 53.8086957,7.45454545 C57.6521739,7.45454545 59.8484472,9.22727273 61.4956522,12.0909091 L56.6913043,15.7727273 C55.7304348,14 55.1813665,13.0454545 53.5341615,13.0454545 C51.7496894,13.0454545 50.7888199,14.8181818 50.7888199,18.0909091 C50.7888199,21.3636364 51.7496894,22.8636364 53.6714286,22.8636364 C55.0440994,22.8636364 56.0049689,22.0454545 57.1031056,20.1363636 L61.4956522,23.5454545 C59.436646,27.0909091 57.1031056,28.4545455 53.5341615,28.4545455 Z" id="Shape" fill="#0A9600"></path>
                    <path d="M77.1440994,28.0454545 L77.1440994,16.4545455 C77.1440994,13.7272727 76.1832298,13.1818182 74.810559,13.1818182 C73.3006211,13.1818182 72.4770186,14 72.4770186,16.4545455 L72.4770186,28.0454545 L65.4763975,28.0454545 L65.4763975,2.81818182 L72.4770186,0.0909090909 L72.4770186,9.36363636 C73.8496894,8.40909091 75.2223602,7.59090909 77.5559006,7.59090909 C81.9484472,7.59090909 84.1447205,10.4545455 84.1447205,15.9090909 L84.1447205,28.0454545 L77.1440994,28.0454545 Z" id="Shape" fill="#0A9600"></path>
                    <path d="M101.028571,28.4545455 C92.9298137,28.4545455 88.6745342,22.4545455 88.6745342,14.5454545 C88.6745342,5.95454545 93.7534161,0.636363636 101.028571,0.636363636 C107.617391,0.636363636 110.362733,3.5 112.284472,8.54545455 L105.558385,11.2727273 C104.597516,8.81818182 103.636646,7.18181818 101.165839,7.18181818 C98.0086957,7.18181818 96.7732919,10.3181818 96.7732919,14.5454545 C96.7732919,18.6363636 98.1459627,21.9090909 101.440373,21.9090909 C103.773913,21.9090909 104.734783,20.5454545 106.24472,18.0909091 L112.696273,21.3636364 C110.5,24.9090909 107.342857,28.4545455 101.028571,28.4545455 Z" id="Shape" fill="#000000"></path>
                    <path d="M129.442857,15.5 C128.481988,14.5454545 127.521118,13.7272727 126.148447,13.7272727 C124.363975,13.7272727 123.403106,14.5454545 123.403106,17 L123.403106,27.9090909 L116.402484,27.9090909 L116.402484,7.86363636 L123.403106,7.86363636 L123.403106,9.36363636 C124.501242,8.27272727 125.873913,7.45454545 127.658385,7.45454545 C129.168323,7.45454545 130.129193,7.86363636 130.952795,8.27272727 L129.442857,15.5 Z" id="Shape" fill="#000000"></path>
                    <path d="M145.914907,28.0454545 L145.914907,26.6818182 C144.81677,27.6363636 143.169565,28.4545455 140.836025,28.4545455 C136.443478,28.4545455 134.247205,25.5909091 134.247205,20.1363636 L134.247205,7.86363636 L141.247826,7.86363636 L141.247826,19.4545455 C141.247826,22.1818182 142.208696,22.7272727 143.581366,22.7272727 C144.954037,22.7272727 145.914907,21.9090909 145.914907,19.4545455 L145.914907,7.86363636 L152.915528,7.86363636 L152.915528,28.0454545 L145.914907,28.0454545 Z" id="Shape" fill="#000000"></path>
                    <path d="M169.662112,28.0454545 L169.662112,16.4545455 C169.662112,13.7272727 168.701242,13.1818182 167.328571,13.1818182 C165.818634,13.1818182 164.995031,14 164.995031,16.4545455 L164.995031,28.0454545 L157.99441,28.0454545 L157.99441,7.86363636 L164.995031,7.86363636 L164.995031,9.22727273 C166.367702,8.27272727 167.740373,7.45454545 170.073913,7.45454545 C174.46646,7.45454545 176.662733,10.3181818 176.662733,15.7727273 L176.662733,28.0454545 L169.662112,28.0454545 Z" id="Shape" fill="#000000"></path>
                    <path d="M190.252174,28.4545455 C184.212422,28.4545455 180.780745,24.6363636 180.780745,17.8181818 C180.780745,11.6818182 183.937888,7.45454545 190.526708,7.45454545 C194.370186,7.45454545 196.56646,9.22727273 198.213665,12.0909091 L193.409317,15.7727273 C192.448447,14 191.899379,13.0454545 190.252174,13.0454545 C188.467702,13.0454545 187.506832,14.8181818 187.506832,18.0909091 C187.506832,21.3636364 188.467702,22.8636364 190.389441,22.8636364 C191.762112,22.8636364 192.722981,22.0454545 193.821118,20.1363636 L198.213665,23.5454545 C196.017391,27.0909091 193.958385,28.4545455 190.252174,28.4545455 Z" id="Shape" fill="#000000"></path>
                    <path d="M213.999379,28.0454545 L213.999379,16.4545455 C213.999379,13.7272727 213.038509,13.1818182 211.665839,13.1818182 C210.155901,13.1818182 209.332298,14 209.332298,16.4545455 L209.332298,28.0454545 L202.331677,28.0454545 L202.331677,2.81818182 L209.332298,0.0909090909 L209.332298,9.36363636 C210.704969,8.40909091 212.07764,7.59090909 214.41118,7.59090909 C218.803727,7.59090909 221,10.4545455 221,15.9090909 L221,28.0454545 L213.999379,28.0454545 Z" id="Shape" fill="#000000"></path>
                </g>
                <g id="Group" fill="#0A9600">
                    <polygon id="Shape" points="0 0.138235294 0 15.7588235 15.6205882 15.7588235 15.6205882 46.8617647 31.2411765 46.8617647 31.2411765 15.7588235 46.7235294 15.7588235 46.7235294 0.138235294"></polygon>
                    <polygon id="Shape" points="62.3441176 31.2411765 62.3441176 15.7588235 46.7235294 15.7588235 46.7235294 46.8617647 93.5852941 46.8617647 93.5852941 31.2411765"></polygon>
                    <rect id="Rectangle-path" x="62.3441176" y="0.138235294" width="31.2411765" height="15.6205882"></rect>
                </g>
            </g>
        </g>
    </g>
</svg>